<?xml version="1.0" encoding="utf-8"?>
<!-- Generator: Adobe Illustrator 24.1.2, SVG Export Plug-In . SVG Version: 6.00 Build 0)  -->
<svg version="1.1" id="Camada_1" xmlns="http://www.w3.org/2000/svg" xmlns:xlink="http://www.w3.org/1999/xlink" x="0px" y="0px"
	 viewBox="0 0 1634.8 1888.9" style="enable-background:new 0 0 1634.8 1888.9;" xml:space="preserve">
<style type="text/css">
	.st0{fill:none;stroke:url(#SVGID_1_);stroke-width:6;stroke-miterlimit:10;}
	.st1{fill:none;stroke:url(#SVGID_2_);stroke-width:6;stroke-miterlimit:10;}
	.st2{fill:none;stroke:url(#SVGID_3_);stroke-width:6;stroke-miterlimit:10;}
	.st3{fill:none;stroke:url(#SVGID_4_);stroke-width:6;stroke-miterlimit:10;}
	.st4{fill:none;stroke:url(#SVGID_5_);stroke-width:6;stroke-miterlimit:10;}
	.st5{fill:none;stroke:url(#SVGID_6_);stroke-width:6;stroke-miterlimit:10;}
	.st6{fill:none;stroke:url(#SVGID_7_);stroke-width:6;stroke-miterlimit:10;}
	.st7{fill:none;stroke:url(#SVGID_8_);stroke-width:6;stroke-miterlimit:10;}
	.st8{fill:none;stroke:url(#SVGID_9_);stroke-width:6;stroke-miterlimit:10;}
	.st9{fill:none;stroke:url(#SVGID_10_);stroke-width:6;stroke-miterlimit:10;}
	.st10{fill:none;stroke:url(#SVGID_11_);stroke-width:6;stroke-miterlimit:10;}
	.st11{fill:none;stroke:url(#SVGID_12_);stroke-width:6;stroke-miterlimit:10;}
	.st12{fill:none;stroke:url(#SVGID_13_);stroke-width:6;stroke-miterlimit:10;}
	.st13{fill:none;stroke:url(#SVGID_14_);stroke-width:6;stroke-miterlimit:10;}
	.st14{fill:none;stroke:url(#SVGID_15_);stroke-width:6;stroke-miterlimit:10;}
	.st15{fill:none;stroke:url(#SVGID_16_);stroke-width:6;stroke-miterlimit:10;}
	.st16{fill:none;stroke:url(#SVGID_17_);stroke-width:6;stroke-miterlimit:10;}
	.st17{fill:none;stroke:url(#SVGID_18_);stroke-width:6;stroke-miterlimit:10;}
	.st18{fill:none;stroke:url(#SVGID_19_);stroke-width:6;stroke-miterlimit:10;}
	.st19{fill:none;stroke:url(#SVGID_20_);stroke-width:6;stroke-miterlimit:10;}
	.st20{fill:none;stroke:url(#SVGID_21_);stroke-width:6;stroke-miterlimit:10;}
	.st21{fill:none;stroke:url(#SVGID_22_);stroke-width:6;stroke-miterlimit:10;}
	.st22{fill:none;stroke:url(#SVGID_23_);stroke-width:6;stroke-miterlimit:10;}
	.st23{fill:none;stroke:url(#SVGID_24_);stroke-width:6;stroke-miterlimit:10;}
	.st24{fill:none;stroke:url(#SVGID_25_);stroke-width:6;stroke-miterlimit:10;}
	.st25{fill:none;stroke:url(#SVGID_26_);stroke-width:6;stroke-miterlimit:10;}
</style>
<g>
	
		<image style="overflow:visible;opacity:0.75;enable-background:new    ;" width="6213" height="7429" xlink:href="5AE0D0EB.png"  transform="matrix(0.2398 0 0 0.2398 -1674.3229 44.0975)">
	</image>
	<g>
		<g>
			
				<linearGradient id="SVGID_1_" gradientUnits="userSpaceOnUse" x1="6246.9561" y1="-3402.5757" x2="7998.0522" y2="-3402.5757" gradientTransform="matrix(1.320000e-02 0.9999 0.9999 -1.320000e-02 2374.5579 -6233.9658)">
				<stop  offset="5.586592e-03" style="stop-color:#E5147D"/>
				<stop  offset="0.3939" style="stop-color:#F18B04"/>
				<stop  offset="0.6229" style="stop-color:#684287"/>
				<stop  offset="0.7123" style="stop-color:#4E378C"/>
				<stop  offset="0.7475" style="stop-color:#4D388D"/>
				<stop  offset="0.7761" style="stop-color:#4B3F91"/>
				<stop  offset="0.8023" style="stop-color:#474998"/>
				<stop  offset="0.8271" style="stop-color:#3E58A3"/>
				<stop  offset="0.8507" style="stop-color:#2D69B0"/>
				<stop  offset="0.8652" style="stop-color:#1376BB"/>
				<stop  offset="0.9944" style="stop-color:#005D98"/>
			</linearGradient>
			<path class="st0" d="M-824.4,77.4c-177.2-13.6-204.1-19.7-239.5-13.6c-30.6,5.3-304.7,138.9-334.9,374.4
				c-35,273.2-44.3,570.9-24.9,684.7c17.3,101,23.8,264.6,29.4,313.8c7.5,64.9,19.6,170.1,57.5,215.8c26.6,32.2,37.6-3.5,77.2,21.6
				c66.1,41.9,72.9,137.8,109.7,133.9c53.2-5.6,69-209.9,115.7-203.2c34.3,4.9,43.8,119.2,77,114.6c27.5-3.9,46.3-81.2,58.9-134.7
				c27.3-115.6,223.7,201.1,319.8,162c326.1-132.9,28.5-436.5,45.8-629.2c9.2-102.7,47.8-583.2,58.3-685.2
				c22-212.8-296.8-128.4-310.2-195.9C-796.7,175.3-686.1,88.1-824.4,77.4z"/>
		</g>
		<g>
			
				<linearGradient id="SVGID_2_" gradientUnits="userSpaceOnUse" x1="6280.502" y1="-3402.4077" x2="7964.3701" y2="-3402.4077" gradientTransform="matrix(1.320000e-02 0.9999 0.9999 -1.320000e-02 2374.5579 -6233.9658)">
				<stop  offset="5.586592e-03" style="stop-color:#E5147D"/>
				<stop  offset="0.3939" style="stop-color:#F18B04"/>
				<stop  offset="0.6229" style="stop-color:#684287"/>
				<stop  offset="0.7123" style="stop-color:#4E378C"/>
				<stop  offset="0.7475" style="stop-color:#4D388D"/>
				<stop  offset="0.7761" style="stop-color:#4B3F91"/>
				<stop  offset="0.8023" style="stop-color:#474998"/>
				<stop  offset="0.8271" style="stop-color:#3E58A3"/>
				<stop  offset="0.8507" style="stop-color:#2D69B0"/>
				<stop  offset="0.8652" style="stop-color:#1376BB"/>
				<stop  offset="0.9944" style="stop-color:#005D98"/>
			</linearGradient>
			<path class="st1" d="M-821.2,110.4c-182.7-13.1-210.5-19-246.9-13c-31.5,5.1-314.1,133.5-345.2,360
				c-36.1,262.7-45.7,549-25.7,658.4c17.8,97.1,24.5,254.4,30.3,301.8c7.7,62.4,20.2,163.5,59.2,207.5c27.4,30.9,38.8-3.3,79.6,20.8
				c68.1,40.3,75.2,132.5,113,128.8c54.8-5.4,71.2-201.9,119.3-195.4c35.3,4.8,45.2,114.7,79.4,110.1c28.4-3.7,47.7-78.1,60.7-129.5
				c28.1-111.1,230.6,193.4,329.7,155.7c336.2-127.8,29.3-419.7,47.2-605c9.5-98.8,49.2-560.8,60.1-658.9
				c22.6-204.6-306-123.5-319.7-188.4C-792.6,204.5-678.6,120.6-821.2,110.4z"/>
		</g>
		<g>
			
				<linearGradient id="SVGID_3_" gradientUnits="userSpaceOnUse" x1="6312.7524" y1="-3402.2563" x2="7931.9844" y2="-3402.2563" gradientTransform="matrix(1.320000e-02 0.9999 0.9999 -1.320000e-02 2374.5579 -6233.9658)">
				<stop  offset="5.586592e-03" style="stop-color:#E5147D"/>
				<stop  offset="0.3939" style="stop-color:#F18B04"/>
				<stop  offset="0.6229" style="stop-color:#684287"/>
				<stop  offset="0.7123" style="stop-color:#4E378C"/>
				<stop  offset="0.7475" style="stop-color:#4D388D"/>
				<stop  offset="0.7761" style="stop-color:#4B3F91"/>
				<stop  offset="0.8023" style="stop-color:#474998"/>
				<stop  offset="0.8271" style="stop-color:#3E58A3"/>
				<stop  offset="0.8507" style="stop-color:#2D69B0"/>
				<stop  offset="0.8652" style="stop-color:#1376BB"/>
				<stop  offset="0.9944" style="stop-color:#005D98"/>
			</linearGradient>
			<path class="st2" d="M-817.8,142.1c-188.3-12.6-217-18.2-254.5-12.5c-32.5,4.9-323.8,128.4-355.9,346.1
				c-37.2,252.6-47.1,527.8-26.5,633c18.3,93.4,25.2,244.7,31.3,290.2c8,60,20.8,157.2,61.1,199.6c28.3,29.7,40-3.2,82.1,20
				c70.2,38.7,77.5,127.4,116.5,123.8c56.5-5.2,73.4-194.1,122.9-187.9c36.4,4.6,46.6,110.2,81.8,105.9
				c29.3-3.6,49.2-75.1,62.6-124.5c29-106.8,237.8,185.9,339.9,149.7c346.6-122.9,30.2-403.6,48.7-581.7
				c9.8-95,50.8-539.2,61.9-633.5c23.3-196.8-315.4-118.7-329.6-181.2C-788.4,232.6-670.9,152-817.8,142.1z"/>
		</g>
		<g>
			
				<linearGradient id="SVGID_4_" gradientUnits="userSpaceOnUse" x1="6343.7588" y1="-3402.1062" x2="7900.8359" y2="-3402.1062" gradientTransform="matrix(1.320000e-02 0.9999 0.9999 -1.320000e-02 2374.5579 -6233.9658)">
				<stop  offset="5.586592e-03" style="stop-color:#E5147D"/>
				<stop  offset="0.3939" style="stop-color:#F18B04"/>
				<stop  offset="0.6229" style="stop-color:#684287"/>
				<stop  offset="0.7123" style="stop-color:#4E378C"/>
				<stop  offset="0.7475" style="stop-color:#4D388D"/>
				<stop  offset="0.7761" style="stop-color:#4B3F91"/>
				<stop  offset="0.8023" style="stop-color:#474998"/>
				<stop  offset="0.8271" style="stop-color:#3E58A3"/>
				<stop  offset="0.8507" style="stop-color:#2D69B0"/>
				<stop  offset="0.8652" style="stop-color:#1376BB"/>
				<stop  offset="0.9944" style="stop-color:#005D98"/>
			</linearGradient>
			<path class="st3" d="M-814.4,172.6c-194.1-12.1-223.7-17.5-262.4-12c-33.5,4.7-333.9,123.4-366.9,332.8
				c-38.4,242.9-48.6,507.5-27.3,608.7c18.9,89.8,26,235.3,32.2,279c8.2,57.7,21.5,151.2,63,191.9c29.1,28.6,41.2-3.1,84.6,19.2
				c72.4,37.2,79.9,122.5,120.2,119.1c58.3-5,75.6-186.6,126.7-180.7c37.6,4.4,48,106,84.3,101.8c30.2-3.5,50.7-72.2,64.5-119.7
				c29.9-102.7,245.1,178.8,350.4,144c357.3-118.1,31.2-388,50.2-559.4c10.1-91.3,52.3-518.5,63.9-609.2
				c24.1-189.2-325.2-114.2-339.8-174.2C-784.1,259.6-662.9,182.1-814.4,172.6z"/>
		</g>
		<g>
			
				<linearGradient id="SVGID_5_" gradientUnits="userSpaceOnUse" x1="6373.5688" y1="-3401.949" x2="7870.875" y2="-3401.949" gradientTransform="matrix(1.320000e-02 0.9999 0.9999 -1.320000e-02 2374.5579 -6233.9658)">
				<stop  offset="5.586592e-03" style="stop-color:#E5147D"/>
				<stop  offset="0.3939" style="stop-color:#F18B04"/>
				<stop  offset="0.6229" style="stop-color:#684287"/>
				<stop  offset="0.7123" style="stop-color:#4E378C"/>
				<stop  offset="0.7475" style="stop-color:#4D388D"/>
				<stop  offset="0.7761" style="stop-color:#4B3F91"/>
				<stop  offset="0.8023" style="stop-color:#474998"/>
				<stop  offset="0.8271" style="stop-color:#3E58A3"/>
				<stop  offset="0.8507" style="stop-color:#2D69B0"/>
				<stop  offset="0.8652" style="stop-color:#1376BB"/>
				<stop  offset="0.9944" style="stop-color:#005D98"/>
			</linearGradient>
			<path class="st4" d="M-810.8,201.9c-200.1-11.6-230.6-16.9-270.5-11.6c-34.5,4.6-344.2,118.7-378.3,320
				c-39.5,233.6-50.1,488-28.2,585.3c19.5,86.4,26.8,226.2,33.2,268.3c8.4,55.5,22.1,145.4,64.9,184.5c30,27.5,42.5-3,87.2,18.5
				c74.6,35.8,82.4,117.8,123.9,114.5c60-4.8,78-179.4,130.7-173.7c38.7,4.2,49.5,101.9,87,97.9c31.1-3.3,52.3-69.4,66.5-115.1
				c30.8-98.8,252.7,171.9,361.3,138.4c368.4-113.6,32.1-373.1,51.7-537.8c10.4-87.8,53.9-498.5,65.8-585.8
				c24.8-181.9-335.2-109.8-350.3-167.5C-779.6,285.6-654.6,211-810.8,201.9z"/>
		</g>
		<g>
			
				<linearGradient id="SVGID_6_" gradientUnits="userSpaceOnUse" x1="6402.2329" y1="-3401.7993" x2="7842.0708" y2="-3401.7993" gradientTransform="matrix(1.320000e-02 0.9999 0.9999 -1.320000e-02 2374.5579 -6233.9658)">
				<stop  offset="5.586592e-03" style="stop-color:#E5147D"/>
				<stop  offset="0.3939" style="stop-color:#F18B04"/>
				<stop  offset="0.6229" style="stop-color:#684287"/>
				<stop  offset="0.7123" style="stop-color:#4E378C"/>
				<stop  offset="0.7475" style="stop-color:#4D388D"/>
				<stop  offset="0.7761" style="stop-color:#4B3F91"/>
				<stop  offset="0.8023" style="stop-color:#474998"/>
				<stop  offset="0.8271" style="stop-color:#3E58A3"/>
				<stop  offset="0.8507" style="stop-color:#2D69B0"/>
				<stop  offset="0.8652" style="stop-color:#1376BB"/>
				<stop  offset="0.9944" style="stop-color:#005D98"/>
			</linearGradient>
			<path class="st5" d="M-807.2,230.1c-206.3-11.2-237.7-16.2-278.9-11.1c-35.6,4.4-354.8,114.1-390,307.7
				c-40.8,224.6-51.7,469.3-29,562.8c20.1,83,27.7,217.5,34.3,257.9c8.7,53.3,22.8,139.8,66.9,177.4c31,26.4,43.8-2.9,89.9,17.8
				c76.9,34.4,84.9,113.3,127.7,110.1c61.9-4.6,80.4-172.6,134.7-167c39.9,4.1,51,98,89.7,94.2c32-3.2,53.9-66.8,68.6-110.7
				c31.7-95,260.5,165.3,372.4,133.1c379.8-109.2,33.1-358.8,53.3-517.2c10.8-84.4,55.6-479.3,67.9-563.2
				c25.6-174.9-345.6-105.5-361.2-161C-774.9,310.5-646.1,238.9-807.2,230.1z"/>
		</g>
		<g>
			
				<linearGradient id="SVGID_7_" gradientUnits="userSpaceOnUse" x1="6429.791" y1="-3401.6716" x2="7814.3433" y2="-3401.6716" gradientTransform="matrix(1.320000e-02 0.9999 0.9999 -1.320000e-02 2374.5579 -6233.9658)">
				<stop  offset="5.586592e-03" style="stop-color:#E5147D"/>
				<stop  offset="0.3939" style="stop-color:#F18B04"/>
				<stop  offset="0.6229" style="stop-color:#684287"/>
				<stop  offset="0.7123" style="stop-color:#4E378C"/>
				<stop  offset="0.7475" style="stop-color:#4D388D"/>
				<stop  offset="0.7761" style="stop-color:#4B3F91"/>
				<stop  offset="0.8023" style="stop-color:#474998"/>
				<stop  offset="0.8271" style="stop-color:#3E58A3"/>
				<stop  offset="0.8507" style="stop-color:#2D69B0"/>
				<stop  offset="0.8652" style="stop-color:#1376BB"/>
				<stop  offset="0.9944" style="stop-color:#005D98"/>
			</linearGradient>
			<path class="st6" d="M-803.4,257.2c-212.7-10.8-245.1-15.6-287.5-10.7c-36.7,4.2-365.8,109.7-402,295.9
				c-42,215.9-53.3,451.2-29.9,541.1c20.7,79.8,28.5,209.1,35.3,248c9,51.3,23.5,134.4,69,170.6c31.9,25.4,45.2-2.8,92.7,17.1
				c79.3,33.1,87.6,108.9,131.6,105.8c63.8-4.4,82.9-165.9,138.9-160.6c41.2,3.9,52.6,94.2,92.4,90.5c33-3.1,55.6-64.2,70.7-106.4
				c32.7-91.3,268.6,158.9,384,128c391.5-105,34.2-345,55-497.3c11.1-81.2,57.3-460.9,70-541.6c26.4-168.2-356.3-101.5-372.3-154.9
				C-770.2,334.5-637.4,265.6-803.4,257.2z"/>
		</g>
		<g>
			
				<linearGradient id="SVGID_8_" gradientUnits="userSpaceOnUse" x1="6456.2793" y1="-3401.5376" x2="7787.7036" y2="-3401.5376" gradientTransform="matrix(1.320000e-02 0.9999 0.9999 -1.320000e-02 2374.5579 -6233.9658)">
				<stop  offset="5.586592e-03" style="stop-color:#E5147D"/>
				<stop  offset="0.3939" style="stop-color:#F18B04"/>
				<stop  offset="0.6229" style="stop-color:#684287"/>
				<stop  offset="0.7123" style="stop-color:#4E378C"/>
				<stop  offset="0.7475" style="stop-color:#4D388D"/>
				<stop  offset="0.7761" style="stop-color:#4B3F91"/>
				<stop  offset="0.8023" style="stop-color:#474998"/>
				<stop  offset="0.8271" style="stop-color:#3E58A3"/>
				<stop  offset="0.8507" style="stop-color:#2D69B0"/>
				<stop  offset="0.8652" style="stop-color:#1376BB"/>
				<stop  offset="0.9944" style="stop-color:#005D98"/>
			</linearGradient>
			<path class="st7" d="M-799.5,283.3c-219.3-10.4-252.6-15-296.4-10.3c-37.8,4-377.1,105.5-414.5,284.5
				c-43.3,207.7-54.9,433.8-30.9,520.3c21.4,76.8,29.4,201.1,36.4,238.5c9.3,49.3,24.3,129.2,71.1,164c32.9,24.4,46.6-2.6,95.6,16.4
				c81.8,31.8,90.3,104.7,135.7,101.8c65.8-4.3,85.4-159.5,143.2-154.4c42.4,3.8,54.2,90.6,95.3,87.1c34.1-3,57.3-61.7,72.9-102.3
				c33.7-87.8,276.9,152.8,395.8,123.1c403.6-101,35.2-331.7,56.7-478.1c11.4-78,59.1-443.2,72.1-520.7
				c27.2-161.7-367.3-97.6-383.9-148.9C-765.2,357.6-628.3,291.4-799.5,283.3z"/>
		</g>
		<g>
			
				<linearGradient id="SVGID_9_" gradientUnits="userSpaceOnUse" x1="6481.7456" y1="-3401.4199" x2="7762.0596" y2="-3401.4199" gradientTransform="matrix(1.320000e-02 0.9999 0.9999 -1.320000e-02 2374.5579 -6233.9658)">
				<stop  offset="5.586592e-03" style="stop-color:#E5147D"/>
				<stop  offset="0.3939" style="stop-color:#F18B04"/>
				<stop  offset="0.6229" style="stop-color:#684287"/>
				<stop  offset="0.7123" style="stop-color:#4E378C"/>
				<stop  offset="0.7475" style="stop-color:#4D388D"/>
				<stop  offset="0.7761" style="stop-color:#4B3F91"/>
				<stop  offset="0.8023" style="stop-color:#474998"/>
				<stop  offset="0.8271" style="stop-color:#3E58A3"/>
				<stop  offset="0.8507" style="stop-color:#2D69B0"/>
				<stop  offset="0.8652" style="stop-color:#1376BB"/>
				<stop  offset="0.9944" style="stop-color:#005D98"/>
			</linearGradient>
			<path class="st8" d="M-795.5,308.4c-226.1-10-260.5-14.4-305.6-9.9c-39,3.9-388.8,101.5-427.3,273.5
				c-44.7,199.7-56.6,417.2-31.8,500.3c22,73.8,30.3,193.4,37.5,229.3c9.5,47.4,25,124.3,73.3,157.7c33.9,23.5,48-2.5,98.5,15.8
				c84.3,30.6,93.1,100.7,139.9,97.8c67.8-4.1,88.1-153.4,147.6-148.5c43.7,3.6,55.9,87.1,98.2,83.7c35.1-2.8,59.1-59.3,75.2-98.4
				c34.8-84.4,285.5,146.9,408.1,118.3c416.1-97.1,36.3-318.9,58.4-459.8c11.8-75,60.9-426.1,74.4-500.7
				c28-155.5-378.7-93.8-395.7-143.2C-760.2,379.8-619,316.1-795.5,308.4z"/>
		</g>
		<g>
			
				<linearGradient id="SVGID_10_" gradientUnits="userSpaceOnUse" x1="6506.2354" y1="-3401.29" x2="7737.4126" y2="-3401.29" gradientTransform="matrix(1.320000e-02 0.9999 0.9999 -1.320000e-02 2374.5579 -6233.9658)">
				<stop  offset="5.586592e-03" style="stop-color:#E5147D"/>
				<stop  offset="0.3939" style="stop-color:#F18B04"/>
				<stop  offset="0.6229" style="stop-color:#684287"/>
				<stop  offset="0.7123" style="stop-color:#4E378C"/>
				<stop  offset="0.7475" style="stop-color:#4D388D"/>
				<stop  offset="0.7761" style="stop-color:#4B3F91"/>
				<stop  offset="0.8023" style="stop-color:#474998"/>
				<stop  offset="0.8271" style="stop-color:#3E58A3"/>
				<stop  offset="0.8507" style="stop-color:#2D69B0"/>
				<stop  offset="0.8652" style="stop-color:#1376BB"/>
				<stop  offset="0.9944" style="stop-color:#005D98"/>
			</linearGradient>
			<path class="st9" d="M-791.3,332.5c-233.1-9.6-268.5-13.9-315-9.5c-40.2,3.8-400.8,97.6-440.5,263
				c-46.1,192-58.3,401.1-32.8,481.1c22.7,71,31.2,185.9,38.7,220.5c9.8,45.6,25.8,119.5,75.6,151.6c35,22.6,49.5-2.4,101.6,15.2
				c86.9,29.4,95.9,96.8,144.2,94.1c69.9-4,90.8-147.5,152.2-142.8c45.1,3.5,57.6,83.8,101.3,80.5c36.2-2.7,60.9-57.1,77.5-94.6
				c35.8-81.2,294.3,141.3,420.7,113.8c429-93.4,37.4-306.7,60.2-442.1c12.2-72.2,62.8-409.8,76.7-481.4
				c28.9-149.5-390.4-90.2-408-137.7C-754.9,401.2-609.4,339.9-791.3,332.5z"/>
		</g>
		<g>
			
				<linearGradient id="SVGID_11_" gradientUnits="userSpaceOnUse" x1="6529.7695" y1="-3401.1838" x2="7713.6821" y2="-3401.1838" gradientTransform="matrix(1.320000e-02 0.9999 0.9999 -1.320000e-02 2374.5579 -6233.9658)">
				<stop  offset="5.586592e-03" style="stop-color:#E5147D"/>
				<stop  offset="0.3939" style="stop-color:#F18B04"/>
				<stop  offset="0.6229" style="stop-color:#684287"/>
				<stop  offset="0.7123" style="stop-color:#4E378C"/>
				<stop  offset="0.7475" style="stop-color:#4D388D"/>
				<stop  offset="0.7761" style="stop-color:#4B3F91"/>
				<stop  offset="0.8023" style="stop-color:#474998"/>
				<stop  offset="0.8271" style="stop-color:#3E58A3"/>
				<stop  offset="0.8507" style="stop-color:#2D69B0"/>
				<stop  offset="0.8652" style="stop-color:#1376BB"/>
				<stop  offset="0.9944" style="stop-color:#005D98"/>
			</linearGradient>
			<path class="st10" d="M-787.1,355.6c-240.3-9.2-276.8-13.3-324.7-9.1c-41.5,3.6-413.2,93.8-454.1,252.9
				c-47.5,184.6-60.2,385.7-33.8,462.5c23.4,68.3,32.2,178.8,39.9,212c10.2,43.8,26.6,114.9,77.9,145.8c36.1,21.7,51-2.3,104.7,14.6
				c89.6,28.3,98.9,93.1,148.7,90.5c72.1-3.8,93.6-141.8,156.9-137.3c46.5,3.3,59.4,80.6,104.4,77.4c37.3-2.6,62.8-54.9,79.9-91
				c37-78.1,303.4,135.9,433.7,109.4c442.2-89.8,38.6-294.9,62.1-425.1c12.5-69.4,64.8-394,79-462.9
				C-282.8,451.6-715,508.6-733.1,463C-749.5,421.7-599.5,362.8-787.1,355.6z"/>
		</g>
		<g>
			
				<linearGradient id="SVGID_12_" gradientUnits="userSpaceOnUse" x1="6552.4009" y1="-3401.0601" x2="7690.8682" y2="-3401.0601" gradientTransform="matrix(1.320000e-02 0.9999 0.9999 -1.320000e-02 2374.5579 -6233.9658)">
				<stop  offset="5.586592e-03" style="stop-color:#E5147D"/>
				<stop  offset="0.3939" style="stop-color:#F18B04"/>
				<stop  offset="0.6229" style="stop-color:#684287"/>
				<stop  offset="0.7123" style="stop-color:#4E378C"/>
				<stop  offset="0.7475" style="stop-color:#4D388D"/>
				<stop  offset="0.7761" style="stop-color:#4B3F91"/>
				<stop  offset="0.8023" style="stop-color:#474998"/>
				<stop  offset="0.8271" style="stop-color:#3E58A3"/>
				<stop  offset="0.8507" style="stop-color:#2D69B0"/>
				<stop  offset="0.8652" style="stop-color:#1376BB"/>
				<stop  offset="0.9944" style="stop-color:#005D98"/>
			</linearGradient>
			<path class="st11" d="M-782.6,377.9c-247.7-8.9-285.4-12.8-334.8-8.8c-42.7,3.5-426,90.2-468.2,243.2
				c-48.9,177.5-62,370.9-34.8,444.8c24.1,65.6,33.2,171.9,41.1,203.9c10.5,42.2,27.4,110.5,80.3,140.2c37.2,20.9,52.6-2.3,107.9,14
				c92.4,27.2,102,89.5,153.3,87c74.3-3.7,96.5-136.4,161.7-132c47.9,3.2,61.2,77.5,107.6,74.4c38.5-2.5,64.7-52.8,82.3-87.5
				c38.1-75.1,312.8,130.6,447.1,105.2c455.9-86.3,39.8-283.5,64-408.7c12.9-66.7,66.8-378.8,81.5-445.1
				C-262.7,470.2-708.4,525-727,481.1C-744,441.4-589.3,384.8-782.6,377.9z"/>
		</g>
		<g>
			
				<linearGradient id="SVGID_13_" gradientUnits="userSpaceOnUse" x1="6574.1514" y1="-3400.9624" x2="7668.9302" y2="-3400.9624" gradientTransform="matrix(1.320000e-02 0.9999 0.9999 -1.320000e-02 2374.5579 -6233.9658)">
				<stop  offset="5.586592e-03" style="stop-color:#E5147D"/>
				<stop  offset="0.3939" style="stop-color:#F18B04"/>
				<stop  offset="0.6229" style="stop-color:#684287"/>
				<stop  offset="0.7123" style="stop-color:#4E378C"/>
				<stop  offset="0.7475" style="stop-color:#4D388D"/>
				<stop  offset="0.7761" style="stop-color:#4B3F91"/>
				<stop  offset="0.8023" style="stop-color:#474998"/>
				<stop  offset="0.8271" style="stop-color:#3E58A3"/>
				<stop  offset="0.8507" style="stop-color:#2D69B0"/>
				<stop  offset="0.8652" style="stop-color:#1376BB"/>
				<stop  offset="0.9944" style="stop-color:#005D98"/>
			</linearGradient>
			<path class="st12" d="M-778.1,399.3c-255.3-8.5-294.2-12.3-345.1-8.5c-44.1,3.3-439.2,86.7-482.7,233.8
				c-50.5,170.7-63.9,356.6-35.9,427.7c24.9,63.1,34.2,165.3,42.4,196c10.8,40.5,28.3,106.2,82.8,134.8
				c38.3,20.1,54.2-2.2,111.3,13.5c95.2,26.2,105.1,86.1,158,83.6c76.6-3.5,99.5-131.1,166.7-126.9c49.4,3.1,63.1,74.5,111,71.6
				c39.7-2.4,66.7-50.7,84.9-84.1c39.3-72.2,322.4,125.6,460.9,101.2c470-83,41-272.6,66-393c13.3-64.2,68.8-364.3,84-428
				c31.7-132.9-427.8-80.2-447-122.4C-738.2,460.4-578.8,406-778.1,399.3z"/>
		</g>
	</g>
</g>
<g>
	<g>
		
			<linearGradient id="SVGID_14_" gradientUnits="userSpaceOnUse" x1="1600.5497" y1="-16.9478" x2="2700.4658" y2="-16.9478" gradientTransform="matrix(0.9192 -0.3938 0.3938 0.9192 -1129.9971 1766.1284)">
			<stop  offset="5.586592e-03" style="stop-color:#E50C7C"/>
			<stop  offset="0.3939" style="stop-color:#F18B00"/>
			<stop  offset="0.6229" style="stop-color:#674185"/>
			<stop  offset="0.7123" style="stop-color:#4E368B"/>
			<stop  offset="0.7553" style="stop-color:#4B398D"/>
			<stop  offset="0.79" style="stop-color:#414294"/>
			<stop  offset="0.822" style="stop-color:#3052A0"/>
			<stop  offset="0.852" style="stop-color:#1869B1"/>
			<stop  offset="0.8652" style="stop-color:#0B75BA"/>
			<stop  offset="0.9944" style="stop-color:#005C97"/>
		</linearGradient>
		<path class="st13" d="M394,646.6c-23.4,37.9-38.6,34.8-46.4,72.3c-9.5,46.3-0.1,117.9,18.6,157.4c23.1,48.7,49.2,24.7,63.2,75.5
			c7.1,26,1.8,37.9,6,81c8.3,85.1,34.6,94.3,51.9,173.6c15,68.5,0,82.8,12,188.4c2.9,25.6,19.8,187.6,46.8,199.3
			c18.5,8,127.6,259.8,242.5,232.1c133.2-32.1,266.5-133.7,307.9-225.8c36.8-81.7,105.2-164.5,124.2-198
			c25.1-44.2,65.8-115.8,70-222.3c3-74.8-17.1-85.6-22.6-187.6c-9.2-170.2,29.7-225.8,12.8-309.2
			c-24.5-120.7-119.8-72.8-136.2-183.5c-12-81.4,33.7-150.7,17.9-225.5c-13.1-62.1-54.5-73.5-82.9-80.5
			C1018.2,178.5,1049.1,17,945.9,72c-8.9,4.7-74.7,5.5-165.6,45.2c-48.5,21.1-156.8-24.8-205.5-6.9
			C473.2,147.5,470.4,430,446.6,488.8C425,542.1,426.7,593.6,394,646.6z"/>
	</g>
	<g>
		
			<linearGradient id="SVGID_15_" gradientUnits="userSpaceOnUse" x1="1602.0023" y1="-18.5025" x2="2699.5771" y2="-18.5025" gradientTransform="matrix(0.9192 -0.3938 0.3938 0.9192 -1129.9971 1766.1284)">
			<stop  offset="5.586592e-03" style="stop-color:#E50C7C"/>
			<stop  offset="0.3939" style="stop-color:#F18B00"/>
			<stop  offset="0.6229" style="stop-color:#674185"/>
			<stop  offset="0.7123" style="stop-color:#4E368B"/>
			<stop  offset="0.7553" style="stop-color:#4B398D"/>
			<stop  offset="0.79" style="stop-color:#414294"/>
			<stop  offset="0.822" style="stop-color:#3052A0"/>
			<stop  offset="0.852" style="stop-color:#1869B1"/>
			<stop  offset="0.8652" style="stop-color:#0B75BA"/>
			<stop  offset="0.9944" style="stop-color:#005C97"/>
		</linearGradient>
		<path class="st14" d="M380.9,658.1c-24.2,36.5-39.8,33.4-47.8,69.5c-9.8,44.5-0.1,113.4,19.1,151.3c23.8,46.8,50.8,23.8,65.1,72.6
			c7.3,25,1.9,36.5,6.2,77.9c8.6,81.9,35.6,90.7,53.5,166.9c15.4,65.9,0,79.6,12.4,181.1c3,24.6,20.4,180.4,48.3,191.7
			c19,7.7,131.6,249.8,250,223.2c137.4-30.9,274.7-128.6,317.4-217.1c37.9-78.6,108.4-158.2,128-190.4
			c25.9-42.5,67.8-111.3,72.2-213.8c3.1-72-17.6-82.3-23.3-180.4c-9.5-163.7,30.6-217.1,13.2-297.3c-25.2-116-123.5-70-140.4-176.4
			c-12.4-78.2,34.7-144.9,18.5-216.9c-13.5-59.7-56.1-70.7-85.5-77.4c-63.4-14.6-31.5-169.9-137.9-117.1c-9.2,4.6-77,5.3-170.7,43.4
			c-50,20.3-161.6-23.9-211.8-6.7c-104.7,35.9-107.6,307.5-132.2,364.1C412.9,557.6,414.7,607.1,380.9,658.1z"/>
	</g>
	<g>
		
			<linearGradient id="SVGID_16_" gradientUnits="userSpaceOnUse" x1="1602.7629" y1="-19.92" x2="2699.4563" y2="-19.92" gradientTransform="matrix(0.9192 -0.3938 0.3938 0.9192 -1129.9971 1766.1284)">
			<stop  offset="5.586592e-03" style="stop-color:#E50C7C"/>
			<stop  offset="0.3939" style="stop-color:#F18B00"/>
			<stop  offset="0.6229" style="stop-color:#674185"/>
			<stop  offset="0.7123" style="stop-color:#4E368B"/>
			<stop  offset="0.7553" style="stop-color:#4B398D"/>
			<stop  offset="0.79" style="stop-color:#414294"/>
			<stop  offset="0.822" style="stop-color:#3052A0"/>
			<stop  offset="0.852" style="stop-color:#1869B1"/>
			<stop  offset="0.8652" style="stop-color:#0B75BA"/>
			<stop  offset="0.9944" style="stop-color:#005C97"/>
		</linearGradient>
		<path class="st15" d="M367.4,669.1c-24.9,35.1-41.1,32.1-49.3,66.8c-10.1,42.8-0.1,109,19.7,145.5c24.5,45,52.3,22.8,67.1,69.8
			c7.6,24,1.9,35.1,6.4,74.9c8.8,78.7,36.7,87.2,55.1,160.5c15.9,63.3,0,76.5,12.8,174.2c3.1,23.7,21,173.4,49.8,184.3
			c19.6,7.4,135.6,240.2,257.7,214.6C928.4,1730,1070,1636,1114,1550.9c39.1-75.6,111.8-152.1,132-183.1
			c26.7-40.9,69.9-107.1,74.4-205.5c3.1-69.2-18.2-79.2-24-173.4c-9.7-157.4,31.6-208.8,13.6-285.8
			c-26-111.6-127.3-67.3-144.7-169.7c-12.8-75.2,35.8-139.4,19-208.5c-13.9-57.4-57.9-68-88.1-74.5
			C1030.8,236.3,1063.6,87,954,137.8c-9.5,4.4-79.4,5.1-176,41.8c-51.5,19.5-166.6-23-218.4-6.4c-108,34.5-111,295.7-136.3,350.1
			C400.4,572.5,402.2,620.1,367.4,669.1z"/>
	</g>
	<g>
		
			<linearGradient id="SVGID_17_" gradientUnits="userSpaceOnUse" x1="1602.8318" y1="-21.1888" x2="2700.093" y2="-21.1888" gradientTransform="matrix(0.9192 -0.3938 0.3938 0.9192 -1129.9971 1766.1284)">
			<stop  offset="5.586592e-03" style="stop-color:#E50C7C"/>
			<stop  offset="0.3939" style="stop-color:#F18B00"/>
			<stop  offset="0.6229" style="stop-color:#674185"/>
			<stop  offset="0.7123" style="stop-color:#4E368B"/>
			<stop  offset="0.7553" style="stop-color:#4B398D"/>
			<stop  offset="0.79" style="stop-color:#414294"/>
			<stop  offset="0.822" style="stop-color:#3052A0"/>
			<stop  offset="0.852" style="stop-color:#1869B1"/>
			<stop  offset="0.8652" style="stop-color:#0B75BA"/>
			<stop  offset="0.9944" style="stop-color:#005C97"/>
		</linearGradient>
		<path class="st16" d="M353.5,679.7c-25.7,33.7-42.3,30.9-50.8,64.3c-10.4,41.1-0.1,104.8,20.3,139.9c25.3,43.3,53.9,22,69.2,67.1
			c7.8,23.1,2,33.7,6.6,72c9.1,75.7,37.9,83.9,56.8,154.3c16.4,60.9,0,73.6,13.2,167.5c3.2,22.8,21.7,166.8,51.3,177.2
			c20.2,7.1,139.8,231,265.7,206.4c146-28.6,292-118.9,337.3-200.7c40.3-72.7,115.2-146.2,136.1-176
			c27.5-39.3,72.1-102.9,76.7-197.6c3.2-66.5-18.7-76.1-24.7-166.8c-10-151.3,32.5-200.7,14-274.8
			c-26.8-107.3-131.3-64.7-149.2-163.1c-13.2-72.3,36.9-134,19.6-200.5c-14.3-55.2-59.7-65.3-90.9-71.6
			c-67.4-13.5-33.5-157.1-146.6-108.3c-9.8,4.2-81.8,4.9-181.4,40.1c-53.1,18.8-171.8-22.1-225.2-6.2
			c-111.3,33.1-114.4,284.3-140.5,336.6C387.5,586.8,389.4,632.6,353.5,679.7z"/>
	</g>
	<g>
		
			<linearGradient id="SVGID_18_" gradientUnits="userSpaceOnUse" x1="1602.2073" y1="-22.2983" x2="2701.4788" y2="-22.2983" gradientTransform="matrix(0.9192 -0.3938 0.3938 0.9192 -1129.9971 1766.1284)">
			<stop  offset="5.586592e-03" style="stop-color:#E50C7C"/>
			<stop  offset="0.3939" style="stop-color:#F18B00"/>
			<stop  offset="0.6229" style="stop-color:#674185"/>
			<stop  offset="0.7123" style="stop-color:#4E368B"/>
			<stop  offset="0.7553" style="stop-color:#4B398D"/>
			<stop  offset="0.79" style="stop-color:#414294"/>
			<stop  offset="0.822" style="stop-color:#3052A0"/>
			<stop  offset="0.852" style="stop-color:#1869B1"/>
			<stop  offset="0.8652" style="stop-color:#0B75BA"/>
			<stop  offset="0.9944" style="stop-color:#005C97"/>
		</linearGradient>
		<path class="st17" d="M339.1,689.9c-26.5,32.4-43.7,29.7-52.4,61.8c-10.7,39.5-0.1,100.8,21,134.5c26.1,41.6,55.6,21.1,71.3,64.5
			c8,22.2,2.1,32.4,6.8,69.2c9.4,72.8,39,80.7,58.6,148.4c16.9,58.6,0,70.8,13.6,161c3.3,21.9,22.3,160.3,52.9,170.4
			c20.8,6.9,144.2,222.1,273.9,198.4c150.5-27.5,301-114.3,347.8-193c41.5-69.9,118.8-140.6,140.3-169.3c28.4-37.8,74.3-99,79.1-190
			c3.3-64-19.3-73.2-25.5-160.3c-10.4-145.5,33.5-193,14.5-264.3c-27.6-103.2-135.3-62.2-153.8-156.9
			c-13.6-69.5,38-128.8,20.2-192.8c-14.8-53.1-61.5-62.8-93.7-68.8c-69.5-13-34.6-151.1-151.1-104.1c-10.1,4.1-84.3,4.7-187.1,38.6
			c-54.7,18.1-177.1-21.2-232.1-5.9C428.6,263.2,425.4,504.7,398.5,555C374.2,600.5,376.1,644.6,339.1,689.9z"/>
	</g>
	<g>
		
			<linearGradient id="SVGID_19_" gradientUnits="userSpaceOnUse" x1="1600.8866" y1="-23.2392" x2="2703.6057" y2="-23.2392" gradientTransform="matrix(0.9192 -0.3938 0.3938 0.9192 -1129.9971 1766.1284)">
			<stop  offset="5.586592e-03" style="stop-color:#E50C7C"/>
			<stop  offset="0.3939" style="stop-color:#F18B00"/>
			<stop  offset="0.6229" style="stop-color:#674185"/>
			<stop  offset="0.7123" style="stop-color:#4E368B"/>
			<stop  offset="0.7553" style="stop-color:#4B398D"/>
			<stop  offset="0.79" style="stop-color:#414294"/>
			<stop  offset="0.822" style="stop-color:#3052A0"/>
			<stop  offset="0.852" style="stop-color:#1869B1"/>
			<stop  offset="0.8652" style="stop-color:#0B75BA"/>
			<stop  offset="0.9944" style="stop-color:#005C97"/>
		</linearGradient>
		<path class="st18" d="M324.3,699.7c-27.3,31.2-45,28.6-54,59.4c-11.1,38-0.1,96.9,21.6,129.3c26.9,40,57.3,20.3,73.5,62.1
			c8.3,21.4,2.1,31.2,7,66.5c9.7,70,40.2,77.5,60.4,142.7c17.4,56.3,0,68.1,14,154.8c3.4,21.1,23,154.2,54.5,163.8
			c21.5,6.6,148.6,213.6,282.3,190.8c155.2-26.4,310.3-109.9,358.5-185.6c42.8-67.2,122.5-135.2,144.6-162.7
			c29.2-36.3,76.6-95.2,81.5-182.7c3.4-61.5-19.9-70.4-26.3-154.2c-10.7-139.9,34.6-185.6,14.9-254.1
			c-28.5-99.2-139.5-59.9-158.6-150.8c-14-66.9,39.2-123.9,20.9-185.4c-15.2-51-63.4-60.4-96.6-66.2
			c-71.6-12.5-35.6-145.3-155.8-100.1c-10.4,3.9-87,4.5-192.8,37.1c-56.4,17.4-182.6-20.4-239.3-5.7
			C416.6,289.4,413.3,521.6,385.6,570C360.5,613.7,362.5,656.1,324.3,699.7z"/>
	</g>
	<g>
		
			<linearGradient id="SVGID_20_" gradientUnits="userSpaceOnUse" x1="1598.8657" y1="-24.0041" x2="2709.9753" y2="-24.0041" gradientTransform="matrix(0.9192 -0.3938 0.3938 0.9192 -1129.9971 1766.1284)">
			<stop  offset="5.586592e-03" style="stop-color:#E50C7C"/>
			<stop  offset="0.3939" style="stop-color:#F18B00"/>
			<stop  offset="0.6229" style="stop-color:#674185"/>
			<stop  offset="0.7123" style="stop-color:#4E368B"/>
			<stop  offset="0.7553" style="stop-color:#4B398D"/>
			<stop  offset="0.79" style="stop-color:#414294"/>
			<stop  offset="0.822" style="stop-color:#3052A0"/>
			<stop  offset="0.852" style="stop-color:#1869B1"/>
			<stop  offset="0.8652" style="stop-color:#0B75BA"/>
			<stop  offset="0.9944" style="stop-color:#005C97"/>
		</linearGradient>
		<path class="st19" d="M309.1,709.1c-28.1,30-46.4,27.5-55.7,57.1c-11.4,36.6-0.2,93.2,22.3,124.4c27.7,38.5,59.1,19.5,75.8,59.7
			c8.5,20.6,2.2,30,7.2,64c10,67.3,41.5,74.6,62.3,137.2c18,54.1,0,65.4,14.5,148.9c3.5,20.2,23.7,148.2,56.2,157.5
			c22.2,6.3,153.2,205.3,291.1,183.5c160-25.4,319.9-105.7,369.6-178.4c44.1-64.6,126.3-130,149.1-156.5c30.1-34.9,79-91.5,84-175.7
			c3.6-59.1-20.5-67.7-27.1-148.2c-11-134.5,35.6-178.5,15.4-244.3c-29.4-95.4-143.8-57.6-163.5-145
			c-14.5-64.3,40.4-119.1,21.5-178.3c-15.7-49.1-65.4-58.1-99.5-63.7c-73.8-12-36.7-139.7-160.6-96.3c-10.7,3.7-89.6,4.3-198.8,35.7
			c-58.2,16.7-188.2-19.6-246.7-5.5c-121.9,29.5-125.4,252.7-153.9,299.3C346.4,626.5,348.4,667.2,309.1,709.1z"/>
	</g>
	<g>
		
			<linearGradient id="SVGID_21_" gradientUnits="userSpaceOnUse" x1="1596.139" y1="-24.5889" x2="2722.4099" y2="-24.5889" gradientTransform="matrix(0.9192 -0.3938 0.3938 0.9192 -1129.9971 1766.1284)">
			<stop  offset="5.586592e-03" style="stop-color:#E50C7C"/>
			<stop  offset="0.3939" style="stop-color:#F18B00"/>
			<stop  offset="0.6229" style="stop-color:#674185"/>
			<stop  offset="0.7123" style="stop-color:#4E368B"/>
			<stop  offset="0.7553" style="stop-color:#4B398D"/>
			<stop  offset="0.79" style="stop-color:#414294"/>
			<stop  offset="0.822" style="stop-color:#3052A0"/>
			<stop  offset="0.852" style="stop-color:#1869B1"/>
			<stop  offset="0.8652" style="stop-color:#0B75BA"/>
			<stop  offset="0.9944" style="stop-color:#005C97"/>
		</linearGradient>
		<path class="st20" d="M293.4,718.1c-29,28.8-47.8,26.4-57.4,54.9c-11.8,35.1-0.2,89.6,23,119.6c28.6,37,60.9,18.8,78.2,57.4
			c8.8,19.8,2.2,28.8,7.5,61.5c10.3,64.7,42.8,71.7,64.2,131.9c18.5,52.1,0,62.9,14.9,143.2c3.6,19.5,24.5,142.5,58,151.5
			c22.8,6.1,157.9,197.4,300.1,176.4c164.9-24.4,329.8-101.6,381-171.6c45.5-62.1,130.2-125,153.7-150.5
			c31.1-33.6,81.4-88,86.6-168.9c3.7-56.9-21.2-65.1-27.9-142.5c-11.3-129.4,36.7-171.6,15.8-234.9
			c-30.3-91.7-148.3-55.3-168.6-139.5c-14.9-61.8,41.7-114.5,22.2-171.4c-16.2-47.2-67.4-55.9-102.6-61.2
			c-76.1-11.6-37.9-134.3-165.5-92.5c-11,3.6-92.4,4.2-205,34.3c-60,16.1-194.1-18.9-254.3-5.3c-125.7,28.3-129.2,243-158.7,287.8
			C331.8,638.7,333.9,677.9,293.4,718.1z"/>
	</g>
	<g>
		
			<linearGradient id="SVGID_22_" gradientUnits="userSpaceOnUse" x1="1592.6995" y1="-24.9931" x2="2735.5208" y2="-24.9931" gradientTransform="matrix(0.9192 -0.3938 0.3938 0.9192 -1129.9971 1766.1284)">
			<stop  offset="5.586592e-03" style="stop-color:#E50C7C"/>
			<stop  offset="0.3939" style="stop-color:#F18B00"/>
			<stop  offset="0.6229" style="stop-color:#674185"/>
			<stop  offset="0.7123" style="stop-color:#4E368B"/>
			<stop  offset="0.7553" style="stop-color:#4B398D"/>
			<stop  offset="0.79" style="stop-color:#414294"/>
			<stop  offset="0.822" style="stop-color:#3052A0"/>
			<stop  offset="0.852" style="stop-color:#1869B1"/>
			<stop  offset="0.8652" style="stop-color:#0B75BA"/>
			<stop  offset="0.9944" style="stop-color:#005C97"/>
		</linearGradient>
		<path class="st21" d="M277.2,726.8c-29.9,27.7-49.3,25.4-59.2,52.8c-12.1,33.8-0.2,86.2,23.7,115c29.5,35.6,62.8,18.1,80.6,55.2
			c9.1,19,2.3,27.7,7.7,59.2c10.6,62.2,44.1,68.9,66.2,126.8c19.1,50.1,0,60.5,15.4,137.7c3.7,18.7,25.2,137.1,59.8,145.7
			c23.5,5.9,162.8,189.9,309.4,169.6c170-23.5,340-97.7,392.8-165c46.9-59.7,134.2-120.2,158.5-144.7c32-32.3,83.9-84.6,89.3-162.4
			c3.8-54.7-21.8-62.6-28.8-137.1c-11.7-124.4,37.9-165,16.3-225.9c-31.2-88.2-152.9-53.2-173.8-134.1
			c-15.4-59.5,43-110.1,22.8-164.8c-16.7-45.4-69.5-53.7-105.8-58.8c-78.5-11.1-39-129.1-170.7-89c-11.4,3.5-95.3,4-211.3,33
			c-61.8,15.4-200.1-18.1-262.2-5.1c-129.6,27.2-133.2,233.7-163.6,276.7C316.8,650.5,319,688.1,277.2,726.8z"/>
	</g>
	<g>
		
			<linearGradient id="SVGID_23_" gradientUnits="userSpaceOnUse" x1="1578.726" y1="-25.2202" x2="2749.3147" y2="-25.2202" gradientTransform="matrix(0.9192 -0.3938 0.3938 0.9192 -1129.9971 1766.1284)">
			<stop  offset="5.586592e-03" style="stop-color:#E50C7C"/>
			<stop  offset="0.3939" style="stop-color:#F18B00"/>
			<stop  offset="0.6229" style="stop-color:#674185"/>
			<stop  offset="0.7123" style="stop-color:#4E368B"/>
			<stop  offset="0.7553" style="stop-color:#4B398D"/>
			<stop  offset="0.79" style="stop-color:#414294"/>
			<stop  offset="0.822" style="stop-color:#3052A0"/>
			<stop  offset="0.852" style="stop-color:#1869B1"/>
			<stop  offset="0.8652" style="stop-color:#0B75BA"/>
			<stop  offset="0.9944" style="stop-color:#005C97"/>
		</linearGradient>
		<path class="st22" d="M260.5,735.2c-30.8,26.6-50.8,24.4-61,50.8c-12.5,32.5-0.2,82.9,24.4,110.6c30.4,34.2,64.8,17.4,83.1,53.1
			c9.4,18.3,2.4,26.7,7.9,56.9c10.9,59.8,45.5,66.3,68.2,122c19.7,48.1,0,58.2,15.8,132.4c3.9,18,26,131.8,61.6,140.1
			c24.3,5.6,167.9,182.5,318.9,163.1c175.3-22.6,350.5-94,405-158.6c48.4-57.4,138.3-115.6,163.4-139.1c33-31,86.5-81.4,92.1-156.2
			c3.9-52.6-22.5-60.2-29.7-131.8c-12.1-119.6,39.1-158.7,16.8-217.2c-32.2-84.8-157.6-51.2-179.1-128.9
			c-15.8-57.2,44.3-105.9,23.6-158.5c-17.2-43.6-71.6-51.6-109.1-56.6c-80.9-10.7-40.3-124.2-175.9-85.6
			c-11.7,3.3-98.2,3.9-217.8,31.7c-63.7,14.9-206.2-17.4-270.3-4.9C364.7,384.5,361,583,329.6,624.3
			C301.3,661.8,303.5,698,260.5,735.2z"/>
	</g>
	<g>
		
			<linearGradient id="SVGID_24_" gradientUnits="userSpaceOnUse" x1="1560.108" y1="-25.2785" x2="2763.7986" y2="-25.2785" gradientTransform="matrix(0.9192 -0.3938 0.3938 0.9192 -1129.9971 1766.1284)">
			<stop  offset="5.586592e-03" style="stop-color:#E50C7C"/>
			<stop  offset="0.3939" style="stop-color:#F18B00"/>
			<stop  offset="0.6229" style="stop-color:#674185"/>
			<stop  offset="0.7123" style="stop-color:#4E368B"/>
			<stop  offset="0.7553" style="stop-color:#4B398D"/>
			<stop  offset="0.79" style="stop-color:#414294"/>
			<stop  offset="0.822" style="stop-color:#3052A0"/>
			<stop  offset="0.852" style="stop-color:#1869B1"/>
			<stop  offset="0.8652" style="stop-color:#0B75BA"/>
			<stop  offset="0.9944" style="stop-color:#005C97"/>
		</linearGradient>
		<path class="st23" d="M243.2,743.3c-31.8,25.6-52.4,23.5-62.9,48.8c-12.9,31.2-0.2,79.7,25.2,106.3c31.3,32.9,66.8,16.7,85.6,51
			c9.7,17.6,2.5,25.6,8.2,54.7c11.3,57.5,46.9,63.7,70.3,117.3c20.3,46.3,0,55.9,16.3,127.3c4,17.3,26.8,126.7,63.5,134.7
			c25,5.4,173.1,175.5,328.8,156.8c180.7-21.7,361.3-90.3,417.5-152.5c49.9-55.2,142.6-111.1,168.4-133.8
			c34-29.9,89.2-78.2,94.9-150.2c4-50.6-23.2-57.8-30.6-126.7c-12.4-115,40.3-152.5,17.4-208.9c-33.2-81.5-162.5-49.2-184.7-124
			c-16.3-55,45.7-101.8,24.3-152.4c-17.7-41.9-73.9-49.7-112.4-54.4c-83.4-10.3-41.5-119.4-181.4-82.3
			c-12.1,3.2-101.3,3.7-224.6,30.5c-65.7,14.3-212.6-16.8-278.7-4.7c-137.7,25.2-141.6,216-173.9,255.8
			C285.3,672.6,287.6,707.4,243.2,743.3z"/>
	</g>
	<g>
		
			<linearGradient id="SVGID_25_" gradientUnits="userSpaceOnUse" x1="1540.9185" y1="-25.18" x2="2778.9812" y2="-25.18" gradientTransform="matrix(0.9192 -0.3938 0.3938 0.9192 -1129.9971 1766.1284)">
			<stop  offset="5.586592e-03" style="stop-color:#E50C7C"/>
			<stop  offset="0.3939" style="stop-color:#F18B00"/>
			<stop  offset="0.6229" style="stop-color:#674185"/>
			<stop  offset="0.7123" style="stop-color:#4E368B"/>
			<stop  offset="0.7553" style="stop-color:#4B398D"/>
			<stop  offset="0.79" style="stop-color:#414294"/>
			<stop  offset="0.822" style="stop-color:#3052A0"/>
			<stop  offset="0.852" style="stop-color:#1869B1"/>
			<stop  offset="0.8652" style="stop-color:#0B75BA"/>
			<stop  offset="0.9944" style="stop-color:#005C97"/>
		</linearGradient>
		<path class="st24" d="M225.5,751c-32.8,24.6-54,22.6-64.8,47c-13.3,30-0.2,76.6,26,102.2c32.3,31.6,68.8,16,88.3,49.1
			c10,16.9,2.5,24.6,8.4,52.6c11.6,55.3,48.3,61.3,72.5,112.8c20.9,44.5,0,53.8,16.8,122.4c4.1,16.6,27.6,121.8,65.5,129.5
			c25.8,5.2,178.4,168.8,339,150.8c186.3-20.9,372.5-86.9,430.4-146.7c51.4-53.1,147-106.9,173.6-128.6
			c35.1-28.7,92-75.2,97.9-144.4c4.1-48.6-23.9-55.6-31.6-121.9c-12.8-110.6,41.5-146.7,17.9-200.8
			c-34.2-78.4-167.5-47.3-190.4-119.2c-16.8-52.9,47.1-97.9,25-146.5c-18.3-40.3-76.1-47.7-115.9-52.3c-86-9.9-42.8-114.8-187-79.1
			c-12.4,3.1-104.4,3.6-231.5,29.3c-67.7,13.7-219.2-16.1-287.3-4.5c-142,24.2-146,207.7-179.3,246
			C268.9,683.1,271.3,716.6,225.5,751z"/>
	</g>
	<g>
		
			<linearGradient id="SVGID_26_" gradientUnits="userSpaceOnUse" x1="1521.1444" y1="-24.9403" x2="2794.8701" y2="-24.9403" gradientTransform="matrix(0.9192 -0.3938 0.3938 0.9192 -1129.9971 1766.1284)">
			<stop  offset="5.586592e-03" style="stop-color:#E50C7C"/>
			<stop  offset="0.3939" style="stop-color:#F18B00"/>
			<stop  offset="0.6229" style="stop-color:#674185"/>
			<stop  offset="0.7123" style="stop-color:#4E368B"/>
			<stop  offset="0.7553" style="stop-color:#4B398D"/>
			<stop  offset="0.79" style="stop-color:#414294"/>
			<stop  offset="0.822" style="stop-color:#3052A0"/>
			<stop  offset="0.852" style="stop-color:#1869B1"/>
			<stop  offset="0.8652" style="stop-color:#0B75BA"/>
			<stop  offset="0.9944" style="stop-color:#005C97"/>
		</linearGradient>
		<path class="st25" d="M207.2,758.4c-33.8,23.7-55.7,21.7-66.8,45.1c-13.7,28.9-0.2,73.7,26.8,98.3c33.3,30.4,71,15.4,91,47.2
			c10.3,16.2,2.6,23.7,8.7,50.6c12,53.2,49.8,58.9,74.8,108.4c21.6,42.8,0,51.7,17.4,117.7c4.2,16,28.5,117.2,67.5,124.5
			c26.6,5,183.9,162.3,349.4,145c192-20.1,384-83.5,443.7-141c53-51.1,151.6-102.8,179-123.7c36.2-27.6,94.8-72.3,100.9-138.9
			c4.3-46.7-24.6-53.5-32.5-117.2c-13.2-106.3,42.8-141,18.4-193.1c-35.3-75.4-172.7-45.5-196.3-114.6
			c-17.4-50.8,48.5-94.1,25.8-140.9c-18.9-38.8-78.5-45.9-119.5-50.3c-88.6-9.5-44.1-110.4-192.8-76.1c-12.8,3-107.6,3.4-238.7,28.2
			c-69.8,13.2-226-15.5-296.2-4.3C321.4,446.7,317.3,623.1,283,659.9C251.9,693.1,254.4,725.3,207.2,758.4z"/>
	</g>
</g>
</svg>
