<?xml version="1.0" encoding="utf-8"?>
<!-- Generator: Adobe Illustrator 24.1.2, SVG Export Plug-In . SVG Version: 6.00 Build 0)  -->
<svg version="1.1" id="Camada_1" xmlns="http://www.w3.org/2000/svg" xmlns:xlink="http://www.w3.org/1999/xlink" x="0px" y="0px"
	 viewBox="0 0 1634.8 1888.9" style="enable-background:new 0 0 1634.8 1888.9;" xml:space="preserve">
<style type="text/css">
	.st0{fill:none;stroke:url(#SVGID_1_);stroke-width:6;stroke-miterlimit:10;}
	.st1{fill:none;stroke:url(#SVGID_2_);stroke-width:6;stroke-miterlimit:10;}
	.st2{fill:none;stroke:url(#SVGID_3_);stroke-width:6;stroke-miterlimit:10;}
	.st3{fill:none;stroke:url(#SVGID_4_);stroke-width:6;stroke-miterlimit:10;}
	.st4{fill:none;stroke:url(#SVGID_5_);stroke-width:6;stroke-miterlimit:10;}
	.st5{fill:none;stroke:url(#SVGID_6_);stroke-width:6;stroke-miterlimit:10;}
	.st6{fill:none;stroke:url(#SVGID_7_);stroke-width:6;stroke-miterlimit:10;}
	.st7{fill:none;stroke:url(#SVGID_8_);stroke-width:6;stroke-miterlimit:10;}
	.st8{fill:none;stroke:url(#SVGID_9_);stroke-width:6;stroke-miterlimit:10;}
	.st9{fill:none;stroke:url(#SVGID_10_);stroke-width:6;stroke-miterlimit:10;}
	.st10{fill:none;stroke:url(#SVGID_11_);stroke-width:6;stroke-miterlimit:10;}
	.st11{fill:none;stroke:url(#SVGID_12_);stroke-width:6;stroke-miterlimit:10;}
	.st12{fill:none;stroke:url(#SVGID_13_);stroke-width:6;stroke-miterlimit:10;}
</style>
<g>
	<g>
		
			<linearGradient id="SVGID_1_" gradientUnits="userSpaceOnUse" x1="1455.7317" y1="54.4506" x2="2711.0813" y2="54.4506" gradientTransform="matrix(0.9192 -0.3938 0.3938 0.9192 -1129.9971 1766.1284)">
			<stop  offset="5.586592e-03" style="stop-color:#E50C7C"/>
			<stop  offset="0.3939" style="stop-color:#F18B00"/>
			<stop  offset="0.6229" style="stop-color:#674185"/>
			<stop  offset="0.7123" style="stop-color:#4E368B"/>
			<stop  offset="0.7553" style="stop-color:#4B398D"/>
			<stop  offset="0.79" style="stop-color:#414294"/>
			<stop  offset="0.822" style="stop-color:#3052A0"/>
			<stop  offset="0.852" style="stop-color:#1869B1"/>
			<stop  offset="0.8652" style="stop-color:#0B75BA"/>
			<stop  offset="0.9944" style="stop-color:#005C97"/>
		</linearGradient>
		<path class="st0" d="M443.8,714.4c-19.4,31.3-139,55.3-145.4,86.3c-7.9,38.2,39.3,313.2,54.7,345.8c19.1,40.2,108.4-222,119.9-180
			c5.9,21.5,1.5,31.3,5,66.9c6.9,70.3,28.6,77.9,42.9,143.4c12.4,56.6,0,68.4,9.9,155.6c2.4,21.2-127.9,348.2-105.5,357.9
			c15.2,6.6,249.6,21.4,344.5-1.4c110.1-26.5,220.1-110.5,254.3-186.5c30.4-67.5,236.7,271.6,252.5,243.9
			c20.7-36.5-95.5-503.1-92-591.2c2.4-61.8-14.1-70.7-18.7-155c-7.6-140.6,127.1-259.7,113.2-328.6c-20.2-99.7-201.6,13-215.1-78.4
			c-9.9-67.2,27.8-124.5,14.8-186.3c-10.8-51.3-45-60.7-68.5-66.5c-50.8-12.6,151-300,66.1-251.3C909.1,185.1,909-1.2,833.9,31.6
			c-40,17.5-240.2,131.6-280.4,146.4C469.5,208.8,507,535.4,487.3,584C469.5,628,470.9,670.6,443.8,714.4z"/>
	</g>
	<g>
		
			<linearGradient id="SVGID_2_" gradientUnits="userSpaceOnUse" x1="1457.4709" y1="57.6096" x2="2707.7041" y2="57.6096" gradientTransform="matrix(0.9192 -0.3938 0.3938 0.9192 -1129.9971 1766.1284)">
			<stop  offset="5.586592e-03" style="stop-color:#E50C7C"/>
			<stop  offset="0.3939" style="stop-color:#F18B00"/>
			<stop  offset="0.6229" style="stop-color:#674185"/>
			<stop  offset="0.7123" style="stop-color:#4E368B"/>
			<stop  offset="0.7553" style="stop-color:#4B398D"/>
			<stop  offset="0.79" style="stop-color:#414294"/>
			<stop  offset="0.822" style="stop-color:#3052A0"/>
			<stop  offset="0.852" style="stop-color:#1869B1"/>
			<stop  offset="0.8652" style="stop-color:#0B75BA"/>
			<stop  offset="0.9944" style="stop-color:#005C97"/>
		</linearGradient>
		<path class="st1" d="M433.2,721.1c-20,30.1-143.3,53.2-149.9,83c-8.1,36.7,40.5,301.2,56.4,332.5
			c19.7,38.7,111.7-213.4,123.6-173.1c6.1,20.7,1.5,30.1,5.1,64.3c7.1,67.6,29.4,74.9,44.2,137.9c12.8,54.4,0,65.8,10.3,149.6
			c2.5,20.3-131.8,334.8-108.8,344.1c15.7,6.4,257.3,20.6,355.1-1.4c113.5-25.5,226.9-106.2,262.2-179.4
			c31.3-64.9,244.1,261.1,260.3,234.5c21.4-35.1-98.5-483.8-94.9-568.4c2.5-59.4-14.6-68-19.2-149
			c-7.8-135.2,131.1-249.7,116.7-315.9c-20.8-95.9-207.8,12.5-221.8-75.4c-10.3-64.6,28.7-119.7,15.2-179.2
			c-11.1-49.3-46.4-58.4-70.6-64c-52.4-12.1,155.6-288.5,68.1-241.6c-172.4,92.4-172.6-86.7-250-55.2
			C794,81.3,587.6,191.1,546.1,205.3C459.6,234.9,498.2,549,478,595.7C459.6,638,461.1,679,433.2,721.1z"/>
	</g>
	<g>
		
			<linearGradient id="SVGID_3_" gradientUnits="userSpaceOnUse" x1="1458.4187" y1="60.8011" x2="2705.0688" y2="60.8011" gradientTransform="matrix(0.9192 -0.3938 0.3938 0.9192 -1129.9971 1766.1284)">
			<stop  offset="5.586592e-03" style="stop-color:#E50C7C"/>
			<stop  offset="0.3939" style="stop-color:#F18B00"/>
			<stop  offset="0.6229" style="stop-color:#674185"/>
			<stop  offset="0.7123" style="stop-color:#4E368B"/>
			<stop  offset="0.7553" style="stop-color:#4B398D"/>
			<stop  offset="0.79" style="stop-color:#414294"/>
			<stop  offset="0.822" style="stop-color:#3052A0"/>
			<stop  offset="0.852" style="stop-color:#1869B1"/>
			<stop  offset="0.8652" style="stop-color:#0B75BA"/>
			<stop  offset="0.9944" style="stop-color:#005C97"/>
		</linearGradient>
		<path class="st2" d="M422.2,727.5c-20.6,29-147.7,51.1-154.5,79.8c-8.4,35.3,41.7,289.6,58.2,319.7
			c20.3,37.2,115.2-205.2,127.4-166.4c6.3,19.9,1.6,29,5.3,61.8c7.3,65,30.3,72.1,45.5,132.6c13.1,52.3,0,63.2,10.6,143.9
			c2.6,19.6-135.9,321.9-112.1,330.9c16.2,6.1,265.3,19.8,366.1-1.3c117-24.5,234-102.1,270.3-172.5
			c32.3-62.4,251.6,251.1,268.3,225.5c22-33.8-101.5-465.2-97.8-546.6c2.6-57.2-15-65.4-19.8-143.3c-8-130,135.1-240.1,120.3-303.8
			c-21.5-92.2-214.2,12-228.6-72.5c-10.6-62.1,29.6-115.1,15.7-172.3c-11.5-47.4-47.8-56.1-72.8-61.5
			c-54-11.6,160.4-277.4,70.3-232.3c-177.8,88.9-177.9-83.4-257.7-53.1c-42.5,16.1-255.3,121.7-298.1,135.3
			C449.4,260,489.3,562,468.3,606.9C449.4,647.6,450.9,687,422.2,727.5z"/>
	</g>
	<g>
		
			<linearGradient id="SVGID_4_" gradientUnits="userSpaceOnUse" x1="1458.5833" y1="63.4219" x2="2703.1653" y2="63.4219" gradientTransform="matrix(0.9192 -0.3938 0.3938 0.9192 -1129.9971 1766.1284)">
			<stop  offset="5.586592e-03" style="stop-color:#E50C7C"/>
			<stop  offset="0.3939" style="stop-color:#F18B00"/>
			<stop  offset="0.6229" style="stop-color:#674185"/>
			<stop  offset="0.7123" style="stop-color:#4E368B"/>
			<stop  offset="0.7553" style="stop-color:#4B398D"/>
			<stop  offset="0.79" style="stop-color:#414294"/>
			<stop  offset="0.822" style="stop-color:#3052A0"/>
			<stop  offset="0.852" style="stop-color:#1869B1"/>
			<stop  offset="0.8652" style="stop-color:#0B75BA"/>
			<stop  offset="0.9944" style="stop-color:#005C97"/>
		</linearGradient>
		<path class="st3" d="M410.8,733.6c-21.2,27.9-152.3,49.2-159.3,76.7c-8.6,34,43,278.4,60,307.4c20.9,35.8,118.7-197.3,131.3-160
			c6.4,19.1,1.6,27.9,5.5,59.5c7.5,62.5,31.3,69.3,47,127.5c13.6,50.3,0,60.8,10.9,138.4c2.7,18.8-140.1,309.5-115.6,318.2
			c16.7,5.9,273.5,19.1,377.4-1.3c120.6-23.6,241.2-98.2,278.7-165.8c33.3-60,259.4,241.4,276.6,216.8
			c22.7-32.5-104.6-447.3-100.8-525.5c2.7-55-15.5-62.9-20.4-137.8c-8.3-125,139.3-230.9,124-292.1
			c-22.1-88.6-220.9,11.6-235.7-69.7c-10.9-59.8,30.5-110.7,16.2-165.6c-11.8-45.6-49.3-54-75.1-59.1
			c-55.7-11.2,165.4-266.7,72.4-223.4c-183.3,85.5-183.4-80.2-265.7-51c-43.9,15.5-263.2,117-307.3,130.1
			c-91.9,27.4-50.9,317.8-72.5,361C438.9,656.9,440.5,694.7,410.8,733.6z"/>
	</g>
	<g>
		
			<linearGradient id="SVGID_5_" gradientUnits="userSpaceOnUse" x1="1457.9716" y1="62.6696" x2="2701.9846" y2="62.6696" gradientTransform="matrix(0.9192 -0.3938 0.3938 0.9192 -1129.9971 1766.1284)">
			<stop  offset="5.586592e-03" style="stop-color:#E50C7C"/>
			<stop  offset="0.3939" style="stop-color:#F18B00"/>
			<stop  offset="0.6229" style="stop-color:#674185"/>
			<stop  offset="0.7123" style="stop-color:#4E368B"/>
			<stop  offset="0.7553" style="stop-color:#4B398D"/>
			<stop  offset="0.79" style="stop-color:#414294"/>
			<stop  offset="0.822" style="stop-color:#3052A0"/>
			<stop  offset="0.852" style="stop-color:#1869B1"/>
			<stop  offset="0.8652" style="stop-color:#0B75BA"/>
			<stop  offset="0.9944" style="stop-color:#005C97"/>
		</linearGradient>
		<path class="st4" d="M399.1,739.6c-21.9,26.8-157,47.3-164.2,73.8c-8.9,32.7,44.4,267.7,61.8,295.6
			c21.6,34.4,122.4-189.7,135.4-153.9c6.6,18.4,1.7,26.8,5.6,57.2c7.8,60.1,32.3,66.6,48.4,122.6c14,48.4,0,58.5,11.2,133
			c2.7,18.1-144.4,297.6-119.2,305.9c17.2,5.7,282,18.3,389.1-1.2c124.3-22.7,248.6-94.4,287.3-159.4
			c34.3-57.7,267.4,232.2,285.2,208.5c23.4-31.2-107.9-430.1-104-505.3c2.8-52.8-15.9-60.5-21.1-132.5
			c-8.6-120.2,143.6-222,127.8-280.9c-22.8-85.2-227.7,11.1-243-67c-11.2-57.5,31.4-106.4,16.7-159.3
			c-12.2-43.8-50.8-51.9-77.4-56.9c-57.4-10.7,170.5-256.5,74.7-214.8c-188.9,82.2-189.1-77.1-273.9-49.1
			C794.5,170.8,568.4,268.4,522.9,281c-94.8,26.3-52.5,305.5-74.7,347.1C428.1,665.7,429.7,702.1,399.1,739.6z"/>
	</g>
	<g>
		
			<linearGradient id="SVGID_6_" gradientUnits="userSpaceOnUse" x1="1456.5897" y1="62.0451" x2="2707.7896" y2="62.0451" gradientTransform="matrix(0.9192 -0.3938 0.3938 0.9192 -1129.9971 1766.1284)">
			<stop  offset="5.586592e-03" style="stop-color:#E50C7C"/>
			<stop  offset="0.3939" style="stop-color:#F18B00"/>
			<stop  offset="0.6229" style="stop-color:#674185"/>
			<stop  offset="0.7123" style="stop-color:#4E368B"/>
			<stop  offset="0.7553" style="stop-color:#4B398D"/>
			<stop  offset="0.79" style="stop-color:#414294"/>
			<stop  offset="0.822" style="stop-color:#3052A0"/>
			<stop  offset="0.852" style="stop-color:#1869B1"/>
			<stop  offset="0.8652" style="stop-color:#0B75BA"/>
			<stop  offset="0.9944" style="stop-color:#005C97"/>
		</linearGradient>
		<path class="st5" d="M387.1,745.3c-22.5,25.8-161.9,45.5-169.3,70.9c-9.1,31.4,45.7,257.4,63.7,284.2
			c22.2,33.1,126.2-182.4,139.6-147.9c6.9,17.7,1.7,25.8,5.8,55c8,57.8,33.2,64.1,49.9,117.9c14.4,46.5,0,56.2,11.6,127.9
			c2.8,17.4-148.9,286.2-122.9,294.2c17.8,5.4,290.7,17.6,401.2-1.2c128.2-21.8,256.3-90.8,296.2-153.3
			c35.4-55.5,275.7,223.2,294,200.5c24.2-30-111.2-413.5-107.2-485.9c2.8-50.8-16.4-58.1-21.7-127.4
			c-8.8-115.6,148-213.5,131.8-270.1c-23.5-81.9-234.7,10.7-250.5-64.5c-11.6-55.2,32.4-102.3,17.2-153.1
			c-12.6-42.1-52.4-49.9-79.8-54.7c-59.2-10.3,175.8-246.6,77-206.5c-194.8,79-194.9-74.1-282.4-47.2
			c-46.6,14.4-279.7,108.2-326.6,120.3c-97.7,25.3-54.1,293.8-77,333.8C417,674.3,418.6,709.3,387.1,745.3z"/>
	</g>
	<g>
		
			<linearGradient id="SVGID_7_" gradientUnits="userSpaceOnUse" x1="1454.443" y1="61.5455" x2="2721.2078" y2="61.5455" gradientTransform="matrix(0.9192 -0.3938 0.3938 0.9192 -1129.9971 1766.1284)">
			<stop  offset="5.586592e-03" style="stop-color:#E50C7C"/>
			<stop  offset="0.3939" style="stop-color:#F18B00"/>
			<stop  offset="0.6229" style="stop-color:#674185"/>
			<stop  offset="0.7123" style="stop-color:#4E368B"/>
			<stop  offset="0.7553" style="stop-color:#4B398D"/>
			<stop  offset="0.79" style="stop-color:#414294"/>
			<stop  offset="0.822" style="stop-color:#3052A0"/>
			<stop  offset="0.852" style="stop-color:#1869B1"/>
			<stop  offset="0.8652" style="stop-color:#0B75BA"/>
			<stop  offset="0.9944" style="stop-color:#005C97"/>
		</linearGradient>
		<path class="st6" d="M374.7,750.7c-23.2,24.8-166.9,43.7-174.5,68.2c-9.4,30.2,47.2,247.5,65.7,273.3
			C288.7,1124,395.9,916.8,409.7,950c7.1,17,1.8,24.8,6,52.9c8.3,55.6,34.3,61.6,51.4,113.3c14.8,44.7,0,54.1,11.9,123
			c2.9,16.7-153.5,275.2-126.7,282.8c18.3,5.2,299.7,16.9,413.6-1.1c132.1-21,264.3-87.3,305.3-147.4
			c36.5-53.4,284.2,214.6,303.1,192.8c24.9-28.9-114.7-397.6-110.5-467.2c2.9-48.9-17-55.9-22.4-122.5
			c-9.1-111.1,152.6-205.3,135.9-259.7c-24.3-78.8-242,10.3-258.2-62c-11.9-53.1,33.4-98.4,17.8-147.3c-13-40.5-54-48-82.2-52.6
			c-61-9.9,181.2-237.1,79.4-198.6c-200.8,76-201-71.3-291.1-45.4c-48.1,13.8-288.4,104-336.7,115.7
			c-100.7,24.3-55.8,282.5-79.4,320.9C405.5,682.5,407.1,716.1,374.7,750.7z"/>
	</g>
	<g>
		
			<linearGradient id="SVGID_8_" gradientUnits="userSpaceOnUse" x1="1451.5354" y1="61.168" x2="2735.2581" y2="61.168" gradientTransform="matrix(0.9192 -0.3938 0.3938 0.9192 -1129.9971 1766.1284)">
			<stop  offset="5.586592e-03" style="stop-color:#E50C7C"/>
			<stop  offset="0.3939" style="stop-color:#F18B00"/>
			<stop  offset="0.6229" style="stop-color:#674185"/>
			<stop  offset="0.7123" style="stop-color:#4E368B"/>
			<stop  offset="0.7553" style="stop-color:#4B398D"/>
			<stop  offset="0.79" style="stop-color:#414294"/>
			<stop  offset="0.822" style="stop-color:#3052A0"/>
			<stop  offset="0.852" style="stop-color:#1869B1"/>
			<stop  offset="0.8652" style="stop-color:#0B75BA"/>
			<stop  offset="0.9944" style="stop-color:#005C97"/>
		</linearGradient>
		<path class="st7" d="M361.8,756c-24,23.8-172,42-179.9,65.6c-9.7,29,48.6,238,67.7,262.8c23.6,30.6,134.1-168.7,148.3-136.8
			c7.3,16.3,1.9,23.8,6.2,50.8c8.5,53.5,35.3,59.2,53,109c15.3,43,0,52,12.3,118.3c3,16.1-158.3,264.6-130.6,272
			c18.9,5,308.9,16.3,426.4-1.1c136.2-20.2,272.4-84,314.8-141.7c37.6-51.3,293,206.4,312.5,185.4
			c25.7-27.7-118.2-382.3-113.9-449.2c3-47-17.5-53.8-23.1-117.8c-9.4-106.9,157.3-197.4,140.1-249.7c-25-75.8-249.5,9.9-266.2-59.6
			c-12.3-51.1,34.4-94.6,18.3-141.6c-13.4-39-55.7-46.1-84.8-50.6c-62.9-9.5,186.8-228,81.8-190.9c-207,73.1-207.2-68.5-300.1-43.6
			c-49.5,13.3-297.3,100-347.1,111.2C393.6,371.8,440,620,415.6,657C393.6,690.4,395.3,722.7,361.8,756z"/>
	</g>
	<g>
		
			<linearGradient id="SVGID_9_" gradientUnits="userSpaceOnUse" x1="1447.8705" y1="60.9098" x2="2749.9502" y2="60.9098" gradientTransform="matrix(0.9192 -0.3938 0.3938 0.9192 -1129.9971 1766.1284)">
			<stop  offset="5.586592e-03" style="stop-color:#E50C7C"/>
			<stop  offset="0.3939" style="stop-color:#F18B00"/>
			<stop  offset="0.6229" style="stop-color:#674185"/>
			<stop  offset="0.7123" style="stop-color:#4E368B"/>
			<stop  offset="0.7553" style="stop-color:#4B398D"/>
			<stop  offset="0.79" style="stop-color:#414294"/>
			<stop  offset="0.822" style="stop-color:#3052A0"/>
			<stop  offset="0.852" style="stop-color:#1869B1"/>
			<stop  offset="0.8652" style="stop-color:#0B75BA"/>
			<stop  offset="0.9944" style="stop-color:#005C97"/>
		</linearGradient>
		<path class="st8" d="M348.6,761.1c-24.7,22.9-177.3,40.4-185.5,63c-10,27.9,50.1,228.9,69.8,252.7
			c24.3,29.4,138.3-162.2,152.9-131.5c7.5,15.7,1.9,22.9,6.3,48.9c8.8,51.4,36.4,57,54.7,104.8c15.8,41.4,0,50,12.7,113.7
			c3.1,15.5-163.1,254.4-134.6,261.5c19.5,4.8,318.5,15.7,439.5-1c140.4-19.4,280.9-80.7,324.5-136.3
			c38.7-49.3,302.1,198.5,322.1,178.2c26.5-26.7-121.9-367.6-117.4-432c3.1-45.2-18-51.7-23.8-113.2
			c-9.7-102.8,162.2-189.8,144.4-240.1c-25.8-72.8-257.2,9.5-274.5-57.3c-12.7-49.1,35.5-91,18.9-136.1
			c-13.8-37.5-57.4-44.4-87.4-48.6c-64.8-9.2,192.6-219.2,84.3-183.6c-213.4,70.2-213.6-65.9-309.4-41.9
			c-51.1,12.8-306.5,96.1-357.8,106.9c-107.1,22.5-59.3,261.2-84.4,296.7C381.4,698,383.2,729.1,348.6,761.1z"/>
	</g>
	<g>
		
			<linearGradient id="SVGID_10_" gradientUnits="userSpaceOnUse" x1="1443.4506" y1="60.7685" x2="2765.2944" y2="60.7685" gradientTransform="matrix(0.9192 -0.3938 0.3938 0.9192 -1129.9971 1766.1284)">
			<stop  offset="5.586592e-03" style="stop-color:#E50C7C"/>
			<stop  offset="0.3939" style="stop-color:#F18B00"/>
			<stop  offset="0.6229" style="stop-color:#674185"/>
			<stop  offset="0.7123" style="stop-color:#4E368B"/>
			<stop  offset="0.7553" style="stop-color:#4B398D"/>
			<stop  offset="0.79" style="stop-color:#414294"/>
			<stop  offset="0.822" style="stop-color:#3052A0"/>
			<stop  offset="0.852" style="stop-color:#1869B1"/>
			<stop  offset="0.8652" style="stop-color:#0B75BA"/>
			<stop  offset="0.9944" style="stop-color:#005C97"/>
		</linearGradient>
		<path class="st9" d="M335,766c-25.5,22-182.8,38.9-191.2,60.6c-10.3,26.8,51.7,220.1,72,243c25.1,28.3,142.5-155.9,157.7-126.5
			c7.7,15.1,2,22,6.5,47c9,49.4,37.6,54.8,56.4,100.7c16.3,39.8,0,48.1,13.1,109.3c3.2,14.9-168.2,244.6-138.8,251.4
			c20.1,4.7,328.3,15.1,453.1-1c144.8-18.6,289.5-77.6,334.5-131.1c39.9-47.4,311.4,190.8,332.1,171.4
			c27.3-25.6-125.6-353.5-121.1-415.3c3.2-43.4-18.6-49.7-24.5-108.9c-10-98.8,167.2-182.5,148.9-230.9c-26.6-70-265.1,9.1-283-55.1
			c-13.1-47.2,36.6-87.5,19.5-130.9c-14.2-36-59.2-42.7-90.1-46.7c-66.8-8.8,198.6-210.8,87-176.5c-220,67.5-220.2-63.4-319-40.3
			c-52.7,12.3-316,92.5-368.9,102.8c-110.4,21.6-61.1,251.1-87,285.3C368.8,705.3,370.6,735.2,335,766z"/>
	</g>
	<g>
		
			<linearGradient id="SVGID_11_" gradientUnits="userSpaceOnUse" x1="1438.2769" y1="60.7415" x2="2781.3022" y2="60.7415" gradientTransform="matrix(0.9192 -0.3938 0.3938 0.9192 -1129.9971 1766.1284)">
			<stop  offset="5.586592e-03" style="stop-color:#E50C7C"/>
			<stop  offset="0.3939" style="stop-color:#F18B00"/>
			<stop  offset="0.6229" style="stop-color:#674185"/>
			<stop  offset="0.7123" style="stop-color:#4E368B"/>
			<stop  offset="0.7553" style="stop-color:#4B398D"/>
			<stop  offset="0.79" style="stop-color:#414294"/>
			<stop  offset="0.822" style="stop-color:#3052A0"/>
			<stop  offset="0.852" style="stop-color:#1869B1"/>
			<stop  offset="0.8652" style="stop-color:#0B75BA"/>
			<stop  offset="0.9944" style="stop-color:#005C97"/>
		</linearGradient>
		<path class="st10" d="M321,770.6c-26.2,21.2-188.5,37.4-197.1,58.3c-10.7,25.8,53.3,211.6,74.2,233.6
			c25.9,27.2,147-149.9,162.5-121.6c8,14.5,2,21.2,6.7,45.2c9.3,47.5,38.7,52.7,58.1,96.9c16.8,38.2,0,46.2,13.5,105.1
			c3.3,14.3-173.4,235.2-143.1,241.8c20.7,4.5,338.5,14.5,467.2-1c149.3-17.9,298.5-74.6,344.9-126c41.2-45.6,321,183.5,342.4,164.8
			c28.1-24.7-129.5-339.9-124.8-399.4c3.3-41.8-19.1-47.8-25.3-104.7c-10.3-95,172.4-175.5,153.5-222c-27.4-67.3-273.3,8.8-291.7-53
			c-13.5-45.4,37.7-84.1,20.1-125.9c-14.7-34.6-61-41-92.9-44.9c-68.9-8.5,204.7-202.7,89.6-169.7c-226.8,64.9-227-60.9-328.9-38.8
			c-54.3,11.8-325.7,88.9-380.3,98.9c-113.8,20.8-63,241.5-89.7,274.3C355.8,712.3,357.7,741.1,321,770.6z"/>
	</g>
	<g>
		
			<linearGradient id="SVGID_12_" gradientUnits="userSpaceOnUse" x1="1432.3502" y1="60.8267" x2="2797.9849" y2="60.8267" gradientTransform="matrix(0.9192 -0.3938 0.3938 0.9192 -1129.9971 1766.1284)">
			<stop  offset="5.586592e-03" style="stop-color:#E50C7C"/>
			<stop  offset="0.3939" style="stop-color:#F18B00"/>
			<stop  offset="0.6229" style="stop-color:#674185"/>
			<stop  offset="0.7123" style="stop-color:#4E368B"/>
			<stop  offset="0.7553" style="stop-color:#4B398D"/>
			<stop  offset="0.79" style="stop-color:#414294"/>
			<stop  offset="0.822" style="stop-color:#3052A0"/>
			<stop  offset="0.852" style="stop-color:#1869B1"/>
			<stop  offset="0.8652" style="stop-color:#0B75BA"/>
			<stop  offset="0.9944" style="stop-color:#005C97"/>
		</linearGradient>
		<path class="st11" d="M306.5,775.1c-27.1,20.4-194.3,35.9-203.2,56c-11,24.8,54.9,203.5,76.5,224.6
			c26.7,26.1,151.5-144.2,167.6-116.9c8.2,14,2.1,20.4,7,43.4c9.6,45.7,39.9,50.6,59.9,93.1c17.3,36.8,0,44.4,13.9,101.1
			c3.4,13.7-178.8,226.2-147.5,232.5c21.3,4.3,349,13.9,481.6-0.9c153.9-17.2,307.7-71.8,355.5-121.2
			c42.5-43.9,331,176.4,352.9,158.4c29-23.7-133.5-326.8-128.7-384c3.4-40.2-19.7-45.9-26.1-100.7
			c-10.6-91.3,177.7-168.7,158.2-213.4c-28.2-64.8-281.8,8.5-300.7-50.9c-13.9-43.7,38.9-80.9,20.7-121
			c-15.1-33.3-62.9-39.4-95.8-43.2c-71-8.2,211-194.9,92.4-163.2c-233.8,62.4-234-58.6-339-37.3c-56,11.3-335.8,85.5-392.1,95.1
			c-117.3,20-65,232.2-92.5,263.8C342.4,719,344.3,746.7,306.5,775.1z"/>
	</g>
	<g>
		
			<linearGradient id="SVGID_13_" gradientUnits="userSpaceOnUse" x1="1425.67" y1="61.0219" x2="2815.3501" y2="61.0219" gradientTransform="matrix(0.9192 -0.3938 0.3938 0.9192 -1129.9971 1766.1284)">
			<stop  offset="5.586592e-03" style="stop-color:#E50C7C"/>
			<stop  offset="0.3939" style="stop-color:#F18B00"/>
			<stop  offset="0.6229" style="stop-color:#674185"/>
			<stop  offset="0.7123" style="stop-color:#4E368B"/>
			<stop  offset="0.7553" style="stop-color:#4B398D"/>
			<stop  offset="0.79" style="stop-color:#414294"/>
			<stop  offset="0.822" style="stop-color:#3052A0"/>
			<stop  offset="0.852" style="stop-color:#1869B1"/>
			<stop  offset="0.8652" style="stop-color:#0B75BA"/>
			<stop  offset="0.9944" style="stop-color:#005C97"/>
		</linearGradient>
		<path class="st12" d="M291.6,779.5C263.7,799,91.3,814,82.1,833.4c-11.3,23.9,56.6,195.6,78.9,216
			c27.5,25.1,156.2-138.6,172.7-112.4c8.5,13.4,2.2,19.6,7.2,41.8c9.9,43.9,41.1,48.7,61.8,89.6c17.8,35.4,0,42.7,14.3,97.2
			c3.5,13.2-184.3,217.5-152.1,223.5c22,4.1,359.8,13.4,496.5-0.9c158.6-16.6,317.3-69,366.5-116.5
			c43.8-42.2,341.2,169.6,363.9,152.4c29.9-22.8-137.7-314.3-132.6-369.2c3.5-38.6-20.3-44.2-26.9-96.8
			c-10.9-87.8,183.2-162.2,163.1-205.2c-29.1-62.3-290.5,8.1-310-49c-14.3-42,40.1-77.8,21.3-116.4c-15.6-32-64.8-37.9-98.7-41.6
			c-73.2-7.8,217.6-187.4,95.3-156.9c-241.1,60-241.3-56.3-349.5-35.8c-57.7,10.9-346.2,82.2-404.2,91.4
			c-120.9,19.2-67,223.3-95.3,253.6C328.6,725.5,330.6,752.1,291.6,779.5z"/>
	</g>
</g>
</svg>
