<?xml version="1.0" encoding="utf-8"?>
<!-- Generator: Adobe Illustrator 24.1.2, SVG Export Plug-In . SVG Version: 6.00 Build 0)  -->
<svg version="1.1" id="Camada_1" xmlns="http://www.w3.org/2000/svg" xmlns:xlink="http://www.w3.org/1999/xlink" x="0px" y="0px"
	 viewBox="0 0 1634.8 1888.9" style="enable-background:new 0 0 1634.8 1888.9;" xml:space="preserve">
<style type="text/css">
	.st0{fill:none;stroke:url(#SVGID_1_);stroke-width:6;stroke-miterlimit:10;}
	.st1{fill:none;stroke:url(#SVGID_2_);stroke-width:6;stroke-miterlimit:10;}
	.st2{fill:none;stroke:url(#SVGID_3_);stroke-width:6;stroke-miterlimit:10;}
	.st3{fill:none;stroke:url(#SVGID_4_);stroke-width:6;stroke-miterlimit:10;}
	.st4{fill:none;stroke:url(#SVGID_5_);stroke-width:6;stroke-miterlimit:10;}
	.st5{fill:none;stroke:url(#SVGID_6_);stroke-width:6;stroke-miterlimit:10;}
	.st6{fill:none;stroke:url(#SVGID_7_);stroke-width:6;stroke-miterlimit:10;}
	.st7{fill:none;stroke:url(#SVGID_8_);stroke-width:6;stroke-miterlimit:10;}
	.st8{fill:none;stroke:url(#SVGID_9_);stroke-width:6;stroke-miterlimit:10;}
	.st9{fill:none;stroke:url(#SVGID_10_);stroke-width:6;stroke-miterlimit:10;}
	.st10{fill:none;stroke:url(#SVGID_11_);stroke-width:6;stroke-miterlimit:10;}
	.st11{fill:none;stroke:url(#SVGID_12_);stroke-width:6;stroke-miterlimit:10;}
	.st12{fill:none;stroke:url(#SVGID_13_);stroke-width:6;stroke-miterlimit:10;}
</style>
<g>
	<g>
		
			<linearGradient id="SVGID_1_" gradientUnits="userSpaceOnUse" x1="5561.4229" y1="-256.6157" x2="7390.9395" y2="-256.6157" gradientTransform="matrix(1.316075e-02 0.9999 0.9999 -1.316075e-02 992.2411 -5538.4126)">
			<stop  offset="5.586592e-03" style="stop-color:#E50C7C"/>
			<stop  offset="0.3939" style="stop-color:#F18B00"/>
			<stop  offset="0.6229" style="stop-color:#674185"/>
			<stop  offset="0.7123" style="stop-color:#4E368B"/>
			<stop  offset="0.7553" style="stop-color:#4B398D"/>
			<stop  offset="0.79" style="stop-color:#414294"/>
			<stop  offset="0.822" style="stop-color:#3052A0"/>
			<stop  offset="0.852" style="stop-color:#1869B1"/>
			<stop  offset="0.8652" style="stop-color:#0B75BA"/>
			<stop  offset="0.9944" style="stop-color:#005C97"/>
		</linearGradient>
		<path class="st0" d="M920.7,154.7C769.1,143,480.5,28.4,450.2,33.7c-26.1,4.6,5,228.2-20.8,429.7
			c-29.9,233.7-37.9,488.4-21.3,585.7c14.8,86.4,20.3,226.4,25.2,268.5c6.4,55.5,16.8,145.5,49.2,184.6
			c22.7,27.5-34.6,245.3-0.7,266.8c56.5,35.8,73,89.6,104.5,86.3c45.5-4.8,90.7-60.5,130.6-54.8c29.3,4.2,47,5.4,75.4,1.4
			c23.5-3.3,79.1,47.1,101.5,41.1c61.1-16.4,115.4-96.6,197.6-130.1c279-113.7,64.1-503.5,78.9-668.3
			c7.9-87.9,40.8-498.9,49.9-586.2c18.8-182,12.6-354.5,1.2-412.2C1210.9-6.2,1039,163.8,920.7,154.7z"/>
	</g>
	<g>
		
			<linearGradient id="SVGID_2_" gradientUnits="userSpaceOnUse" x1="5596.2847" y1="-256.951" x2="7355.6416" y2="-256.951" gradientTransform="matrix(1.316075e-02 0.9999 0.9999 -1.316075e-02 992.2411 -5538.4126)">
			<stop  offset="5.586592e-03" style="stop-color:#E50C7C"/>
			<stop  offset="0.3939" style="stop-color:#F18B00"/>
			<stop  offset="0.6229" style="stop-color:#674185"/>
			<stop  offset="0.7123" style="stop-color:#4E368B"/>
			<stop  offset="0.7553" style="stop-color:#4B398D"/>
			<stop  offset="0.79" style="stop-color:#414294"/>
			<stop  offset="0.822" style="stop-color:#3052A0"/>
			<stop  offset="0.852" style="stop-color:#1869B1"/>
			<stop  offset="0.8652" style="stop-color:#0B75BA"/>
			<stop  offset="0.9944" style="stop-color:#005C97"/>
		</linearGradient>
		<path class="st1" d="M923.9,185.1C767.7,173.9,470,63.7,438.9,68.7c-27,4.4,5.1,219.4-21.5,413.1c-30.9,224.8-39.1,469.6-22,563.2
			c15.2,83.1,20.9,217.7,25.9,258.1c6.6,53.4,17.3,139.9,50.7,177.5c23.4,26.4-35.6,235.9-0.7,256.5c58.3,34.4,75.3,86.2,107.7,83
			c46.9-4.6,93.5-58.2,134.6-52.7c30.2,4.1,48.5,5.2,77.7,1.3c24.3-3.2,81.5,45.3,104.6,39.5c63-15.8,119-92.9,203.8-125.1
			c287.6-109.3,66.1-484.1,81.4-642.6c8.1-84.5,42.1-479.7,51.4-563.6c19.4-175,13-340.8,1.2-396.4
			C1223,30.4,1045.9,193.9,923.9,185.1z"/>
	</g>
	<g>
		
			<linearGradient id="SVGID_3_" gradientUnits="userSpaceOnUse" x1="5629.8301" y1="-257.1646" x2="7321.8403" y2="-257.1646" gradientTransform="matrix(1.316075e-02 0.9999 0.9999 -1.316075e-02 992.2411 -5538.4126)">
			<stop  offset="5.586592e-03" style="stop-color:#E50C7C"/>
			<stop  offset="0.3939" style="stop-color:#F18B00"/>
			<stop  offset="0.6229" style="stop-color:#674185"/>
			<stop  offset="0.7123" style="stop-color:#4E368B"/>
			<stop  offset="0.7553" style="stop-color:#4B398D"/>
			<stop  offset="0.79" style="stop-color:#414294"/>
			<stop  offset="0.822" style="stop-color:#3052A0"/>
			<stop  offset="0.852" style="stop-color:#1869B1"/>
			<stop  offset="0.8652" style="stop-color:#0B75BA"/>
			<stop  offset="0.9944" style="stop-color:#005C97"/>
		</linearGradient>
		<path class="st2" d="M927.2,214.3c-161.1-10.8-467.9-116.8-500-111.9c-27.8,4.2,5.3,211-22.1,397.2
			c-31.8,216.1-40.3,451.5-22.7,541.5c15.7,79.9,21.6,209.3,26.7,248.2c6.8,51.3,17.8,134.5,52.2,170.7
			c24.2,25.4-36.7,226.8-0.8,246.6c60.1,33.1,77.6,82.9,111,79.8c48.3-4.5,96.4-56,138.8-50.6c31.2,3.9,49.9,5,80.1,1.3
			c25-3.1,84,43.6,107.9,38c65-15.2,122.7-89.3,210.1-120.3c296.5-105.1,68.1-465.5,83.9-617.9c8.4-81.2,43.4-461.2,53-541.9
			c20-168.3,13.4-327.7,1.3-381.1C1235.6,65.5,1052.9,222.7,927.2,214.3z"/>
	</g>
	<g>
		
			<linearGradient id="SVGID_4_" gradientUnits="userSpaceOnUse" x1="5662.0762" y1="-257.3598" x2="7289.5405" y2="-257.3598" gradientTransform="matrix(1.316075e-02 0.9999 0.9999 -1.316075e-02 992.2411 -5538.4126)">
			<stop  offset="5.586592e-03" style="stop-color:#E50C7C"/>
			<stop  offset="0.3939" style="stop-color:#F18B00"/>
			<stop  offset="0.6229" style="stop-color:#674185"/>
			<stop  offset="0.7123" style="stop-color:#4E368B"/>
			<stop  offset="0.7553" style="stop-color:#4B398D"/>
			<stop  offset="0.79" style="stop-color:#414294"/>
			<stop  offset="0.822" style="stop-color:#3052A0"/>
			<stop  offset="0.852" style="stop-color:#1869B1"/>
			<stop  offset="0.8652" style="stop-color:#0B75BA"/>
			<stop  offset="0.9944" style="stop-color:#005C97"/>
		</linearGradient>
		<path class="st3" d="M930.6,242.4C764.5,232,448.2,130.1,415.1,134.8c-28.6,4.1,5.4,202.9-22.8,382
			c-32.8,207.8-41.6,434.2-23.4,520.7c16.2,76.8,22.3,201.2,27.6,238.7c7,49.4,18.4,129.3,53.9,164.1
			c24.9,24.4-37.9,218.1-0.8,237.2c61.9,31.8,80,79.7,114.5,76.7c49.8-4.3,99.4-53.8,143.1-48.7c32.1,3.8,51.5,4.8,82.6,1.2
			c25.8-3,86.6,41.9,111.2,36.5c67-14.6,126.5-85.9,216.6-115.7c305.6-101.1,70.2-447.6,86.5-594.1c8.7-78.1,44.8-443.5,54.6-521.1
			c20.6-161.8,13.8-315.1,1.3-366.5C1248.5,99.3,1060.2,250.5,930.6,242.4z"/>
	</g>
	<g>
		
			<linearGradient id="SVGID_5_" gradientUnits="userSpaceOnUse" x1="5693.1128" y1="-257.6288" x2="7258.3271" y2="-257.6288" gradientTransform="matrix(1.316075e-02 0.9999 0.9999 -1.316075e-02 992.2411 -5538.4126)">
			<stop  offset="5.586592e-03" style="stop-color:#E50C7C"/>
			<stop  offset="0.3939" style="stop-color:#F18B00"/>
			<stop  offset="0.6229" style="stop-color:#674185"/>
			<stop  offset="0.7123" style="stop-color:#4E368B"/>
			<stop  offset="0.7553" style="stop-color:#4B398D"/>
			<stop  offset="0.79" style="stop-color:#414294"/>
			<stop  offset="0.822" style="stop-color:#3052A0"/>
			<stop  offset="0.852" style="stop-color:#1869B1"/>
			<stop  offset="0.8652" style="stop-color:#0B75BA"/>
			<stop  offset="0.9944" style="stop-color:#005C97"/>
		</linearGradient>
		<path class="st4" d="M934.1,269.4c-171.2-10-497.3-108-531.4-103.4c-29.5,3.9,5.6,195.1-23.5,367.3
			c-33.8,199.8-42.9,417.5-24.1,500.7c16.7,73.9,22.9,193.5,28.4,229.5c7.2,47.5,18.9,124.4,55.5,157.8c25.7,23.5-39,209.7-0.8,228
			c63.8,30.6,82.5,76.6,118,73.8c51.4-4.1,102.4-51.7,147.5-46.8c33.1,3.6,53.1,4.6,85.1,1.2c26.6-2.8,89.3,40.3,114.6,35.1
			c69.1-14,130.4-82.6,223.3-111.2c315.1-97.2,72.4-430.4,89.2-571.3c8.9-75.1,46.1-426.4,56.3-501.1c21.2-155.6,14.3-303,1.3-352.4
			C1261.9,131.8,1067.7,277.2,934.1,269.4z"/>
	</g>
	<g>
		
			<linearGradient id="SVGID_6_" gradientUnits="userSpaceOnUse" x1="5722.855" y1="-257.895" x2="7228.3232" y2="-257.895" gradientTransform="matrix(1.316075e-02 0.9999 0.9999 -1.316075e-02 992.2411 -5538.4126)">
			<stop  offset="5.586592e-03" style="stop-color:#E50C7C"/>
			<stop  offset="0.3939" style="stop-color:#F18B00"/>
			<stop  offset="0.6229" style="stop-color:#674185"/>
			<stop  offset="0.7123" style="stop-color:#4E368B"/>
			<stop  offset="0.7553" style="stop-color:#4B398D"/>
			<stop  offset="0.79" style="stop-color:#414294"/>
			<stop  offset="0.822" style="stop-color:#3052A0"/>
			<stop  offset="0.852" style="stop-color:#1869B1"/>
			<stop  offset="0.8652" style="stop-color:#0B75BA"/>
			<stop  offset="0.9944" style="stop-color:#005C97"/>
		</linearGradient>
		<path class="st5" d="M937.7,295.4c-176.5-9.6-512.7-103.8-547.9-99.5c-30.4,3.8,5.8,187.6-24.3,353.2
			c-34.9,192.1-44.2,401.4-24.8,481.4c17.2,71,23.7,186.1,29.3,220.7c7.5,45.6,19.5,119.6,57.2,151.8
			c26.5,22.6-40.2,201.6-0.8,219.3c65.8,29.4,85.1,73.7,121.6,70.9c53-4,105.6-49.8,152.1-45c34.1,3.5,54.7,4.4,87.8,1.1
			c27.4-2.7,92.1,38.7,118.2,33.8c71.2-13.5,134.4-79.4,230.2-106.9c324.8-93.4,74.7-413.8,91.9-549.3c9.2-72.2,47.6-410,58.1-481.8
			c21.9-149.6,14.7-291.3,1.4-338.8C1275.6,163.1,1075.5,302.9,937.7,295.4z"/>
	</g>
	<g>
		
			<linearGradient id="SVGID_7_" gradientUnits="userSpaceOnUse" x1="5751.4814" y1="-258.0256" x2="7199.3052" y2="-258.0256" gradientTransform="matrix(1.316075e-02 0.9999 0.9999 -1.316075e-02 992.2411 -5538.4126)">
			<stop  offset="5.586592e-03" style="stop-color:#E50C7C"/>
			<stop  offset="0.3939" style="stop-color:#F18B00"/>
			<stop  offset="0.6229" style="stop-color:#674185"/>
			<stop  offset="0.7123" style="stop-color:#4E368B"/>
			<stop  offset="0.7553" style="stop-color:#4B398D"/>
			<stop  offset="0.79" style="stop-color:#414294"/>
			<stop  offset="0.822" style="stop-color:#3052A0"/>
			<stop  offset="0.852" style="stop-color:#1869B1"/>
			<stop  offset="0.8652" style="stop-color:#0B75BA"/>
			<stop  offset="0.9944" style="stop-color:#005C97"/>
		</linearGradient>
		<path class="st6" d="M941.4,320.3c-181.9-9.2-528.5-99.8-564.8-95.6c-31.4,3.6,6,180.4-25,339.6c-36,184.7-45.5,386-25.6,462.9
			c17.7,68.3,24.4,178.9,30.2,212.2c7.7,43.9,20.1,115,59,145.9c27.3,21.7-41.5,193.9-0.8,210.8c67.9,28.3,87.7,70.8,125.4,68.2
			c54.6-3.8,108.9-47.8,156.8-43.3c35.2,3.3,56.4,4.3,90.5,1.1c28.3-2.6,94.9,37.2,121.8,32.5c73.4-13,138.6-76.4,237.3-102.8
			c334.9-89.8,77-397.9,94.8-528.2c9.5-69.4,49-394.3,59.9-463.3c22.6-143.9,15.1-280.1,1.4-325.8
			C1289.8,193.1,1083.4,327.5,941.4,320.3z"/>
	</g>
	<g>
		
			<linearGradient id="SVGID_8_" gradientUnits="userSpaceOnUse" x1="5778.9092" y1="-258.3685" x2="7171.3872" y2="-258.3685" gradientTransform="matrix(1.316075e-02 0.9999 0.9999 -1.316075e-02 992.2411 -5538.4126)">
			<stop  offset="5.586592e-03" style="stop-color:#E50C7C"/>
			<stop  offset="0.3939" style="stop-color:#F18B00"/>
			<stop  offset="0.6229" style="stop-color:#674185"/>
			<stop  offset="0.7123" style="stop-color:#4E368B"/>
			<stop  offset="0.7553" style="stop-color:#4B398D"/>
			<stop  offset="0.79" style="stop-color:#414294"/>
			<stop  offset="0.822" style="stop-color:#3052A0"/>
			<stop  offset="0.852" style="stop-color:#1869B1"/>
			<stop  offset="0.8652" style="stop-color:#0B75BA"/>
			<stop  offset="0.9944" style="stop-color:#005C97"/>
		</linearGradient>
		<path class="st7" d="M945.3,344.3c-187.6-8.9-544.9-96-582.3-92c-32.4,3.5,6.2,173.4-25.8,326.5c-37.1,177.6-47,371.1-26.4,445.1
			c18.3,65.7,25.1,172,31.1,204c7.9,42.2,20.8,110.6,60.8,140.3c28.2,20.9-42.8,186.4-0.9,202.7c70,27.2,90.4,68.1,129.3,65.6
			c56.3-3.7,112.2-46,161.6-41.6c36.3,3.2,58.2,4.1,93.3,1c29.1-2.5,97.9,35.8,125.6,31.2c75.7-12.5,142.9-73.4,244.6-98.9
			c345.2-86.4,79.3-382.6,97.7-507.9c9.8-66.8,50.6-379.1,61.7-445.4c23.3-138.3,15.6-269.4,1.5-313.3
			C1304.4,222,1091.7,351.3,945.3,344.3z"/>
	</g>
	<g>
		
			<linearGradient id="SVGID_9_" gradientUnits="userSpaceOnUse" x1="5805.4248" y1="-258.5439" x2="7144.7749" y2="-258.5439" gradientTransform="matrix(1.316075e-02 0.9999 0.9999 -1.316075e-02 992.2411 -5538.4126)">
			<stop  offset="5.586592e-03" style="stop-color:#E50C7C"/>
			<stop  offset="0.3939" style="stop-color:#F18B00"/>
			<stop  offset="0.6229" style="stop-color:#674185"/>
			<stop  offset="0.7123" style="stop-color:#4E368B"/>
			<stop  offset="0.7553" style="stop-color:#4B398D"/>
			<stop  offset="0.79" style="stop-color:#414294"/>
			<stop  offset="0.822" style="stop-color:#3052A0"/>
			<stop  offset="0.852" style="stop-color:#1869B1"/>
			<stop  offset="0.8652" style="stop-color:#0B75BA"/>
			<stop  offset="0.9944" style="stop-color:#005C97"/>
		</linearGradient>
		<path class="st8" d="M949.2,367.4c-193.4-8.5-561.7-92.3-600.3-88.4c-33.4,3.3,6.3,166.7-26.6,314
			c-38.2,170.8-48.4,356.8-27.2,428c18.8,63.1,25.9,165.4,32.1,196.2c8.2,40.6,21.4,106.3,62.7,134.9c29,20.1-44.1,179.3-0.9,194.9
			c72.1,26.2,93.2,65.5,133.3,63c58-3.5,115.7-44.2,166.6-40c37.4,3.1,60,3.9,96.2,1c30-2.4,100.9,34.4,129.5,30
			c78-12,147.3-70.6,252.2-95.1c355.9-83.1,81.8-367.9,100.7-488.3c10.1-64.2,52.1-364.5,63.6-428.3c24-133,16.1-259,1.5-301.2
			C1319.4,249.8,1100.2,374.1,949.2,367.4z"/>
	</g>
	<g>
		
			<linearGradient id="SVGID_10_" gradientUnits="userSpaceOnUse" x1="5830.8403" y1="-258.6372" x2="7118.9526" y2="-258.6372" gradientTransform="matrix(1.316075e-02 0.9999 0.9999 -1.316075e-02 992.2411 -5538.4126)">
			<stop  offset="5.586592e-03" style="stop-color:#E50C7C"/>
			<stop  offset="0.3939" style="stop-color:#F18B00"/>
			<stop  offset="0.6229" style="stop-color:#674185"/>
			<stop  offset="0.7123" style="stop-color:#4E368B"/>
			<stop  offset="0.7553" style="stop-color:#4B398D"/>
			<stop  offset="0.79" style="stop-color:#414294"/>
			<stop  offset="0.822" style="stop-color:#3052A0"/>
			<stop  offset="0.852" style="stop-color:#1869B1"/>
			<stop  offset="0.8652" style="stop-color:#0B75BA"/>
			<stop  offset="0.9944" style="stop-color:#005C97"/>
		</linearGradient>
		<path class="st9" d="M953.3,389.6c-199.4-8.2-579.1-88.7-618.9-85C300,307.8,341,464.9,307,606.5c-39.4,164.2-49.9,343.1-28,411.5
			c19.4,60.7,26.7,159,33.1,188.6c8.4,39,22.1,102.2,64.7,129.7c29.9,19.3-45.5,172.4-0.9,187.4c74.4,25.2,96.1,63,137.4,60.6
			c59.8-3.4,119.3-42.5,171.8-38.5c38.6,3,61.8,3.8,99.2,1c31-2.3,104,33.1,133.5,28.9c80.4-11.5,151.8-67.9,260-91.4
			c366.9-79.9,84.3-353.7,103.8-469.6c10.4-61.7,53.7-350.5,65.6-411.8c24.7-127.9,16.6-249,1.6-289.6
			C1335,276.5,1108.9,396,953.3,389.6z"/>
	</g>
	<g>
		
			<linearGradient id="SVGID_11_" gradientUnits="userSpaceOnUse" x1="5855.251" y1="-258.9787" x2="7094.3174" y2="-258.9787" gradientTransform="matrix(1.316075e-02 0.9999 0.9999 -1.316075e-02 992.2411 -5538.4126)">
			<stop  offset="5.586592e-03" style="stop-color:#E50C7C"/>
			<stop  offset="0.3939" style="stop-color:#F18B00"/>
			<stop  offset="0.6229" style="stop-color:#674185"/>
			<stop  offset="0.7123" style="stop-color:#4E368B"/>
			<stop  offset="0.7553" style="stop-color:#4B398D"/>
			<stop  offset="0.79" style="stop-color:#414294"/>
			<stop  offset="0.822" style="stop-color:#3052A0"/>
			<stop  offset="0.852" style="stop-color:#1869B1"/>
			<stop  offset="0.8652" style="stop-color:#0B75BA"/>
			<stop  offset="0.9944" style="stop-color:#005C97"/>
		</linearGradient>
		<path class="st10" d="M957.5,411c-205.5-7.9-597-85.3-638-81.8c-35.5,3.1,6.7,154.2-28.3,290.3c-40.6,157.9-51.4,329.9-28.9,395.7
			c20,58.4,27.5,152.9,34.1,181.4c8.7,37.5,22.7,98.3,66.7,124.7c30.8,18.6-46.9,165.7-1,180.2c76.7,24.2,99.1,60.5,141.7,58.3
			c61.7-3.3,123-40.9,177.1-37c39.8,2.9,63.7,3.6,102.2,0.9c31.9-2.2,107.2,31.8,137.6,27.8c82.9-11.1,156.5-65.3,268-87.9
			c378.3-76.8,86.9-340.1,107-451.5c10.7-59.3,55.4-337,67.6-396c25.5-123,17.1-239.5,1.6-278.5C1351,302.2,1117.9,417.1,957.5,411z
			"/>
	</g>
	<g>
		
			<linearGradient id="SVGID_12_" gradientUnits="userSpaceOnUse" x1="5878.75" y1="-259.0911" x2="7070.4927" y2="-259.0911" gradientTransform="matrix(1.316075e-02 0.9999 0.9999 -1.316075e-02 992.2411 -5538.4126)">
			<stop  offset="5.586592e-03" style="stop-color:#E50C7C"/>
			<stop  offset="0.3939" style="stop-color:#F18B00"/>
			<stop  offset="0.6229" style="stop-color:#674185"/>
			<stop  offset="0.7123" style="stop-color:#4E368B"/>
			<stop  offset="0.7553" style="stop-color:#4B398D"/>
			<stop  offset="0.79" style="stop-color:#414294"/>
			<stop  offset="0.822" style="stop-color:#3052A0"/>
			<stop  offset="0.852" style="stop-color:#1869B1"/>
			<stop  offset="0.8652" style="stop-color:#0B75BA"/>
			<stop  offset="0.9944" style="stop-color:#005C97"/>
		</linearGradient>
		<path class="st11" d="M961.8,431.5c-211.9-7.6-615.5-82-657.7-78.6c-36.6,3,7,148.2-29.1,279.1c-41.9,151.8-53,317.2-29.8,380.5
			c20.6,56.1,28.4,147,35.2,174.4c9,36.1,23.5,94.5,68.7,119.9c31.8,17.9-48.3,159.4-1,173.3c79,23.3,102.1,58.2,146,56
			c63.6-3.1,126.8-39.3,182.5-35.6c41,2.7,65.7,3.5,105.4,0.9c32.9-2.2,110.6,30.6,141.9,26.7c85.5-10.7,161.4-62.8,276.3-84.5
			c390-73.8,89.6-327.1,110.4-434.1c11-57.1,57.1-324.1,69.7-380.8c26.3-118.3,17.6-230.3,1.7-267.8
			C1367.5,326.9,1127.2,437.4,961.8,431.5z"/>
	</g>
	<g>
		
			<linearGradient id="SVGID_13_" gradientUnits="userSpaceOnUse" x1="5901.2427" y1="-259.2088" x2="7047.5581" y2="-259.2088" gradientTransform="matrix(1.316075e-02 0.9999 0.9999 -1.316075e-02 992.2411 -5538.4126)">
			<stop  offset="5.586592e-03" style="stop-color:#E50C7C"/>
			<stop  offset="0.3939" style="stop-color:#F18B00"/>
			<stop  offset="0.6229" style="stop-color:#674185"/>
			<stop  offset="0.7123" style="stop-color:#4E368B"/>
			<stop  offset="0.7553" style="stop-color:#4B398D"/>
			<stop  offset="0.79" style="stop-color:#414294"/>
			<stop  offset="0.822" style="stop-color:#3052A0"/>
			<stop  offset="0.852" style="stop-color:#1869B1"/>
			<stop  offset="0.8652" style="stop-color:#0B75BA"/>
			<stop  offset="0.9944" style="stop-color:#005C97"/>
		</linearGradient>
		<path class="st12" d="M966.3,451.2c-218.4-7.3-634.5-78.9-678.1-75.6c-37.7,2.9,7.2,142.5-30,268.4c-43.2,146-54.7,305-30.7,365.8
			c21.3,54,29.3,141.4,36.3,167.7c9.2,34.7,24.2,90.9,70.8,115.3c32.8,17.2-49.8,153.2-1,166.6c81.5,22.4,105.3,56,150.6,53.9
			c65.5-3,130.7-37.8,188.2-34.2c42.3,2.6,67.7,3.4,108.6,0.9c33.9-2.1,114,29.4,146.3,25.7c88.1-10.3,166.4-60.3,284.9-81.3
			c402-71,92.4-314.5,113.8-417.4c11.4-54.9,58.9-311.6,71.9-366.1c27.1-113.7,18.2-221.4,1.7-257.5
			C1384.5,350.7,1136.8,456.9,966.3,451.2z"/>
	</g>
</g>
</svg>
