<?xml version="1.0" encoding="utf-8"?>
<!-- Generator: Adobe Illustrator 24.1.2, SVG Export Plug-In . SVG Version: 6.00 Build 0)  -->
<svg version="1.1" id="Camada_1" xmlns="http://www.w3.org/2000/svg" xmlns:xlink="http://www.w3.org/1999/xlink" x="0px" y="0px"
	 viewBox="0 0 1634.8 1888.9" style="enable-background:new 0 0 1634.8 1888.9;" xml:space="preserve">
<style type="text/css">
	.st0{fill:none;stroke:url(#SVGID_1_);stroke-width:6;stroke-miterlimit:10;}
	.st1{fill:none;stroke:url(#SVGID_2_);stroke-width:6;stroke-miterlimit:10;}
	.st2{fill:none;stroke:url(#SVGID_3_);stroke-width:6;stroke-miterlimit:10;}
	.st3{fill:none;stroke:url(#SVGID_4_);stroke-width:6;stroke-miterlimit:10;}
	.st4{fill:none;stroke:url(#SVGID_5_);stroke-width:6;stroke-miterlimit:10;}
	.st5{fill:none;stroke:url(#SVGID_6_);stroke-width:6;stroke-miterlimit:10;}
	.st6{fill:none;stroke:url(#SVGID_7_);stroke-width:6;stroke-miterlimit:10;}
	.st7{fill:none;stroke:url(#SVGID_8_);stroke-width:6;stroke-miterlimit:10;}
	.st8{fill:none;stroke:url(#SVGID_9_);stroke-width:6;stroke-miterlimit:10;}
	.st9{fill:none;stroke:url(#SVGID_10_);stroke-width:6;stroke-miterlimit:10;}
	.st10{fill:none;stroke:url(#SVGID_11_);stroke-width:6;stroke-miterlimit:10;}
	.st11{fill:none;stroke:url(#SVGID_12_);stroke-width:6;stroke-miterlimit:10;}
	.st12{fill:none;stroke:url(#SVGID_13_);stroke-width:6;stroke-miterlimit:10;}
</style>
<g>
	<g>
		
			<linearGradient id="SVGID_1_" gradientUnits="userSpaceOnUse" x1="1748.1133" y1="1816.239" x2="2848.1104" y2="1816.239" gradientTransform="matrix(0.9192 -0.3938 -0.3938 -0.9192 -557.0715 3478.3015)">
			<stop  offset="5.586592e-03" style="stop-color:#E50C7C"/>
			<stop  offset="0.3939" style="stop-color:#F18B00"/>
			<stop  offset="0.6229" style="stop-color:#674185"/>
			<stop  offset="0.7123" style="stop-color:#4E368B"/>
			<stop  offset="0.7553" style="stop-color:#4B398D"/>
			<stop  offset="0.79" style="stop-color:#414294"/>
			<stop  offset="0.822" style="stop-color:#3052A0"/>
			<stop  offset="0.852" style="stop-color:#1869B1"/>
			<stop  offset="0.8652" style="stop-color:#0B75BA"/>
			<stop  offset="0.9944" style="stop-color:#005C97"/>
		</linearGradient>
		<path class="st0" d="M394,646.6c-23.4,37.9-38.6,34.8-46.4,72.3c-9.5,46.3-0.1,117.9,18.6,157.4c23.1,48.7,49.2,24.7,63.2,75.5
			c7.1,26,1.8,37.9,6,81c8.3,85.1,34.6,94.3,51.9,173.6c15,68.5,0,82.8,12,188.4c2.9,25.6,19.8,187.6,46.8,199.3
			c18.5,8,127.6,259.8,242.5,232.1c133.2-32.1,266.5-133.7,307.9-225.8c36.8-81.7,105.2-164.5,124.2-198
			c25.1-44.2,65.8-115.8,70-222.3c3-74.8-17.1-85.6-22.6-187.6c-9.2-170.2,29.7-225.8,12.8-309.2
			c-24.5-120.7-119.8-72.8-136.2-183.5c-12-81.4,33.7-150.7,17.9-225.5c-13.1-62.1-54.5-73.5-82.9-80.5
			C1018.2,178.5,1049.1,17,945.9,72c-8.9,4.7-74.7,5.5-165.6,45.2c-48.5,21.1-156.8-24.8-205.5-6.9
			C473.2,147.5,470.4,430,446.6,488.8C425,542.1,426.7,593.6,394,646.6z"/>
	</g>
	<g>
		
			<linearGradient id="SVGID_2_" gradientUnits="userSpaceOnUse" x1="1749.55" y1="1817.8558" x2="2847.2773" y2="1817.8558" gradientTransform="matrix(0.9192 -0.3938 -0.3938 -0.9192 -557.0715 3478.3015)">
			<stop  offset="5.586592e-03" style="stop-color:#E50C7C"/>
			<stop  offset="0.3939" style="stop-color:#F18B00"/>
			<stop  offset="0.6229" style="stop-color:#674185"/>
			<stop  offset="0.7123" style="stop-color:#4E368B"/>
			<stop  offset="0.7553" style="stop-color:#4B398D"/>
			<stop  offset="0.79" style="stop-color:#414294"/>
			<stop  offset="0.822" style="stop-color:#3052A0"/>
			<stop  offset="0.852" style="stop-color:#1869B1"/>
			<stop  offset="0.8652" style="stop-color:#0B75BA"/>
			<stop  offset="0.9944" style="stop-color:#005C97"/>
		</linearGradient>
		<path class="st1" d="M380.9,658.1c-24.2,36.5-39.8,33.4-47.8,69.5c-9.8,44.5-0.1,113.4,19.1,151.3c23.8,46.8,50.8,23.8,65.1,72.6
			c7.3,25,1.9,36.5,6.2,77.9c8.6,81.9,35.6,90.7,53.5,166.9c15.4,65.9,0,79.6,12.4,181.1c3,24.6,20.4,180.4,48.3,191.7
			c19,7.7,131.6,249.8,250,223.2c137.4-30.9,274.7-128.6,317.4-217.1c37.9-78.6,108.4-158.2,128-190.4
			c25.9-42.5,67.8-111.3,72.2-213.8c3.1-72-17.6-82.3-23.3-180.4c-9.5-163.7,30.6-217.1,13.2-297.3c-25.2-116-123.5-70-140.4-176.4
			c-12.4-78.2,34.7-144.9,18.5-216.9c-13.5-59.7-56.1-70.7-85.5-77.4c-63.4-14.6-31.5-169.9-137.9-117.1c-9.2,4.6-77,5.3-170.7,43.4
			c-50,20.3-161.6-23.9-211.8-6.7c-104.7,35.9-107.6,307.5-132.2,364.1C412.9,557.6,414.7,607.1,380.9,658.1z"/>
	</g>
	<g>
		
			<linearGradient id="SVGID_3_" gradientUnits="userSpaceOnUse" x1="1750.245" y1="1819.2252" x2="2847.1064" y2="1819.2252" gradientTransform="matrix(0.9192 -0.3938 -0.3938 -0.9192 -557.0715 3478.3015)">
			<stop  offset="5.586592e-03" style="stop-color:#E50C7C"/>
			<stop  offset="0.3939" style="stop-color:#F18B00"/>
			<stop  offset="0.6229" style="stop-color:#674185"/>
			<stop  offset="0.7123" style="stop-color:#4E368B"/>
			<stop  offset="0.7553" style="stop-color:#4B398D"/>
			<stop  offset="0.79" style="stop-color:#414294"/>
			<stop  offset="0.822" style="stop-color:#3052A0"/>
			<stop  offset="0.852" style="stop-color:#1869B1"/>
			<stop  offset="0.8652" style="stop-color:#0B75BA"/>
			<stop  offset="0.9944" style="stop-color:#005C97"/>
		</linearGradient>
		<path class="st2" d="M367.4,669.1c-24.9,35.1-41.1,32.1-49.3,66.8c-10.1,42.8-0.1,109,19.7,145.5c24.5,45,52.3,22.8,67.1,69.8
			c7.6,24,1.9,35.1,6.4,74.9c8.8,78.7,36.7,87.2,55.1,160.5c15.9,63.3,0,76.5,12.8,174.2c3.1,23.7,21,173.4,49.8,184.3
			c19.6,7.4,135.6,240.2,257.7,214.6C928.4,1730,1070,1636,1114,1550.9c39.1-75.6,111.8-152.1,132-183.1
			c26.7-40.9,69.9-107.1,74.4-205.5c3.1-69.2-18.2-79.2-24-173.4c-9.7-157.4,31.6-208.8,13.6-285.8
			c-26-111.6-127.3-67.3-144.7-169.7c-12.8-75.2,35.8-139.4,19-208.5c-13.9-57.4-57.9-68-88.1-74.5
			C1030.8,236.3,1063.6,87,954,137.8c-9.5,4.4-79.4,5.1-176,41.8c-51.5,19.5-166.6-23-218.4-6.4c-108,34.5-111,295.7-136.3,350.1
			C400.4,572.5,402.2,620.1,367.4,669.1z"/>
	</g>
	<g>
		
			<linearGradient id="SVGID_4_" gradientUnits="userSpaceOnUse" x1="1750.3538" y1="1820.4847" x2="2847.6394" y2="1820.4847" gradientTransform="matrix(0.9192 -0.3938 -0.3938 -0.9192 -557.0715 3478.3015)">
			<stop  offset="5.586592e-03" style="stop-color:#E50C7C"/>
			<stop  offset="0.3939" style="stop-color:#F18B00"/>
			<stop  offset="0.6229" style="stop-color:#674185"/>
			<stop  offset="0.7123" style="stop-color:#4E368B"/>
			<stop  offset="0.7553" style="stop-color:#4B398D"/>
			<stop  offset="0.79" style="stop-color:#414294"/>
			<stop  offset="0.822" style="stop-color:#3052A0"/>
			<stop  offset="0.852" style="stop-color:#1869B1"/>
			<stop  offset="0.8652" style="stop-color:#0B75BA"/>
			<stop  offset="0.9944" style="stop-color:#005C97"/>
		</linearGradient>
		<path class="st3" d="M353.5,679.7c-25.7,33.7-42.3,30.9-50.8,64.3c-10.4,41.1-0.1,104.8,20.3,139.9c25.3,43.3,53.9,22,69.2,67.1
			c7.8,23.1,2,33.7,6.6,72c9.1,75.7,37.9,83.9,56.8,154.3c16.4,60.9,0,73.6,13.2,167.5c3.2,22.8,21.7,166.8,51.3,177.2
			c20.2,7.1,139.8,231,265.7,206.4c146-28.6,292-118.9,337.3-200.7c40.3-72.7,115.2-146.2,136.1-176
			c27.5-39.3,72.1-102.9,76.7-197.6c3.2-66.5-18.7-76.1-24.7-166.8c-10-151.3,32.5-200.7,14-274.8
			c-26.8-107.3-131.3-64.7-149.2-163.1c-13.2-72.3,36.9-134,19.6-200.5c-14.3-55.2-59.7-65.3-90.9-71.6
			c-67.4-13.5-33.5-157.1-146.6-108.3c-9.8,4.2-81.8,4.9-181.4,40.1c-53.1,18.8-171.8-22.1-225.2-6.2
			C440.2,236,437.1,487.2,411,539.5C387.5,586.8,389.4,632.6,353.5,679.7z"/>
	</g>
	<g>
		
			<linearGradient id="SVGID_5_" gradientUnits="userSpaceOnUse" x1="1749.7445" y1="1821.7" x2="2849.2339" y2="1821.7" gradientTransform="matrix(0.9192 -0.3938 -0.3938 -0.9192 -557.0715 3478.3015)">
			<stop  offset="5.586592e-03" style="stop-color:#E50C7C"/>
			<stop  offset="0.3939" style="stop-color:#F18B00"/>
			<stop  offset="0.6229" style="stop-color:#674185"/>
			<stop  offset="0.7123" style="stop-color:#4E368B"/>
			<stop  offset="0.7553" style="stop-color:#4B398D"/>
			<stop  offset="0.79" style="stop-color:#414294"/>
			<stop  offset="0.822" style="stop-color:#3052A0"/>
			<stop  offset="0.852" style="stop-color:#1869B1"/>
			<stop  offset="0.8652" style="stop-color:#0B75BA"/>
			<stop  offset="0.9944" style="stop-color:#005C97"/>
		</linearGradient>
		<path class="st4" d="M339.1,689.9c-26.5,32.4-43.7,29.7-52.4,61.8c-10.7,39.5-0.1,100.8,21,134.5c26.1,41.6,55.6,21.1,71.3,64.5
			c8,22.2,2.1,32.4,6.8,69.2c9.4,72.8,39,80.7,58.6,148.4c16.9,58.6,0,70.8,13.6,161c3.3,21.9,22.3,160.3,52.9,170.4
			c20.8,6.9,144.2,222.1,273.9,198.4c150.5-27.5,301-114.3,347.8-193c41.5-69.9,118.8-140.6,140.3-169.3c28.4-37.8,74.3-99,79.1-190
			c3.3-64-19.3-73.2-25.5-160.3c-10.4-145.5,33.5-193,14.5-264.3c-27.6-103.2-135.3-62.2-153.8-156.9
			c-13.6-69.5,38-128.8,20.2-192.8c-14.8-53.1-61.5-62.8-93.7-68.8c-69.5-13-34.6-151.1-151.1-104.1c-10.1,4.1-84.3,4.7-187.1,38.6
			c-54.7,18.1-177.1-21.2-232.1-5.9c-114.8,31.9-118,273.4-144.9,323.7C374.2,600.5,376.1,644.6,339.1,689.9z"/>
	</g>
	<g>
		
			<linearGradient id="SVGID_6_" gradientUnits="userSpaceOnUse" x1="1748.3274" y1="1822.7391" x2="2851.0095" y2="1822.7391" gradientTransform="matrix(0.9192 -0.3938 -0.3938 -0.9192 -557.0715 3478.3015)">
			<stop  offset="5.586592e-03" style="stop-color:#E50C7C"/>
			<stop  offset="0.3939" style="stop-color:#F18B00"/>
			<stop  offset="0.6229" style="stop-color:#674185"/>
			<stop  offset="0.7123" style="stop-color:#4E368B"/>
			<stop  offset="0.7553" style="stop-color:#4B398D"/>
			<stop  offset="0.79" style="stop-color:#414294"/>
			<stop  offset="0.822" style="stop-color:#3052A0"/>
			<stop  offset="0.852" style="stop-color:#1869B1"/>
			<stop  offset="0.8652" style="stop-color:#0B75BA"/>
			<stop  offset="0.9944" style="stop-color:#005C97"/>
		</linearGradient>
		<path class="st5" d="M324.3,699.7c-27.3,31.2-45,28.6-54,59.4c-11.1,38-0.1,96.9,21.6,129.3c26.9,40,57.3,20.3,73.5,62.1
			c8.3,21.4,2.1,31.2,7,66.5c9.7,70,40.2,77.5,60.4,142.7c17.4,56.3,0,68.1,14,154.8c3.4,21.1,23,154.2,54.5,163.8
			c21.5,6.6,148.6,213.6,282.3,190.8c155.2-26.4,310.3-109.9,358.5-185.6c42.8-67.2,122.5-135.2,144.6-162.7
			c29.2-36.3,76.6-95.2,81.5-182.7c3.4-61.5-19.9-70.4-26.3-154.2c-10.7-139.9,34.6-185.6,14.9-254.1
			c-28.5-99.2-139.5-59.9-158.6-150.8c-14-66.9,39.2-123.9,20.9-185.4c-15.2-51-63.4-60.4-96.6-66.2
			c-71.6-12.5-35.6-145.3-155.8-100.1c-10.4,3.9-87,4.5-192.8,37.1c-56.4,17.4-182.6-20.4-239.3-5.7
			c-118,30.7-121.3,262.9-149,311.3C360.5,613.7,362.5,656.1,324.3,699.7z"/>
	</g>
	<g>
		
			<linearGradient id="SVGID_7_" gradientUnits="userSpaceOnUse" x1="1746.4158" y1="1823.2637" x2="2857.5068" y2="1823.2637" gradientTransform="matrix(0.9192 -0.3938 -0.3938 -0.9192 -557.0715 3478.3015)">
			<stop  offset="5.586592e-03" style="stop-color:#E50C7C"/>
			<stop  offset="0.3939" style="stop-color:#F18B00"/>
			<stop  offset="0.6229" style="stop-color:#674185"/>
			<stop  offset="0.7123" style="stop-color:#4E368B"/>
			<stop  offset="0.7553" style="stop-color:#4B398D"/>
			<stop  offset="0.79" style="stop-color:#414294"/>
			<stop  offset="0.822" style="stop-color:#3052A0"/>
			<stop  offset="0.852" style="stop-color:#1869B1"/>
			<stop  offset="0.8652" style="stop-color:#0B75BA"/>
			<stop  offset="0.9944" style="stop-color:#005C97"/>
		</linearGradient>
		<path class="st6" d="M309.1,709.1c-28.1,30-46.4,27.5-55.7,57.1c-11.4,36.6-0.2,93.2,22.3,124.4c27.7,38.5,59.1,19.5,75.8,59.7
			c8.5,20.6,2.2,30,7.2,64c10,67.3,41.5,74.6,62.3,137.2c18,54.1,0,65.4,14.5,148.9c3.5,20.2,23.7,148.2,56.2,157.5
			c22.2,6.3,153.2,205.3,291.1,183.5c160-25.4,319.9-105.7,369.6-178.4c44.1-64.6,126.3-130,149.1-156.5c30.1-34.9,79-91.5,84-175.7
			c3.6-59.1-20.5-67.7-27.1-148.2c-11-134.5,35.6-178.5,15.4-244.3c-29.4-95.4-143.8-57.6-163.5-145
			c-14.5-64.3,40.4-119.1,21.5-178.3c-15.7-49.1-65.4-58.1-99.5-63.7c-73.8-12-36.7-139.7-160.6-96.3c-10.7,3.7-89.6,4.3-198.8,35.7
			c-58.2,16.7-188.2-19.6-246.7-5.5c-121.9,29.5-125.4,252.7-153.9,299.3C346.4,626.5,348.4,667.2,309.1,709.1z"/>
	</g>
	<g>
		
			<linearGradient id="SVGID_8_" gradientUnits="userSpaceOnUse" x1="1743.8669" y1="1823.8676" x2="2870.0791" y2="1823.8676" gradientTransform="matrix(0.9192 -0.3938 -0.3938 -0.9192 -557.0715 3478.3015)">
			<stop  offset="5.586592e-03" style="stop-color:#E50C7C"/>
			<stop  offset="0.3939" style="stop-color:#F18B00"/>
			<stop  offset="0.6229" style="stop-color:#674185"/>
			<stop  offset="0.7123" style="stop-color:#4E368B"/>
			<stop  offset="0.7553" style="stop-color:#4B398D"/>
			<stop  offset="0.79" style="stop-color:#414294"/>
			<stop  offset="0.822" style="stop-color:#3052A0"/>
			<stop  offset="0.852" style="stop-color:#1869B1"/>
			<stop  offset="0.8652" style="stop-color:#0B75BA"/>
			<stop  offset="0.9944" style="stop-color:#005C97"/>
		</linearGradient>
		<path class="st7" d="M293.4,718.1c-29,28.8-47.8,26.4-57.4,54.9c-11.8,35.1-0.2,89.6,23,119.6c28.6,37,60.9,18.8,78.2,57.4
			c8.8,19.8,2.2,28.8,7.5,61.5c10.3,64.7,42.8,71.7,64.2,131.9c18.5,52.1,0,62.9,14.9,143.2c3.6,19.5,24.5,142.5,58,151.5
			c22.8,6.1,157.9,197.4,300.1,176.4c164.9-24.4,329.8-101.6,381-171.6c45.5-62.1,130.2-125,153.7-150.5
			c31.1-33.6,81.4-88,86.6-168.9c3.7-56.9-21.2-65.1-27.9-142.5c-11.3-129.4,36.7-171.6,15.8-234.9
			c-30.3-91.7-148.3-55.3-168.6-139.5c-14.9-61.8,41.7-114.5,22.2-171.4c-16.2-47.2-67.4-55.9-102.6-61.2
			c-76.1-11.6-37.9-134.3-165.5-92.5c-11,3.6-92.4,4.2-205,34.3c-60,16.1-194.1-18.9-254.3-5.3c-125.7,28.3-129.2,243-158.7,287.8
			C331.8,638.7,333.9,677.9,293.4,718.1z"/>
	</g>
	<g>
		
			<linearGradient id="SVGID_9_" gradientUnits="userSpaceOnUse" x1="1740.345" y1="1824.2622" x2="2883.261" y2="1824.2622" gradientTransform="matrix(0.9192 -0.3938 -0.3938 -0.9192 -557.0715 3478.3015)">
			<stop  offset="5.586592e-03" style="stop-color:#E50C7C"/>
			<stop  offset="0.3939" style="stop-color:#F18B00"/>
			<stop  offset="0.6229" style="stop-color:#674185"/>
			<stop  offset="0.7123" style="stop-color:#4E368B"/>
			<stop  offset="0.7553" style="stop-color:#4B398D"/>
			<stop  offset="0.79" style="stop-color:#414294"/>
			<stop  offset="0.822" style="stop-color:#3052A0"/>
			<stop  offset="0.852" style="stop-color:#1869B1"/>
			<stop  offset="0.8652" style="stop-color:#0B75BA"/>
			<stop  offset="0.9944" style="stop-color:#005C97"/>
		</linearGradient>
		<path class="st8" d="M277.2,726.8c-29.9,27.7-49.3,25.4-59.2,52.8c-12.1,33.8-0.2,86.2,23.7,115c29.5,35.6,62.8,18.1,80.6,55.2
			c9.1,19,2.3,27.7,7.7,59.2c10.6,62.2,44.1,68.9,66.2,126.8c19.1,50.1,0,60.5,15.4,137.7c3.7,18.7,25.2,137.1,59.8,145.7
			c23.5,5.9,162.8,189.9,309.4,169.6c170-23.5,340-97.7,392.8-165c46.9-59.7,134.2-120.2,158.5-144.7c32-32.3,83.9-84.6,89.3-162.4
			c3.8-54.7-21.8-62.6-28.8-137.1c-11.7-124.4,37.9-165,16.3-225.9c-31.2-88.2-152.9-53.2-173.8-134.1
			c-15.4-59.5,43-110.1,22.8-164.8c-16.7-45.4-69.5-53.7-105.8-58.8c-78.5-11.1-39-129.1-170.7-89c-11.4,3.5-95.3,4-211.3,33
			c-61.8,15.4-200.1-18.1-262.2-5.1c-129.6,27.2-133.2,233.7-163.6,276.7C316.8,650.5,319,688.1,277.2,726.8z"/>
	</g>
	<g>
		
			<linearGradient id="SVGID_10_" gradientUnits="userSpaceOnUse" x1="1726.3419" y1="1824.3953" x2="2896.7756" y2="1824.3953" gradientTransform="matrix(0.9192 -0.3938 -0.3938 -0.9192 -557.0715 3478.3015)">
			<stop  offset="5.586592e-03" style="stop-color:#E50C7C"/>
			<stop  offset="0.3939" style="stop-color:#F18B00"/>
			<stop  offset="0.6229" style="stop-color:#674185"/>
			<stop  offset="0.7123" style="stop-color:#4E368B"/>
			<stop  offset="0.7553" style="stop-color:#4B398D"/>
			<stop  offset="0.79" style="stop-color:#414294"/>
			<stop  offset="0.822" style="stop-color:#3052A0"/>
			<stop  offset="0.852" style="stop-color:#1869B1"/>
			<stop  offset="0.8652" style="stop-color:#0B75BA"/>
			<stop  offset="0.9944" style="stop-color:#005C97"/>
		</linearGradient>
		<path class="st9" d="M260.5,735.2c-30.8,26.6-50.8,24.4-61,50.8c-12.5,32.5-0.2,82.9,24.4,110.6c30.4,34.2,64.8,17.4,83.1,53.1
			c9.4,18.3,2.4,26.7,7.9,56.9c10.9,59.8,45.5,66.3,68.2,122c19.7,48.1,0,58.2,15.8,132.4c3.9,18,26,131.8,61.6,140.1
			c24.3,5.6,167.9,182.5,318.9,163.1c175.3-22.6,350.5-94,405-158.6c48.4-57.4,138.3-115.6,163.4-139.1c33-31,86.5-81.4,92.1-156.2
			c3.9-52.6-22.5-60.2-29.7-131.8c-12.1-119.6,39.1-158.7,16.8-217.2c-32.2-84.8-157.6-51.2-179.1-128.9
			c-15.8-57.2,44.3-105.9,23.6-158.5c-17.2-43.6-71.6-51.6-109.1-56.6c-80.9-10.7-40.3-124.2-175.9-85.6
			c-11.7,3.3-98.2,3.9-217.8,31.7c-63.7,14.9-206.2-17.4-270.3-4.9C364.7,384.5,361,583,329.6,624.3
			C301.3,661.8,303.5,698,260.5,735.2z"/>
	</g>
	<g>
		
			<linearGradient id="SVGID_11_" gradientUnits="userSpaceOnUse" x1="1707.667" y1="1824.6553" x2="2911.3103" y2="1824.6553" gradientTransform="matrix(0.9192 -0.3938 -0.3938 -0.9192 -557.0715 3478.3015)">
			<stop  offset="5.586592e-03" style="stop-color:#E50C7C"/>
			<stop  offset="0.3939" style="stop-color:#F18B00"/>
			<stop  offset="0.6229" style="stop-color:#674185"/>
			<stop  offset="0.7123" style="stop-color:#4E368B"/>
			<stop  offset="0.7553" style="stop-color:#4B398D"/>
			<stop  offset="0.79" style="stop-color:#414294"/>
			<stop  offset="0.822" style="stop-color:#3052A0"/>
			<stop  offset="0.852" style="stop-color:#1869B1"/>
			<stop  offset="0.8652" style="stop-color:#0B75BA"/>
			<stop  offset="0.9944" style="stop-color:#005C97"/>
		</linearGradient>
		<path class="st10" d="M243.2,743.3c-31.8,25.6-52.4,23.5-62.9,48.8c-12.9,31.2-0.2,79.7,25.2,106.3c31.3,32.9,66.8,16.7,85.6,51
			c9.7,17.6,2.5,25.6,8.2,54.7c11.3,57.5,46.9,63.7,70.3,117.3c20.3,46.3,0,55.9,16.3,127.3c4,17.3,26.8,126.7,63.5,134.7
			c25,5.4,173.1,175.5,328.8,156.8c180.7-21.7,361.3-90.3,417.5-152.5c49.9-55.2,142.6-111.1,168.4-133.8
			c34-29.9,89.2-78.2,94.9-150.2c4-50.6-23.2-57.8-30.6-126.7c-12.4-115,40.3-152.5,17.4-208.9c-33.2-81.5-162.5-49.2-184.7-124
			c-16.3-55,45.7-101.8,24.3-152.4c-17.7-41.9-73.9-49.7-112.4-54.4c-83.4-10.3-41.5-119.4-181.4-82.3
			c-12.1,3.2-101.3,3.7-224.6,30.5c-65.7,14.3-212.6-16.8-278.7-4.7c-137.7,25.2-141.6,216-173.9,255.8
			C285.3,672.6,287.6,707.4,243.2,743.3z"/>
	</g>
	<g>
		
			<linearGradient id="SVGID_12_" gradientUnits="userSpaceOnUse" x1="1688.5707" y1="1824.3571" x2="2926.5969" y2="1824.3571" gradientTransform="matrix(0.9192 -0.3938 -0.3938 -0.9192 -557.0715 3478.3015)">
			<stop  offset="5.586592e-03" style="stop-color:#E50C7C"/>
			<stop  offset="0.3939" style="stop-color:#F18B00"/>
			<stop  offset="0.6229" style="stop-color:#674185"/>
			<stop  offset="0.7123" style="stop-color:#4E368B"/>
			<stop  offset="0.7553" style="stop-color:#4B398D"/>
			<stop  offset="0.79" style="stop-color:#414294"/>
			<stop  offset="0.822" style="stop-color:#3052A0"/>
			<stop  offset="0.852" style="stop-color:#1869B1"/>
			<stop  offset="0.8652" style="stop-color:#0B75BA"/>
			<stop  offset="0.9944" style="stop-color:#005C97"/>
		</linearGradient>
		<path class="st11" d="M225.5,751c-32.8,24.6-54,22.6-64.8,47c-13.3,30-0.2,76.6,26,102.2c32.3,31.6,68.8,16,88.3,49.1
			c10,16.9,2.5,24.6,8.4,52.6c11.6,55.3,48.3,61.3,72.5,112.8c20.9,44.5,0,53.8,16.8,122.4c4.1,16.6,27.6,121.8,65.5,129.5
			c25.8,5.2,178.4,168.8,339,150.8c186.3-20.9,372.5-86.9,430.4-146.7c51.4-53.1,147-106.9,173.6-128.6
			c35.1-28.7,92-75.2,97.9-144.4c4.1-48.6-23.9-55.6-31.6-121.9c-12.8-110.6,41.5-146.7,17.9-200.8
			c-34.2-78.4-167.5-47.3-190.4-119.2c-16.8-52.9,47.1-97.9,25-146.5c-18.3-40.3-76.1-47.7-115.9-52.3c-86-9.9-42.8-114.8-187-79.1
			c-12.4,3.1-104.4,3.6-231.5,29.3c-67.7,13.7-219.2-16.1-287.3-4.5c-142,24.2-146,207.7-179.3,246
			C268.9,683.1,271.3,716.6,225.5,751z"/>
	</g>
	<g>
		
			<linearGradient id="SVGID_13_" gradientUnits="userSpaceOnUse" x1="1668.8477" y1="1824.2708" x2="2942.6313" y2="1824.2708" gradientTransform="matrix(0.9192 -0.3938 -0.3938 -0.9192 -557.0715 3478.3015)">
			<stop  offset="5.586592e-03" style="stop-color:#E50C7C"/>
			<stop  offset="0.3939" style="stop-color:#F18B00"/>
			<stop  offset="0.6229" style="stop-color:#674185"/>
			<stop  offset="0.7123" style="stop-color:#4E368B"/>
			<stop  offset="0.7553" style="stop-color:#4B398D"/>
			<stop  offset="0.79" style="stop-color:#414294"/>
			<stop  offset="0.822" style="stop-color:#3052A0"/>
			<stop  offset="0.852" style="stop-color:#1869B1"/>
			<stop  offset="0.8652" style="stop-color:#0B75BA"/>
			<stop  offset="0.9944" style="stop-color:#005C97"/>
		</linearGradient>
		<path class="st12" d="M207.2,758.4c-33.8,23.7-55.7,21.7-66.8,45.1c-13.7,28.9-0.2,73.7,26.8,98.3c33.3,30.4,71,15.4,91,47.2
			c10.3,16.2,2.6,23.7,8.7,50.6c12,53.2,49.8,58.9,74.8,108.4c21.6,42.8,0,51.7,17.4,117.7c4.2,16,28.5,117.2,67.5,124.5
			c26.6,5,183.9,162.3,349.4,145c192-20.1,384-83.5,443.7-141c53-51.1,151.6-102.8,179-123.7c36.2-27.6,94.8-72.3,100.9-138.9
			c4.3-46.7-24.6-53.5-32.5-117.2c-13.2-106.3,42.8-141,18.4-193.1c-35.3-75.4-172.7-45.5-196.3-114.6
			c-17.4-50.8,48.5-94.1,25.8-140.9c-18.9-38.8-78.5-45.9-119.5-50.3c-88.6-9.5-44.1-110.4-192.8-76.1c-12.8,3-107.6,3.4-238.7,28.2
			c-69.8,13.2-226-15.5-296.2-4.3C321.4,446.7,317.3,623.1,283,659.9C251.9,693.1,254.4,725.3,207.2,758.4z"/>
	</g>
</g>
</svg>
