<?xml version="1.0" encoding="utf-8"?>
<!-- Generator: Adobe Illustrator 24.1.2, SVG Export Plug-In . SVG Version: 6.00 Build 0)  -->
<svg version="1.1" id="Camada_1" xmlns="http://www.w3.org/2000/svg" xmlns:xlink="http://www.w3.org/1999/xlink" x="0px" y="0px"
	 viewBox="0 0 1634.8 1888.9" style="enable-background:new 0 0 1634.8 1888.9;" xml:space="preserve">
<style type="text/css">
	.st0{fill:none;stroke:url(#SVGID_1_);stroke-width:6;stroke-miterlimit:10;}
	.st1{fill:none;stroke:url(#SVGID_2_);stroke-width:6;stroke-miterlimit:10;}
	.st2{fill:none;stroke:url(#SVGID_3_);stroke-width:6;stroke-miterlimit:10;}
	.st3{fill:none;stroke:url(#SVGID_4_);stroke-width:6;stroke-miterlimit:10;}
	.st4{fill:none;stroke:url(#SVGID_5_);stroke-width:6;stroke-miterlimit:10;}
	.st5{fill:none;stroke:url(#SVGID_6_);stroke-width:6;stroke-miterlimit:10;}
	.st6{fill:none;stroke:url(#SVGID_7_);stroke-width:6;stroke-miterlimit:10;}
	.st7{fill:none;stroke:url(#SVGID_8_);stroke-width:6;stroke-miterlimit:10;}
	.st8{fill:none;stroke:url(#SVGID_9_);stroke-width:6;stroke-miterlimit:10;}
	.st9{fill:none;stroke:url(#SVGID_10_);stroke-width:6;stroke-miterlimit:10;}
	.st10{fill:none;stroke:url(#SVGID_11_);stroke-width:6;stroke-miterlimit:10;}
	.st11{fill:none;stroke:url(#SVGID_12_);stroke-width:6;stroke-miterlimit:10;}
	.st12{fill:none;stroke:url(#SVGID_13_);stroke-width:6;stroke-miterlimit:10;}
	.st13{fill:none;stroke:url(#SVGID_14_);stroke-width:6;stroke-miterlimit:10;}
	.st14{fill:none;stroke:url(#SVGID_15_);stroke-width:6;stroke-miterlimit:10;}
	.st15{fill:none;stroke:url(#SVGID_16_);stroke-width:6;stroke-miterlimit:10;}
	.st16{fill:none;stroke:url(#SVGID_17_);stroke-width:6;stroke-miterlimit:10;}
	.st17{fill:none;stroke:url(#SVGID_18_);stroke-width:6;stroke-miterlimit:10;}
	.st18{fill:none;stroke:url(#SVGID_19_);stroke-width:6;stroke-miterlimit:10;}
	.st19{fill:none;stroke:url(#SVGID_20_);stroke-width:6;stroke-miterlimit:10;}
	.st20{fill:none;stroke:url(#SVGID_21_);stroke-width:6;stroke-miterlimit:10;}
	.st21{fill:none;stroke:url(#SVGID_22_);stroke-width:6;stroke-miterlimit:10;}
	.st22{fill:none;stroke:url(#SVGID_23_);stroke-width:6;stroke-miterlimit:10;}
	.st23{fill:none;stroke:url(#SVGID_24_);stroke-width:6;stroke-miterlimit:10;}
	.st24{fill:none;stroke:url(#SVGID_25_);stroke-width:6;stroke-miterlimit:10;}
	.st25{fill:none;stroke:url(#SVGID_26_);stroke-width:6;stroke-miterlimit:10;}
	.st26{fill:none;stroke:url(#SVGID_27_);stroke-width:6;stroke-miterlimit:10;}
	.st27{fill:none;stroke:url(#SVGID_28_);stroke-width:6;stroke-miterlimit:10;}
	.st28{fill:none;stroke:url(#SVGID_29_);stroke-width:6;stroke-miterlimit:10;}
	.st29{fill:none;stroke:url(#SVGID_30_);stroke-width:6;stroke-miterlimit:10;}
	.st30{fill:none;stroke:url(#SVGID_31_);stroke-width:6;stroke-miterlimit:10;}
	.st31{fill:none;stroke:url(#SVGID_32_);stroke-width:6;stroke-miterlimit:10;}
	.st32{fill:none;stroke:url(#SVGID_33_);stroke-width:6;stroke-miterlimit:10;}
	.st33{fill:none;stroke:url(#SVGID_34_);stroke-width:6;stroke-miterlimit:10;}
	.st34{fill:none;stroke:url(#SVGID_35_);stroke-width:6;stroke-miterlimit:10;}
	.st35{fill:none;stroke:url(#SVGID_36_);stroke-width:6;stroke-miterlimit:10;}
	.st36{fill:none;stroke:url(#SVGID_37_);stroke-width:6;stroke-miterlimit:10;}
	.st37{fill:none;stroke:url(#SVGID_38_);stroke-width:6;stroke-miterlimit:10;}
	.st38{fill:none;stroke:url(#SVGID_39_);stroke-width:6;stroke-miterlimit:10;}
</style>
<g>
	
		<image style="overflow:visible;opacity:0.75;enable-background:new    ;" width="6213" height="7429" xlink:href="14EF2532.png"  transform="matrix(0.2398 0 0 0.2398 -1674.3229 44.0975)">
	</image>
	<g>
		<g>
			
				<linearGradient id="SVGID_1_" gradientUnits="userSpaceOnUse" x1="6246.9561" y1="-3402.5757" x2="7998.0522" y2="-3402.5757" gradientTransform="matrix(1.320000e-02 0.9999 0.9999 -1.320000e-02 2374.5579 -6233.9658)">
				<stop  offset="5.586592e-03" style="stop-color:#E5147D"/>
				<stop  offset="0.3939" style="stop-color:#F18B04"/>
				<stop  offset="0.6229" style="stop-color:#684287"/>
				<stop  offset="0.7123" style="stop-color:#4E378C"/>
				<stop  offset="0.7475" style="stop-color:#4D388D"/>
				<stop  offset="0.7761" style="stop-color:#4B3F91"/>
				<stop  offset="0.8023" style="stop-color:#474998"/>
				<stop  offset="0.8271" style="stop-color:#3E58A3"/>
				<stop  offset="0.8507" style="stop-color:#2D69B0"/>
				<stop  offset="0.8652" style="stop-color:#1376BB"/>
				<stop  offset="0.9944" style="stop-color:#005D98"/>
			</linearGradient>
			<path class="st0" d="M-824.4,77.4c-177.2-13.6-204.1-19.7-239.5-13.6c-30.6,5.3-304.7,138.9-334.9,374.4
				c-35,273.2-44.3,570.9-24.9,684.7c17.3,101,23.8,264.6,29.4,313.8c7.5,64.9,19.6,170.1,57.5,215.8c26.6,32.2,37.6-3.5,77.2,21.6
				c66.1,41.9,72.9,137.8,109.7,133.9c53.2-5.6,69-209.9,115.7-203.2c34.3,4.9,43.8,119.2,77,114.6c27.5-3.9,46.3-81.2,58.9-134.7
				c27.3-115.6,223.7,201.1,319.8,162c326.1-132.9,28.5-436.5,45.8-629.2c9.2-102.7,47.8-583.2,58.3-685.2
				c22-212.8-296.8-128.4-310.2-195.9C-796.7,175.3-686.1,88.1-824.4,77.4z"/>
		</g>
		<g>
			
				<linearGradient id="SVGID_2_" gradientUnits="userSpaceOnUse" x1="6280.502" y1="-3402.4077" x2="7964.3701" y2="-3402.4077" gradientTransform="matrix(1.320000e-02 0.9999 0.9999 -1.320000e-02 2374.5579 -6233.9658)">
				<stop  offset="5.586592e-03" style="stop-color:#E5147D"/>
				<stop  offset="0.3939" style="stop-color:#F18B04"/>
				<stop  offset="0.6229" style="stop-color:#684287"/>
				<stop  offset="0.7123" style="stop-color:#4E378C"/>
				<stop  offset="0.7475" style="stop-color:#4D388D"/>
				<stop  offset="0.7761" style="stop-color:#4B3F91"/>
				<stop  offset="0.8023" style="stop-color:#474998"/>
				<stop  offset="0.8271" style="stop-color:#3E58A3"/>
				<stop  offset="0.8507" style="stop-color:#2D69B0"/>
				<stop  offset="0.8652" style="stop-color:#1376BB"/>
				<stop  offset="0.9944" style="stop-color:#005D98"/>
			</linearGradient>
			<path class="st1" d="M-821.2,110.4c-182.7-13.1-210.5-19-246.9-13c-31.5,5.1-314.1,133.5-345.2,360
				c-36.1,262.7-45.7,549-25.7,658.4c17.8,97.1,24.5,254.4,30.3,301.8c7.7,62.4,20.2,163.5,59.2,207.5c27.4,30.9,38.8-3.3,79.6,20.8
				c68.1,40.3,75.2,132.5,113,128.8c54.8-5.4,71.2-201.9,119.3-195.4c35.3,4.8,45.2,114.7,79.4,110.1c28.4-3.7,47.7-78.1,60.7-129.5
				c28.1-111.1,230.6,193.4,329.7,155.7c336.2-127.8,29.3-419.7,47.2-605c9.5-98.8,49.2-560.8,60.1-658.9
				c22.6-204.6-306-123.5-319.7-188.4C-792.6,204.5-678.6,120.6-821.2,110.4z"/>
		</g>
		<g>
			
				<linearGradient id="SVGID_3_" gradientUnits="userSpaceOnUse" x1="6312.7524" y1="-3402.2563" x2="7931.9844" y2="-3402.2563" gradientTransform="matrix(1.320000e-02 0.9999 0.9999 -1.320000e-02 2374.5579 -6233.9658)">
				<stop  offset="5.586592e-03" style="stop-color:#E5147D"/>
				<stop  offset="0.3939" style="stop-color:#F18B04"/>
				<stop  offset="0.6229" style="stop-color:#684287"/>
				<stop  offset="0.7123" style="stop-color:#4E378C"/>
				<stop  offset="0.7475" style="stop-color:#4D388D"/>
				<stop  offset="0.7761" style="stop-color:#4B3F91"/>
				<stop  offset="0.8023" style="stop-color:#474998"/>
				<stop  offset="0.8271" style="stop-color:#3E58A3"/>
				<stop  offset="0.8507" style="stop-color:#2D69B0"/>
				<stop  offset="0.8652" style="stop-color:#1376BB"/>
				<stop  offset="0.9944" style="stop-color:#005D98"/>
			</linearGradient>
			<path class="st2" d="M-817.8,142.1c-188.3-12.6-217-18.2-254.5-12.5c-32.5,4.9-323.8,128.4-355.9,346.1
				c-37.2,252.6-47.1,527.8-26.5,633c18.3,93.4,25.2,244.7,31.3,290.2c8,60,20.8,157.2,61.1,199.6c28.3,29.7,40-3.2,82.1,20
				c70.2,38.7,77.5,127.4,116.5,123.8c56.5-5.2,73.4-194.1,122.9-187.9c36.4,4.6,46.6,110.2,81.8,105.9
				c29.3-3.6,49.2-75.1,62.6-124.5c29-106.8,237.8,185.9,339.9,149.7c346.6-122.9,30.2-403.6,48.7-581.7
				c9.8-95,50.8-539.2,61.9-633.5c23.3-196.8-315.4-118.7-329.6-181.2C-788.4,232.6-670.9,152-817.8,142.1z"/>
		</g>
		<g>
			
				<linearGradient id="SVGID_4_" gradientUnits="userSpaceOnUse" x1="6343.7588" y1="-3402.1062" x2="7900.8359" y2="-3402.1062" gradientTransform="matrix(1.320000e-02 0.9999 0.9999 -1.320000e-02 2374.5579 -6233.9658)">
				<stop  offset="5.586592e-03" style="stop-color:#E5147D"/>
				<stop  offset="0.3939" style="stop-color:#F18B04"/>
				<stop  offset="0.6229" style="stop-color:#684287"/>
				<stop  offset="0.7123" style="stop-color:#4E378C"/>
				<stop  offset="0.7475" style="stop-color:#4D388D"/>
				<stop  offset="0.7761" style="stop-color:#4B3F91"/>
				<stop  offset="0.8023" style="stop-color:#474998"/>
				<stop  offset="0.8271" style="stop-color:#3E58A3"/>
				<stop  offset="0.8507" style="stop-color:#2D69B0"/>
				<stop  offset="0.8652" style="stop-color:#1376BB"/>
				<stop  offset="0.9944" style="stop-color:#005D98"/>
			</linearGradient>
			<path class="st3" d="M-814.4,172.6c-194.1-12.1-223.7-17.5-262.4-12c-33.5,4.7-333.9,123.4-366.9,332.8
				c-38.4,242.9-48.6,507.5-27.3,608.7c18.9,89.8,26,235.3,32.2,279c8.2,57.7,21.5,151.2,63,191.9c29.1,28.6,41.2-3.1,84.6,19.2
				c72.4,37.2,79.9,122.5,120.2,119.1c58.3-5,75.6-186.6,126.7-180.7c37.6,4.4,48,106,84.3,101.8c30.2-3.5,50.7-72.2,64.5-119.7
				c29.9-102.7,245.1,178.8,350.4,144c357.3-118.1,31.2-388,50.2-559.4c10.1-91.3,52.3-518.5,63.9-609.2
				c24.1-189.2-325.2-114.2-339.8-174.2C-784.1,259.6-662.9,182.1-814.4,172.6z"/>
		</g>
		<g>
			
				<linearGradient id="SVGID_5_" gradientUnits="userSpaceOnUse" x1="6373.5688" y1="-3401.949" x2="7870.875" y2="-3401.949" gradientTransform="matrix(1.320000e-02 0.9999 0.9999 -1.320000e-02 2374.5579 -6233.9658)">
				<stop  offset="5.586592e-03" style="stop-color:#E5147D"/>
				<stop  offset="0.3939" style="stop-color:#F18B04"/>
				<stop  offset="0.6229" style="stop-color:#684287"/>
				<stop  offset="0.7123" style="stop-color:#4E378C"/>
				<stop  offset="0.7475" style="stop-color:#4D388D"/>
				<stop  offset="0.7761" style="stop-color:#4B3F91"/>
				<stop  offset="0.8023" style="stop-color:#474998"/>
				<stop  offset="0.8271" style="stop-color:#3E58A3"/>
				<stop  offset="0.8507" style="stop-color:#2D69B0"/>
				<stop  offset="0.8652" style="stop-color:#1376BB"/>
				<stop  offset="0.9944" style="stop-color:#005D98"/>
			</linearGradient>
			<path class="st4" d="M-810.8,201.9c-200.1-11.6-230.6-16.9-270.5-11.6c-34.5,4.6-344.2,118.7-378.3,320
				c-39.5,233.6-50.1,488-28.2,585.3c19.5,86.4,26.8,226.2,33.2,268.3c8.4,55.5,22.1,145.4,64.9,184.5c30,27.5,42.5-3,87.2,18.5
				c74.6,35.8,82.4,117.8,123.9,114.5c60-4.8,78-179.4,130.7-173.7c38.7,4.2,49.5,101.9,87,97.9c31.1-3.3,52.3-69.4,66.5-115.1
				c30.8-98.8,252.7,171.9,361.3,138.4c368.4-113.6,32.1-373.1,51.7-537.8c10.4-87.8,53.9-498.5,65.8-585.8
				c24.8-181.9-335.2-109.8-350.3-167.5C-779.6,285.6-654.6,211-810.8,201.9z"/>
		</g>
		<g>
			
				<linearGradient id="SVGID_6_" gradientUnits="userSpaceOnUse" x1="6402.2329" y1="-3401.7993" x2="7842.0708" y2="-3401.7993" gradientTransform="matrix(1.320000e-02 0.9999 0.9999 -1.320000e-02 2374.5579 -6233.9658)">
				<stop  offset="5.586592e-03" style="stop-color:#E5147D"/>
				<stop  offset="0.3939" style="stop-color:#F18B04"/>
				<stop  offset="0.6229" style="stop-color:#684287"/>
				<stop  offset="0.7123" style="stop-color:#4E378C"/>
				<stop  offset="0.7475" style="stop-color:#4D388D"/>
				<stop  offset="0.7761" style="stop-color:#4B3F91"/>
				<stop  offset="0.8023" style="stop-color:#474998"/>
				<stop  offset="0.8271" style="stop-color:#3E58A3"/>
				<stop  offset="0.8507" style="stop-color:#2D69B0"/>
				<stop  offset="0.8652" style="stop-color:#1376BB"/>
				<stop  offset="0.9944" style="stop-color:#005D98"/>
			</linearGradient>
			<path class="st5" d="M-807.2,230.1c-206.3-11.2-237.7-16.2-278.9-11.1c-35.6,4.4-354.8,114.1-390,307.7
				c-40.8,224.6-51.7,469.3-29,562.8c20.1,83,27.7,217.5,34.3,257.9c8.7,53.3,22.8,139.8,66.9,177.4c31,26.4,43.8-2.9,89.9,17.8
				c76.9,34.4,84.9,113.3,127.7,110.1c61.9-4.6,80.4-172.6,134.7-167c39.9,4.1,51,98,89.7,94.2c32-3.2,53.9-66.8,68.6-110.7
				c31.7-95,260.5,165.3,372.4,133.1c379.8-109.2,33.1-358.8,53.3-517.2c10.8-84.4,55.6-479.3,67.9-563.2
				c25.6-174.9-345.6-105.5-361.2-161C-774.9,310.5-646.1,238.9-807.2,230.1z"/>
		</g>
		<g>
			
				<linearGradient id="SVGID_7_" gradientUnits="userSpaceOnUse" x1="6429.791" y1="-3401.6716" x2="7814.3433" y2="-3401.6716" gradientTransform="matrix(1.320000e-02 0.9999 0.9999 -1.320000e-02 2374.5579 -6233.9658)">
				<stop  offset="5.586592e-03" style="stop-color:#E5147D"/>
				<stop  offset="0.3939" style="stop-color:#F18B04"/>
				<stop  offset="0.6229" style="stop-color:#684287"/>
				<stop  offset="0.7123" style="stop-color:#4E378C"/>
				<stop  offset="0.7475" style="stop-color:#4D388D"/>
				<stop  offset="0.7761" style="stop-color:#4B3F91"/>
				<stop  offset="0.8023" style="stop-color:#474998"/>
				<stop  offset="0.8271" style="stop-color:#3E58A3"/>
				<stop  offset="0.8507" style="stop-color:#2D69B0"/>
				<stop  offset="0.8652" style="stop-color:#1376BB"/>
				<stop  offset="0.9944" style="stop-color:#005D98"/>
			</linearGradient>
			<path class="st6" d="M-803.4,257.2c-212.7-10.8-245.1-15.6-287.5-10.7c-36.7,4.2-365.8,109.7-402,295.9
				c-42,215.9-53.3,451.2-29.9,541.1c20.7,79.8,28.5,209.1,35.3,248c9,51.3,23.5,134.4,69,170.6c31.9,25.4,45.2-2.8,92.7,17.1
				c79.3,33.1,87.6,108.9,131.6,105.8c63.8-4.4,82.9-165.9,138.9-160.6c41.2,3.9,52.6,94.2,92.4,90.5c33-3.1,55.6-64.2,70.7-106.4
				c32.7-91.3,268.6,158.9,384,128c391.5-105,34.2-345,55-497.3c11.1-81.2,57.3-460.9,70-541.6c26.4-168.2-356.3-101.5-372.3-154.9
				C-770.2,334.5-637.4,265.6-803.4,257.2z"/>
		</g>
		<g>
			
				<linearGradient id="SVGID_8_" gradientUnits="userSpaceOnUse" x1="6456.2793" y1="-3401.5376" x2="7787.7036" y2="-3401.5376" gradientTransform="matrix(1.320000e-02 0.9999 0.9999 -1.320000e-02 2374.5579 -6233.9658)">
				<stop  offset="5.586592e-03" style="stop-color:#E5147D"/>
				<stop  offset="0.3939" style="stop-color:#F18B04"/>
				<stop  offset="0.6229" style="stop-color:#684287"/>
				<stop  offset="0.7123" style="stop-color:#4E378C"/>
				<stop  offset="0.7475" style="stop-color:#4D388D"/>
				<stop  offset="0.7761" style="stop-color:#4B3F91"/>
				<stop  offset="0.8023" style="stop-color:#474998"/>
				<stop  offset="0.8271" style="stop-color:#3E58A3"/>
				<stop  offset="0.8507" style="stop-color:#2D69B0"/>
				<stop  offset="0.8652" style="stop-color:#1376BB"/>
				<stop  offset="0.9944" style="stop-color:#005D98"/>
			</linearGradient>
			<path class="st7" d="M-799.5,283.3c-219.3-10.4-252.6-15-296.4-10.3c-37.8,4-377.1,105.5-414.5,284.5
				c-43.3,207.7-54.9,433.8-30.9,520.3c21.4,76.8,29.4,201.1,36.4,238.5c9.3,49.3,24.3,129.2,71.1,164c32.9,24.4,46.6-2.6,95.6,16.4
				c81.8,31.8,90.3,104.7,135.7,101.8c65.8-4.3,85.4-159.5,143.2-154.4c42.4,3.8,54.2,90.6,95.3,87.1c34.1-3,57.3-61.7,72.9-102.3
				c33.7-87.8,276.9,152.8,395.8,123.1c403.6-101,35.2-331.7,56.7-478.1c11.4-78,59.1-443.2,72.1-520.7
				c27.2-161.7-367.3-97.6-383.9-148.9C-765.2,357.6-628.3,291.4-799.5,283.3z"/>
		</g>
		<g>
			
				<linearGradient id="SVGID_9_" gradientUnits="userSpaceOnUse" x1="6481.7456" y1="-3401.4199" x2="7762.0596" y2="-3401.4199" gradientTransform="matrix(1.320000e-02 0.9999 0.9999 -1.320000e-02 2374.5579 -6233.9658)">
				<stop  offset="5.586592e-03" style="stop-color:#E5147D"/>
				<stop  offset="0.3939" style="stop-color:#F18B04"/>
				<stop  offset="0.6229" style="stop-color:#684287"/>
				<stop  offset="0.7123" style="stop-color:#4E378C"/>
				<stop  offset="0.7475" style="stop-color:#4D388D"/>
				<stop  offset="0.7761" style="stop-color:#4B3F91"/>
				<stop  offset="0.8023" style="stop-color:#474998"/>
				<stop  offset="0.8271" style="stop-color:#3E58A3"/>
				<stop  offset="0.8507" style="stop-color:#2D69B0"/>
				<stop  offset="0.8652" style="stop-color:#1376BB"/>
				<stop  offset="0.9944" style="stop-color:#005D98"/>
			</linearGradient>
			<path class="st8" d="M-795.5,308.4c-226.1-10-260.5-14.4-305.6-9.9c-39,3.9-388.8,101.5-427.3,273.5
				c-44.7,199.7-56.6,417.2-31.8,500.3c22,73.8,30.3,193.4,37.5,229.3c9.5,47.4,25,124.3,73.3,157.7c33.9,23.5,48-2.5,98.5,15.8
				c84.3,30.6,93.1,100.7,139.9,97.8c67.8-4.1,88.1-153.4,147.6-148.5c43.7,3.6,55.9,87.1,98.2,83.7c35.1-2.8,59.1-59.3,75.2-98.4
				c34.8-84.4,285.5,146.9,408.1,118.3c416.1-97.1,36.3-318.9,58.4-459.8c11.8-75,60.9-426.1,74.4-500.7
				c28-155.5-378.7-93.8-395.7-143.2C-760.2,379.8-619,316.1-795.5,308.4z"/>
		</g>
		<g>
			
				<linearGradient id="SVGID_10_" gradientUnits="userSpaceOnUse" x1="6506.2354" y1="-3401.29" x2="7737.4126" y2="-3401.29" gradientTransform="matrix(1.320000e-02 0.9999 0.9999 -1.320000e-02 2374.5579 -6233.9658)">
				<stop  offset="5.586592e-03" style="stop-color:#E5147D"/>
				<stop  offset="0.3939" style="stop-color:#F18B04"/>
				<stop  offset="0.6229" style="stop-color:#684287"/>
				<stop  offset="0.7123" style="stop-color:#4E378C"/>
				<stop  offset="0.7475" style="stop-color:#4D388D"/>
				<stop  offset="0.7761" style="stop-color:#4B3F91"/>
				<stop  offset="0.8023" style="stop-color:#474998"/>
				<stop  offset="0.8271" style="stop-color:#3E58A3"/>
				<stop  offset="0.8507" style="stop-color:#2D69B0"/>
				<stop  offset="0.8652" style="stop-color:#1376BB"/>
				<stop  offset="0.9944" style="stop-color:#005D98"/>
			</linearGradient>
			<path class="st9" d="M-791.3,332.5c-233.1-9.6-268.5-13.9-315-9.5c-40.2,3.8-400.8,97.6-440.5,263
				c-46.1,192-58.3,401.1-32.8,481.1c22.7,71,31.2,185.9,38.7,220.5c9.8,45.6,25.8,119.5,75.6,151.6c35,22.6,49.5-2.4,101.6,15.2
				c86.9,29.4,95.9,96.8,144.2,94.1c69.9-4,90.8-147.5,152.2-142.8c45.1,3.5,57.6,83.8,101.3,80.5c36.2-2.7,60.9-57.1,77.5-94.6
				c35.8-81.2,294.3,141.3,420.7,113.8c429-93.4,37.4-306.7,60.2-442.1c12.2-72.2,62.8-409.8,76.7-481.4
				c28.9-149.5-390.4-90.2-408-137.7C-754.9,401.2-609.4,339.9-791.3,332.5z"/>
		</g>
		<g>
			
				<linearGradient id="SVGID_11_" gradientUnits="userSpaceOnUse" x1="6529.7695" y1="-3401.1838" x2="7713.6821" y2="-3401.1838" gradientTransform="matrix(1.320000e-02 0.9999 0.9999 -1.320000e-02 2374.5579 -6233.9658)">
				<stop  offset="5.586592e-03" style="stop-color:#E5147D"/>
				<stop  offset="0.3939" style="stop-color:#F18B04"/>
				<stop  offset="0.6229" style="stop-color:#684287"/>
				<stop  offset="0.7123" style="stop-color:#4E378C"/>
				<stop  offset="0.7475" style="stop-color:#4D388D"/>
				<stop  offset="0.7761" style="stop-color:#4B3F91"/>
				<stop  offset="0.8023" style="stop-color:#474998"/>
				<stop  offset="0.8271" style="stop-color:#3E58A3"/>
				<stop  offset="0.8507" style="stop-color:#2D69B0"/>
				<stop  offset="0.8652" style="stop-color:#1376BB"/>
				<stop  offset="0.9944" style="stop-color:#005D98"/>
			</linearGradient>
			<path class="st10" d="M-787.1,355.6c-240.3-9.2-276.8-13.3-324.7-9.1c-41.5,3.6-413.2,93.8-454.1,252.9
				c-47.5,184.6-60.2,385.7-33.8,462.5c23.4,68.3,32.2,178.8,39.9,212c10.2,43.8,26.6,114.9,77.9,145.8c36.1,21.7,51-2.3,104.7,14.6
				c89.6,28.3,98.9,93.1,148.7,90.5c72.1-3.8,93.6-141.8,156.9-137.3c46.5,3.3,59.4,80.6,104.4,77.4c37.3-2.6,62.8-54.9,79.9-91
				c37-78.1,303.4,135.9,433.7,109.4c442.2-89.8,38.6-294.9,62.1-425.1c12.5-69.4,64.8-394,79-462.9
				C-282.8,451.6-715,508.6-733.1,463C-749.5,421.7-599.5,362.8-787.1,355.6z"/>
		</g>
		<g>
			
				<linearGradient id="SVGID_12_" gradientUnits="userSpaceOnUse" x1="6552.4009" y1="-3401.0601" x2="7690.8682" y2="-3401.0601" gradientTransform="matrix(1.320000e-02 0.9999 0.9999 -1.320000e-02 2374.5579 -6233.9658)">
				<stop  offset="5.586592e-03" style="stop-color:#E5147D"/>
				<stop  offset="0.3939" style="stop-color:#F18B04"/>
				<stop  offset="0.6229" style="stop-color:#684287"/>
				<stop  offset="0.7123" style="stop-color:#4E378C"/>
				<stop  offset="0.7475" style="stop-color:#4D388D"/>
				<stop  offset="0.7761" style="stop-color:#4B3F91"/>
				<stop  offset="0.8023" style="stop-color:#474998"/>
				<stop  offset="0.8271" style="stop-color:#3E58A3"/>
				<stop  offset="0.8507" style="stop-color:#2D69B0"/>
				<stop  offset="0.8652" style="stop-color:#1376BB"/>
				<stop  offset="0.9944" style="stop-color:#005D98"/>
			</linearGradient>
			<path class="st11" d="M-782.6,377.9c-247.7-8.9-285.4-12.8-334.8-8.8c-42.7,3.5-426,90.2-468.2,243.2
				c-48.9,177.5-62,370.9-34.8,444.8c24.1,65.6,33.2,171.9,41.1,203.9c10.5,42.2,27.4,110.5,80.3,140.2c37.2,20.9,52.6-2.3,107.9,14
				c92.4,27.2,102,89.5,153.3,87c74.3-3.7,96.5-136.4,161.7-132c47.9,3.2,61.2,77.5,107.6,74.4c38.5-2.5,64.7-52.8,82.3-87.5
				c38.1-75.1,312.8,130.6,447.1,105.2c455.9-86.3,39.8-283.5,64-408.7c12.9-66.7,66.8-378.8,81.5-445.1
				C-262.7,470.2-708.4,525-727,481.1C-744,441.4-589.3,384.8-782.6,377.9z"/>
		</g>
		<g>
			
				<linearGradient id="SVGID_13_" gradientUnits="userSpaceOnUse" x1="6574.1514" y1="-3400.9624" x2="7668.9302" y2="-3400.9624" gradientTransform="matrix(1.320000e-02 0.9999 0.9999 -1.320000e-02 2374.5579 -6233.9658)">
				<stop  offset="5.586592e-03" style="stop-color:#E5147D"/>
				<stop  offset="0.3939" style="stop-color:#F18B04"/>
				<stop  offset="0.6229" style="stop-color:#684287"/>
				<stop  offset="0.7123" style="stop-color:#4E378C"/>
				<stop  offset="0.7475" style="stop-color:#4D388D"/>
				<stop  offset="0.7761" style="stop-color:#4B3F91"/>
				<stop  offset="0.8023" style="stop-color:#474998"/>
				<stop  offset="0.8271" style="stop-color:#3E58A3"/>
				<stop  offset="0.8507" style="stop-color:#2D69B0"/>
				<stop  offset="0.8652" style="stop-color:#1376BB"/>
				<stop  offset="0.9944" style="stop-color:#005D98"/>
			</linearGradient>
			<path class="st12" d="M-778.1,399.3c-255.3-8.5-294.2-12.3-345.1-8.5c-44.1,3.3-439.2,86.7-482.7,233.8
				c-50.5,170.7-63.9,356.6-35.9,427.7c24.9,63.1,34.2,165.3,42.4,196c10.8,40.5,28.3,106.2,82.8,134.8
				c38.3,20.1,54.2-2.2,111.3,13.5c95.2,26.2,105.1,86.1,158,83.6c76.6-3.5,99.5-131.1,166.7-126.9c49.4,3.1,63.1,74.5,111,71.6
				c39.7-2.4,66.7-50.7,84.9-84.1c39.3-72.2,322.4,125.6,460.9,101.2c470-83,41-272.6,66-393c13.3-64.2,68.8-364.3,84-428
				c31.7-132.9-427.8-80.2-447-122.4C-738.2,460.4-578.8,406-778.1,399.3z"/>
		</g>
	</g>
</g>
<g>
	<g>
		
			<linearGradient id="SVGID_14_" gradientUnits="userSpaceOnUse" x1="3669.5496" y1="227.4794" x2="5069.6064" y2="227.4794" gradientTransform="matrix(0.9192 -0.3938 0.3938 0.9192 -1129.9971 1766.1284)">
			<stop  offset="5.586592e-03" style="stop-color:#E50C7C"/>
			<stop  offset="0.3939" style="stop-color:#F18B00"/>
			<stop  offset="0.6229" style="stop-color:#674185"/>
			<stop  offset="0.7123" style="stop-color:#4E368B"/>
			<stop  offset="0.7553" style="stop-color:#4B398D"/>
			<stop  offset="0.79" style="stop-color:#414294"/>
			<stop  offset="0.822" style="stop-color:#3052A0"/>
			<stop  offset="0.852" style="stop-color:#1869B1"/>
			<stop  offset="0.8652" style="stop-color:#0B75BA"/>
			<stop  offset="0.9944" style="stop-color:#005C97"/>
		</linearGradient>
		<path class="st13" d="M2571.4-59.4c-21.6,35-155.1,61.7-162.2,96.3c-8.8,42.6,43.8,349.5,61.1,385.8
			c21.3,44.9,120.9-247.7,133.7-200.8c6.6,24,1.7,35,5.6,74.6c7.7,78.5,31.9,87,47.8,160c13.8,63.2,0,76.3,11.1,173.7
			c2.7,23.6-142.7,388.5-117.7,399.3c17,7.4,278.5,23.9,384.4-1.6c122.8-29.6,245.6-123.3,283.8-208.1
			c33.9-75.3,264.2,303.1,281.7,272.2c23.1-40.7-106.6-561.4-102.7-659.6c2.7-69-15.8-78.9-20.8-172.9
			c-8.4-156.9,141.9-289.8,126.3-366.6c-22.5-111.2-224.9,14.5-240-87.5c-11.1-75,31-138.9,16.5-207.9
			c-12.1-57.2-50.2-67.8-76.4-74.2c-56.7-14,168.4-334.8,73.8-280.4c-186.6,107.3-186.8-100.6-270.6-64
			c-44.7,19.5-268,146.8-312.9,163.3c-93.6,34.4-51.8,398.8-73.8,453.1C2600.1-155.7,2601.6-108.2,2571.4-59.4z"/>
	</g>
	<g>
		
			<linearGradient id="SVGID_15_" gradientUnits="userSpaceOnUse" x1="3671.4902" y1="231.0043" x2="5065.8384" y2="231.0043" gradientTransform="matrix(0.9192 -0.3938 0.3938 0.9192 -1129.9971 1766.1284)">
			<stop  offset="5.586592e-03" style="stop-color:#E50C7C"/>
			<stop  offset="0.3939" style="stop-color:#F18B00"/>
			<stop  offset="0.6229" style="stop-color:#674185"/>
			<stop  offset="0.7123" style="stop-color:#4E368B"/>
			<stop  offset="0.7553" style="stop-color:#4B398D"/>
			<stop  offset="0.79" style="stop-color:#414294"/>
			<stop  offset="0.822" style="stop-color:#3052A0"/>
			<stop  offset="0.852" style="stop-color:#1869B1"/>
			<stop  offset="0.8652" style="stop-color:#0B75BA"/>
			<stop  offset="0.9944" style="stop-color:#005C97"/>
		</linearGradient>
		<path class="st14" d="M2559.5-51.9c-22.3,33.6-159.9,59.3-167.2,92.6c-9,41,45.2,336.1,62.9,371
			c21.9,43.2,124.7-238.1,137.9-193.1c6.8,23,1.7,33.6,5.7,71.8c7.9,75.5,32.8,83.6,49.3,153.8c14.2,60.7,0,73.4,11.4,167
			c2.8,22.7-147.1,373.5-121.4,384c17.5,7.1,287.1,23,396.3-1.5c126.6-28.5,253.2-118.5,292.6-200.1
			c34.9-72.4,272.3,291.4,290.4,261.7c23.9-39.2-109.9-539.8-105.9-634.3c2.8-66.3-16.2-75.9-21.5-166.3
			c-8.7-150.9,146.2-278.7,130.2-352.5c-23.2-107-231.9,14-247.4-84.1c-11.4-72.1,32-133.6,17-199.9c-12.4-55-51.8-65.1-78.8-71.4
			c-58.4-13.5,173.7-321.9,76-269.6c-192.4,103.1-192.6-96.7-279-61.6c-46,18.7-276.3,141.2-322.6,157
			c-96.5,33-53.4,383.5-76.1,435.7C2589-144.6,2590.7-98.9,2559.5-51.9z"/>
	</g>
	<g>
		
			<linearGradient id="SVGID_16_" gradientUnits="userSpaceOnUse" x1="3672.5479" y1="234.5655" x2="5062.8979" y2="234.5655" gradientTransform="matrix(0.9192 -0.3938 0.3938 0.9192 -1129.9971 1766.1284)">
			<stop  offset="5.586592e-03" style="stop-color:#E50C7C"/>
			<stop  offset="0.3939" style="stop-color:#F18B00"/>
			<stop  offset="0.6229" style="stop-color:#674185"/>
			<stop  offset="0.7123" style="stop-color:#4E368B"/>
			<stop  offset="0.7553" style="stop-color:#4B398D"/>
			<stop  offset="0.79" style="stop-color:#414294"/>
			<stop  offset="0.822" style="stop-color:#3052A0"/>
			<stop  offset="0.852" style="stop-color:#1869B1"/>
			<stop  offset="0.8652" style="stop-color:#0B75BA"/>
			<stop  offset="0.9944" style="stop-color:#005C97"/>
		</linearGradient>
		<path class="st15" d="M2547.3-44.8c-23,32.3-164.8,57-172.4,89c-9.3,39.4,46.6,323.1,64.9,356.7c22.6,41.5,128.5-229,142.1-185.7
			c7,22.2,1.8,32.3,5.9,69c8.2,72.6,33.9,80.4,50.8,147.9c14.7,58.4,0,70.6,11.8,160.6c2.9,21.8-151.6,359.2-125.1,369.2
			c18.1,6.8,296,22.1,408.5-1.5c130.5-27.4,261-114,301.6-192.4c36-69.7,280.7,280.2,299.4,251.6c24.6-37.7-113.3-519.1-109.1-609.9
			c2.9-63.8-16.7-73-22.1-159.9c-9-145.1,150.8-267.9,134.2-339c-24-102.8-239,13.4-255.1-80.9c-11.8-69.3,33-128.5,17.5-192.2
			c-12.8-52.9-53.4-62.6-81.2-68.6c-60.3-13,179-309.5,78.4-259.2c-198.4,99.2-198.5-93-287.6-59.2c-47.5,18-284.9,135.8-332.6,151
			c-99.5,31.8-55.1,368.8-78.4,418.9C2577.7-133.9,2579.3-89.9,2547.3-44.8z"/>
	</g>
	<g>
		
			<linearGradient id="SVGID_17_" gradientUnits="userSpaceOnUse" x1="3672.7314" y1="237.4898" x2="5060.7734" y2="237.4898" gradientTransform="matrix(0.9192 -0.3938 0.3938 0.9192 -1129.9971 1766.1284)">
			<stop  offset="5.586592e-03" style="stop-color:#E50C7C"/>
			<stop  offset="0.3939" style="stop-color:#F18B00"/>
			<stop  offset="0.6229" style="stop-color:#674185"/>
			<stop  offset="0.7123" style="stop-color:#4E368B"/>
			<stop  offset="0.7553" style="stop-color:#4B398D"/>
			<stop  offset="0.79" style="stop-color:#414294"/>
			<stop  offset="0.822" style="stop-color:#3052A0"/>
			<stop  offset="0.852" style="stop-color:#1869B1"/>
			<stop  offset="0.8652" style="stop-color:#0B75BA"/>
			<stop  offset="0.9944" style="stop-color:#005C97"/>
		</linearGradient>
		<path class="st16" d="M2534.6-37.9c-23.7,31.1-169.9,54.9-177.7,85.6c-9.6,37.9,48,310.7,66.9,343
			c23.3,39.9,132.5-220.2,146.5-178.5c7.2,21.3,1.8,31.1,6.1,66.3c8.4,69.8,34.9,77.3,52.4,142.2c15.1,56.1,0,67.8,12.2,154.4
			c3,21-156.3,345.4-129,355c18.6,6.6,305.2,21.3,421.2-1.4c134.6-26.3,269.1-109.6,310.9-185c37.1-67,289.4,269.4,308.7,242
			c25.4-36.2-116.8-499.1-112.5-586.4c3-61.3-17.3-70.2-22.8-153.7c-9.3-139.5,155.4-257.6,138.4-325.9
			c-24.7-98.9-246.4,12.9-263-77.8c-12.2-66.7,34-123.5,18.1-184.8c-13.2-50.9-55-60.2-83.7-66c-62.1-12.5,184.6-297.6,80.8-249.2
			c-204.5,95.4-204.7-89.4-296.5-56.9c-48.9,17.3-293.7,130.5-342.9,145.2c-102.6,30.6-56.8,354.6-80.9,402.8
			C2566-123.5,2567.7-81.3,2534.6-37.9z"/>
	</g>
	<g>
		
			<linearGradient id="SVGID_18_" gradientUnits="userSpaceOnUse" x1="3672.0488" y1="236.6504" x2="5059.4561" y2="236.6504" gradientTransform="matrix(0.9192 -0.3938 0.3938 0.9192 -1129.9971 1766.1284)">
			<stop  offset="5.586592e-03" style="stop-color:#E50C7C"/>
			<stop  offset="0.3939" style="stop-color:#F18B00"/>
			<stop  offset="0.6229" style="stop-color:#674185"/>
			<stop  offset="0.7123" style="stop-color:#4E368B"/>
			<stop  offset="0.7553" style="stop-color:#4B398D"/>
			<stop  offset="0.79" style="stop-color:#414294"/>
			<stop  offset="0.822" style="stop-color:#3052A0"/>
			<stop  offset="0.852" style="stop-color:#1869B1"/>
			<stop  offset="0.8652" style="stop-color:#0B75BA"/>
			<stop  offset="0.9944" style="stop-color:#005C97"/>
		</linearGradient>
		<path class="st17" d="M2521.6-31.3c-24.4,29.9-175.2,52.7-183.2,82.3c-9.9,36.4,49.5,298.7,69,329.8
			c24,38.4,136.6-211.7,151.1-171.7c7.4,20.5,1.9,29.9,6.3,63.8c8.7,67.1,36,74.3,54,136.8c15.6,54,0,65.2,12.5,148.4
			c3,20.2-161.2,332.1-133,341.4c19.2,6.3,314.6,20.4,434.2-1.4c138.7-25.3,277.4-105.4,320.6-177.9
			c38.3-64.4,298.4,259,318.2,232.7c26.1-34.8-120.4-479.9-116-563.9c3.1-59-17.8-67.5-23.5-147.8
			c-9.5-134.1,160.2-247.7,142.6-313.4c-25.5-95.1-254.1,12.4-271.1-74.8c-12.5-64.1,35.1-118.8,18.6-177.7
			c-13.6-48.9-56.7-57.9-86.3-63.5c-64-12,190.3-286.2,83.3-239.7c-210.8,91.7-211-86-305.7-54.7
			c-50.5,16.7-302.8,125.5-353.5,139.6c-105.8,29.4-58.6,340.9-83.4,387.3C2553.9-113.6,2555.7-73,2521.6-31.3z"/>
	</g>
	<g>
		
			<linearGradient id="SVGID_19_" gradientUnits="userSpaceOnUse" x1="3670.5068" y1="235.9536" x2="5065.9336" y2="235.9536" gradientTransform="matrix(0.9192 -0.3938 0.3938 0.9192 -1129.9971 1766.1284)">
			<stop  offset="5.586592e-03" style="stop-color:#E50C7C"/>
			<stop  offset="0.3939" style="stop-color:#F18B00"/>
			<stop  offset="0.6229" style="stop-color:#674185"/>
			<stop  offset="0.7123" style="stop-color:#4E368B"/>
			<stop  offset="0.7553" style="stop-color:#4B398D"/>
			<stop  offset="0.79" style="stop-color:#414294"/>
			<stop  offset="0.822" style="stop-color:#3052A0"/>
			<stop  offset="0.852" style="stop-color:#1869B1"/>
			<stop  offset="0.8652" style="stop-color:#0B75BA"/>
			<stop  offset="0.9944" style="stop-color:#005C97"/>
		</linearGradient>
		<path class="st18" d="M2508.1-24.9c-25.2,28.7-180.6,50.7-188.9,79.1c-10.2,35,51,287.3,71.1,317.1
			c24.8,36.9,140.8-203.6,155.7-165.1c7.6,19.7,2,28.7,6.5,61.3c8.9,64.5,37.1,71.5,55.7,131.5c16.1,51.9,0,62.7,12.9,142.7
			c3.1,19.4-166.1,319.3-137.1,328.2c19.8,6.1,324.4,19.7,447.6-1.3c143-24.3,286-101.3,330.5-171.1
			c39.5-61.9,307.6,249.1,328,223.7c27-33.5-124.1-461.4-119.6-542.2c3.2-56.7-18.3-64.9-24.2-142.1
			c-9.8-129,165.2-238.2,147.1-301.3c-26.3-91.4-261.9,11.9-279.5-71.9c-12.9-61.6,36.2-114.2,19.2-170.9c-14-47-58.5-55.7-89-61
			c-66-11.5,196.2-275.2,85.9-230.4c-217.3,88.2-217.5-82.7-315.1-52.6c-52,16-312.1,120.7-364.4,134.2
			c-109,28.2-60.4,327.8-85.9,372.4C2541.4-104.1,2543.3-65.1,2508.1-24.9z"/>
	</g>
	<g>
		
			<linearGradient id="SVGID_20_" gradientUnits="userSpaceOnUse" x1="3668.1116" y1="235.3961" x2="5080.9058" y2="235.3961" gradientTransform="matrix(0.9192 -0.3938 0.3938 0.9192 -1129.9971 1766.1284)">
			<stop  offset="5.586592e-03" style="stop-color:#E50C7C"/>
			<stop  offset="0.3939" style="stop-color:#F18B00"/>
			<stop  offset="0.6229" style="stop-color:#674185"/>
			<stop  offset="0.7123" style="stop-color:#4E368B"/>
			<stop  offset="0.7553" style="stop-color:#4B398D"/>
			<stop  offset="0.79" style="stop-color:#414294"/>
			<stop  offset="0.822" style="stop-color:#3052A0"/>
			<stop  offset="0.852" style="stop-color:#1869B1"/>
			<stop  offset="0.8652" style="stop-color:#0B75BA"/>
			<stop  offset="0.9944" style="stop-color:#005C97"/>
		</linearGradient>
		<path class="st19" d="M2494.2-18.8c-25.9,27.6-186.2,48.8-194.7,76.1c-10.5,33.7,52.6,276.2,73.3,304.9
			c25.6,35.5,145.2-195.7,160.6-158.7c7.9,18.9,2,27.6,6.7,59c9.2,62,38.2,68.7,57.4,126.5c16.6,49.9,0,60.3,13.3,137.2
			c3.2,18.7-171.3,307-141.3,315.6c20.4,5.8,334.4,18.9,461.5-1.3c147.4-23.4,294.9-97.4,340.7-164.5
			c40.7-59.5,317.1,239.5,338.2,215.1c27.8-32.2-127.9-443.7-123.3-521.3c3.3-54.5-18.9-62.4-25-136.7
			c-10.1-124,170.3-229,151.6-289.8c-27.1-87.9-270,11.5-288.2-69.2c-13.3-59.3,37.3-109.8,19.8-164.3
			c-14.5-45.2-60.3-53.5-91.8-58.7c-68.1-11.1,202.2-264.6,88.5-221.6c-224.1,84.8-224.2-79.5-324.9-50.6
			c-53.6,15.4-321.8,116-375.7,129.1c-112.4,27.2-62.2,315.2-88.6,358.1C2528.6-94.9,2530.5-57.4,2494.2-18.8z"/>
	</g>
	<g>
		
			<linearGradient id="SVGID_21_" gradientUnits="userSpaceOnUse" x1="3664.8672" y1="234.9748" x2="5096.5835" y2="234.9748" gradientTransform="matrix(0.9192 -0.3938 0.3938 0.9192 -1129.9971 1766.1284)">
			<stop  offset="5.586592e-03" style="stop-color:#E50C7C"/>
			<stop  offset="0.3939" style="stop-color:#F18B00"/>
			<stop  offset="0.6229" style="stop-color:#674185"/>
			<stop  offset="0.7123" style="stop-color:#4E368B"/>
			<stop  offset="0.7553" style="stop-color:#4B398D"/>
			<stop  offset="0.79" style="stop-color:#414294"/>
			<stop  offset="0.822" style="stop-color:#3052A0"/>
			<stop  offset="0.852" style="stop-color:#1869B1"/>
			<stop  offset="0.8652" style="stop-color:#0B75BA"/>
			<stop  offset="0.9944" style="stop-color:#005C97"/>
		</linearGradient>
		<path class="st20" d="M2480-12.9c-26.7,26.6-192,46.9-200.8,73.2c-10.9,32.4,54.2,265.6,75.6,293.2
			c26.3,34.1,149.7-188.2,165.5-152.6c8.1,18.2,2.1,26.6,6.9,56.7c9.5,59.6,39.4,66.1,59.2,121.6c17.1,48,0,58,13.7,132
			c3.3,17.9-176.6,295.2-145.7,303.5c21.1,5.6,344.7,18.2,475.7-1.2c152-22.5,304-93.7,351.2-158.2
			c41.9-57.3,326.9,230.3,348.6,206.8c28.6-31-131.9-426.6-127.1-501.3c3.4-52.4-19.5-60-25.8-131.4
			c-10.5-119.2,175.6-220.2,156.3-278.6c-27.9-84.5-278.4,11-297.1-66.5c-13.7-57,38.4-105.6,20.4-158
			c-14.9-43.5-62.1-51.5-94.6-56.4c-70.2-10.7,208.5-254.4,91.3-213.1c-231,81.5-231.2-76.5-334.9-48.7
			c-55.3,14.8-331.7,111.6-387.3,124.1c-115.9,26.1-64.2,303.1-91.3,344.3C2515.4-86.1,2517.3-50,2480-12.9z"/>
	</g>
	<g>
		
			<linearGradient id="SVGID_22_" gradientUnits="userSpaceOnUse" x1="3660.7778" y1="234.6867" x2="5112.9775" y2="234.6867" gradientTransform="matrix(0.9192 -0.3938 0.3938 0.9192 -1129.9971 1766.1284)">
			<stop  offset="5.586592e-03" style="stop-color:#E50C7C"/>
			<stop  offset="0.3939" style="stop-color:#F18B00"/>
			<stop  offset="0.6229" style="stop-color:#674185"/>
			<stop  offset="0.7123" style="stop-color:#4E368B"/>
			<stop  offset="0.7553" style="stop-color:#4B398D"/>
			<stop  offset="0.79" style="stop-color:#414294"/>
			<stop  offset="0.822" style="stop-color:#3052A0"/>
			<stop  offset="0.852" style="stop-color:#1869B1"/>
			<stop  offset="0.8652" style="stop-color:#0B75BA"/>
			<stop  offset="0.9944" style="stop-color:#005C97"/>
		</linearGradient>
		<path class="st21" d="M2465.2-7.3c-27.6,25.5-197.9,45.1-207,70.3c-11.2,31.2,55.9,255.4,77.9,281.9
			c27.2,32.8,154.3-181,170.6-146.7c8.4,17.5,2.1,25.6,7.1,54.5c9.8,57.3,40.6,63.5,61,116.9c17.6,46.1,0,55.8,14.2,126.9
			c3.4,17.3-182,283.9-150.2,291.8c21.7,5.4,355.4,17.5,490.5-1.2c156.7-21.6,313.4-90.1,362.1-152.1
			c43.2-55.1,337,221.4,359.4,198.9c29.5-29.8-136-410.2-131-482c3.5-50.4-20.1-57.7-26.6-126.3c-10.8-114.7,181-211.8,161.1-267.9
			c-28.8-81.3-287,10.6-306.3-63.9c-14.2-54.8,39.6-101.5,21.1-151.9c-15.4-41.8-64.1-49.5-97.5-54.2
			c-72.3-10.2,214.9-244.6,94.1-204.9c-238.1,78.4-238.3-73.5-345.3-46.8c-57,14.2-342,107.3-399.3,119.3
			c-119.5,25.1-66.1,291.4-94.2,331.1C2501.7-77.7,2503.7-43,2465.2-7.3z"/>
	</g>
	<g>
		
			<linearGradient id="SVGID_23_" gradientUnits="userSpaceOnUse" x1="3655.8459" y1="234.529" x2="5130.0991" y2="234.529" gradientTransform="matrix(0.9192 -0.3938 0.3938 0.9192 -1129.9971 1766.1284)">
			<stop  offset="5.586592e-03" style="stop-color:#E50C7C"/>
			<stop  offset="0.3939" style="stop-color:#F18B00"/>
			<stop  offset="0.6229" style="stop-color:#674185"/>
			<stop  offset="0.7123" style="stop-color:#4E368B"/>
			<stop  offset="0.7553" style="stop-color:#4B398D"/>
			<stop  offset="0.79" style="stop-color:#414294"/>
			<stop  offset="0.822" style="stop-color:#3052A0"/>
			<stop  offset="0.852" style="stop-color:#1869B1"/>
			<stop  offset="0.8652" style="stop-color:#0B75BA"/>
			<stop  offset="0.9944" style="stop-color:#005C97"/>
		</linearGradient>
		<path class="st22" d="M2450-1.8c-28.4,24.6-204,43.4-213.4,67.6c-11.5,30,57.6,245.5,80.3,271.1c28,31.6,159.1-174,175.9-141.1
			c8.6,16.8,2.2,24.6,7.3,52.4c10.1,55.1,41.9,61.1,62.9,112.4c18.2,44.4,0,53.6,14.6,122c3.5,16.6-187.7,272.9-154.9,280.6
			c22.4,5.2,366.4,16.8,505.6-1.1c161.6-20.8,323.1-86.6,373.3-146.2c44.6-52.9,347.5,212.9,370.5,191.2
			c30.4-28.6-140.2-394.4-135.1-463.4c3.6-48.5-20.7-55.5-27.4-121.5c-11.1-110.2,186.6-203.6,166.1-257.6
			c-29.7-78.2-295.9,10.2-315.7-61.5c-14.6-52.7,40.8-97.6,21.7-146.1c-15.9-40.2-66-47.6-100.5-52.2c-74.6-9.8,221.6-235.2,97-197
			c-245.5,75.4-245.7-70.7-355.9-45c-58.8,13.7-352.6,103.2-411.6,114.7c-123.2,24.1-68.2,280.2-97.1,318.4
			C2487.7-69.5,2489.7-36.2,2450-1.8z"/>
	</g>
	<g>
		
			<linearGradient id="SVGID_24_" gradientUnits="userSpaceOnUse" x1="3650.073" y1="234.499" x2="5147.9609" y2="234.499" gradientTransform="matrix(0.9192 -0.3938 0.3938 0.9192 -1129.9971 1766.1284)">
			<stop  offset="5.586592e-03" style="stop-color:#E50C7C"/>
			<stop  offset="0.3939" style="stop-color:#F18B00"/>
			<stop  offset="0.6229" style="stop-color:#674185"/>
			<stop  offset="0.7123" style="stop-color:#4E368B"/>
			<stop  offset="0.7553" style="stop-color:#4B398D"/>
			<stop  offset="0.79" style="stop-color:#414294"/>
			<stop  offset="0.822" style="stop-color:#3052A0"/>
			<stop  offset="0.852" style="stop-color:#1869B1"/>
			<stop  offset="0.8652" style="stop-color:#0B75BA"/>
			<stop  offset="0.9944" style="stop-color:#005C97"/>
		</linearGradient>
		<path class="st23" d="M2434.4,3.4c-29.3,23.6-210.3,41.7-220,65c-11.9,28.8,59.4,236.1,82.8,260.7
			c28.9,30.3,164-167.3,181.4-135.7c8.9,16.2,2.3,23.6,7.5,50.4c10.4,53,43.2,58.8,64.8,108.1c18.7,42.7,0,51.6,15.1,117.3
			c3.7,16-193.5,262.5-159.6,269.8c23.1,5,377.7,16.2,521.3-1.1c166.6-20,333.1-83.3,384.8-140.6c46-50.9,358.2,204.7,382,183.9
			c31.4-27.5-144.5-379.3-139.3-445.6c3.7-46.6-21.4-53.3-28.2-116.8c-11.5-106,192.4-195.8,171.2-247.7
			c-30.6-75.1-305,9.8-325.5-59.1c-15.1-50.7,42.1-93.9,22.4-140.5c-16.4-38.7-68.1-45.8-103.6-50.2
			c-76.9-9.5,228.4-226.2,100-189.4c-253.1,72.5-253.3-68-367-43.3C2964-498.1,2661-412.1,2600.2-401
			c-127,23.2-70.3,269.4-100.1,306.1C2473.2-61.7,2475.3-29.6,2434.4,3.4z"/>
	</g>
	<g>
		
			<linearGradient id="SVGID_25_" gradientUnits="userSpaceOnUse" x1="3643.46" y1="234.5941" x2="5166.5757" y2="234.5941" gradientTransform="matrix(0.9192 -0.3938 0.3938 0.9192 -1129.9971 1766.1284)">
			<stop  offset="5.586592e-03" style="stop-color:#E50C7C"/>
			<stop  offset="0.3939" style="stop-color:#F18B00"/>
			<stop  offset="0.6229" style="stop-color:#674185"/>
			<stop  offset="0.7123" style="stop-color:#4E368B"/>
			<stop  offset="0.7553" style="stop-color:#4B398D"/>
			<stop  offset="0.79" style="stop-color:#414294"/>
			<stop  offset="0.822" style="stop-color:#3052A0"/>
			<stop  offset="0.852" style="stop-color:#1869B1"/>
			<stop  offset="0.8652" style="stop-color:#0B75BA"/>
			<stop  offset="0.9944" style="stop-color:#005C97"/>
		</linearGradient>
		<path class="st24" d="M2418.2,8.4C2388,31.1,2201.4,48.5,2191.5,71c-12.3,27.7,61.3,227,85.4,250.6c29.8,29.2,169-160.9,187-130.5
			c9.2,15.6,2.3,22.7,7.8,48.5c10.7,51,44.5,56.5,66.9,103.9c19.3,41,0,49.6,15.5,112.8c3.8,15.3-199.5,252.4-164.6,259.4
			c23.8,4.8,389.4,15.5,537.4-1c171.7-19.2,343.4-80.1,396.7-135.2c47.4-48.9,369.3,196.9,393.8,176.8
			c32.4-26.5-149-364.7-143.6-428.5c3.8-44.8-22-51.3-29.1-112.3c-11.8-101.9,198.3-188.2,176.5-238.2
			c-31.5-72.3-314.4,9.4-335.6-56.8c-15.5-48.7,43.4-90.3,23.1-135.1c-16.9-37.2-70.2-44-106.9-48.2
			c-79.3-9.1,235.5-217.5,103.1-182.1c-260.9,69.7-261.1-65.4-378.3-41.6c-62.4,12.7-374.7,95.4-437.5,106.1
			c-130.9,22.3-72.5,259.1-103.2,294.3C2458.2-54.2,2460.4-23.3,2418.2,8.4z"/>
	</g>
	<g>
		
			<linearGradient id="SVGID_26_" gradientUnits="userSpaceOnUse" x1="3636.0061" y1="234.8118" x2="5185.9526" y2="234.8118" gradientTransform="matrix(0.9192 -0.3938 0.3938 0.9192 -1129.9971 1766.1284)">
			<stop  offset="5.586592e-03" style="stop-color:#E50C7C"/>
			<stop  offset="0.3939" style="stop-color:#F18B00"/>
			<stop  offset="0.6229" style="stop-color:#674185"/>
			<stop  offset="0.7123" style="stop-color:#4E368B"/>
			<stop  offset="0.7553" style="stop-color:#4B398D"/>
			<stop  offset="0.79" style="stop-color:#414294"/>
			<stop  offset="0.822" style="stop-color:#3052A0"/>
			<stop  offset="0.852" style="stop-color:#1869B1"/>
			<stop  offset="0.8652" style="stop-color:#0B75BA"/>
			<stop  offset="0.9944" style="stop-color:#005C97"/>
		</linearGradient>
		<path class="st25" d="M2401.6,13.3c-31.1,21.8-223.5,38.5-233.8,60.1c-12.6,26.6,63.2,218.3,88,241
			c30.7,28.1,174.3-154.7,192.8-125.4c9.5,15,2.4,21.8,8,46.6c11.1,49,45.9,54.3,68.9,99.9c19.9,39.4,0,47.7,16,108.5
			c3.9,14.7-205.6,242.7-169.7,249.4c24.5,4.6,401.4,14.9,554-1c177-18.5,354-77,409-130c48.8-47.1,380.7,189.3,406,170
			c33.4-25.4-153.6-350.7-148-412c3.9-43.1-22.7-49.3-30-108c-12.2-98,204.4-181,182-229c-32.5-69.5-324.2,9.1-345.9-54.7
			c-16-46.8,44.7-86.8,23.8-129.9c-17.4-35.7-72.4-42.3-110.2-46.4c-81.7-8.8,242.8-209.1,106.3-175.1c-269,67-269.2-62.8-390-40
			c-64.4,12.2-386.3,91.7-451,102c-134.9,21.5-74.7,249.1-106.4,283C2442.8-46.9,2445.1-17.3,2401.6,13.3z"/>
	</g>
</g>
<g>
	<g>
		
			<linearGradient id="SVGID_27_" gradientUnits="userSpaceOnUse" x1="6105.4839" y1="1887.9954" x2="7934.8652" y2="1887.9954" gradientTransform="matrix(1.316075e-02 0.9999 -0.9999 1.316075e-02 2616.2239 -6103.9287)">
			<stop  offset="5.586592e-03" style="stop-color:#E50C7C"/>
			<stop  offset="0.3939" style="stop-color:#F18B00"/>
			<stop  offset="0.6229" style="stop-color:#674185"/>
			<stop  offset="0.7123" style="stop-color:#4E368B"/>
			<stop  offset="0.7553" style="stop-color:#4B398D"/>
			<stop  offset="0.79" style="stop-color:#414294"/>
			<stop  offset="0.822" style="stop-color:#3052A0"/>
			<stop  offset="0.852" style="stop-color:#1869B1"/>
			<stop  offset="0.8652" style="stop-color:#0B75BA"/>
			<stop  offset="0.9944" style="stop-color:#005C97"/>
		</linearGradient>
		<path class="st26" d="M920.7,154.7c-151.6-11.7-440.2-126.3-470.5-121c-26.1,4.6,5,228.2-20.8,429.7
			c-29.9,233.7-37.9,488.4-21.3,585.7c14.8,86.4,20.3,226.4,25.2,268.5c6.4,55.5,16.8,145.5,49.2,184.6
			c22.7,27.5-34.6,245.3-0.7,266.8c56.5,35.8,73,89.6,104.5,86.3c45.5-4.8,90.7-60.5,130.6-54.8c29.3,4.2,47,5.4,75.4,1.4
			c23.5-3.3,79.1,47.1,101.5,41.1c61.1-16.4,115.4-96.6,197.6-130.1c279-113.7,64.1-503.5,78.9-668.3
			c7.9-87.9,40.8-498.9,49.9-586.2c18.8-182,12.6-354.5,1.2-412.2C1210.9-6.2,1039,163.8,920.7,154.7z"/>
	</g>
	<g>
		
			<linearGradient id="SVGID_28_" gradientUnits="userSpaceOnUse" x1="6140.3667" y1="1888.2395" x2="7899.7383" y2="1888.2395" gradientTransform="matrix(1.316075e-02 0.9999 -0.9999 1.316075e-02 2616.2239 -6103.9287)">
			<stop  offset="5.586592e-03" style="stop-color:#E50C7C"/>
			<stop  offset="0.3939" style="stop-color:#F18B00"/>
			<stop  offset="0.6229" style="stop-color:#674185"/>
			<stop  offset="0.7123" style="stop-color:#4E368B"/>
			<stop  offset="0.7553" style="stop-color:#4B398D"/>
			<stop  offset="0.79" style="stop-color:#414294"/>
			<stop  offset="0.822" style="stop-color:#3052A0"/>
			<stop  offset="0.852" style="stop-color:#1869B1"/>
			<stop  offset="0.8652" style="stop-color:#0B75BA"/>
			<stop  offset="0.9944" style="stop-color:#005C97"/>
		</linearGradient>
		<path class="st27" d="M923.9,185.1c-156.2-11.2-453.9-121.4-485-116.4c-27,4.4,5.1,219.4-21.5,413.1
			c-30.9,224.8-39.1,469.6-22,563.2c15.2,83.1,20.9,217.7,25.9,258.1c6.6,53.4,17.3,139.9,50.7,177.5
			c23.4,26.4-35.6,235.9-0.7,256.5c58.3,34.4,75.3,86.2,107.7,83c46.9-4.6,93.5-58.2,134.6-52.7c30.2,4.1,48.5,5.2,77.7,1.3
			c24.3-3.2,81.5,45.3,104.6,39.5c63-15.8,119-92.9,203.8-125.1c287.6-109.3,66.1-484.1,81.4-642.6c8.1-84.5,42.1-479.7,51.4-563.6
			c19.4-175,13-340.8,1.2-396.4C1223,30.4,1045.9,193.9,923.9,185.1z"/>
	</g>
	<g>
		
			<linearGradient id="SVGID_29_" gradientUnits="userSpaceOnUse" x1="6173.8979" y1="1888.4775" x2="7865.9561" y2="1888.4775" gradientTransform="matrix(1.316075e-02 0.9999 -0.9999 1.316075e-02 2616.2239 -6103.9287)">
			<stop  offset="5.586592e-03" style="stop-color:#E50C7C"/>
			<stop  offset="0.3939" style="stop-color:#F18B00"/>
			<stop  offset="0.6229" style="stop-color:#674185"/>
			<stop  offset="0.7123" style="stop-color:#4E368B"/>
			<stop  offset="0.7553" style="stop-color:#4B398D"/>
			<stop  offset="0.79" style="stop-color:#414294"/>
			<stop  offset="0.822" style="stop-color:#3052A0"/>
			<stop  offset="0.852" style="stop-color:#1869B1"/>
			<stop  offset="0.8652" style="stop-color:#0B75BA"/>
			<stop  offset="0.9944" style="stop-color:#005C97"/>
		</linearGradient>
		<path class="st28" d="M927.2,214.3c-161.1-10.8-467.9-116.8-500-111.9c-27.8,4.2,5.3,211-22.1,397.2
			c-31.8,216.1-40.3,451.5-22.7,541.5c15.7,79.9,21.6,209.3,26.7,248.2c6.8,51.3,17.8,134.5,52.2,170.7
			c24.2,25.4-36.7,226.8-0.8,246.6c60.1,33.1,77.6,82.9,111,79.8c48.3-4.5,96.4-56,138.8-50.6c31.2,3.9,49.9,5,80.1,1.3
			c25-3.1,84,43.6,107.9,38c65-15.2,122.7-89.3,210.1-120.3c296.5-105.1,68.1-465.5,83.9-617.9c8.4-81.2,43.4-461.2,53-541.9
			c20-168.3,13.4-327.7,1.3-381.1C1235.6,65.5,1052.9,222.7,927.2,214.3z"/>
	</g>
	<g>
		
			<linearGradient id="SVGID_30_" gradientUnits="userSpaceOnUse" x1="6206.1289" y1="1888.71" x2="7833.4658" y2="1888.71" gradientTransform="matrix(1.316075e-02 0.9999 -0.9999 1.316075e-02 2616.2239 -6103.9287)">
			<stop  offset="5.586592e-03" style="stop-color:#E50C7C"/>
			<stop  offset="0.3939" style="stop-color:#F18B00"/>
			<stop  offset="0.6229" style="stop-color:#674185"/>
			<stop  offset="0.7123" style="stop-color:#4E368B"/>
			<stop  offset="0.7553" style="stop-color:#4B398D"/>
			<stop  offset="0.79" style="stop-color:#414294"/>
			<stop  offset="0.822" style="stop-color:#3052A0"/>
			<stop  offset="0.852" style="stop-color:#1869B1"/>
			<stop  offset="0.8652" style="stop-color:#0B75BA"/>
			<stop  offset="0.9944" style="stop-color:#005C97"/>
		</linearGradient>
		<path class="st29" d="M930.6,242.4c-166.1-10.4-482.4-112.3-515.5-107.6c-28.6,4.1,5.4,202.9-22.8,382
			c-32.8,207.8-41.6,434.2-23.4,520.7c16.2,76.8,22.3,201.2,27.6,238.7c7,49.4,18.4,129.3,53.9,164.1
			c24.9,24.4-37.9,218.1-0.8,237.2c61.9,31.8,80,79.7,114.5,76.7c49.8-4.3,99.4-53.8,143.1-48.7c32.1,3.8,51.5,4.8,82.6,1.2
			c25.8-3,86.6,41.9,111.2,36.5c67-14.6,126.5-85.9,216.6-115.7c305.6-101.1,70.2-447.6,86.5-594.1c8.7-78.1,44.8-443.5,54.6-521.1
			c20.6-161.8,13.8-315.1,1.3-366.5C1248.5,99.3,1060.2,250.5,930.6,242.4z"/>
	</g>
	<g>
		
			<linearGradient id="SVGID_31_" gradientUnits="userSpaceOnUse" x1="6237.1094" y1="1888.9371" x2="7802.2188" y2="1888.9371" gradientTransform="matrix(1.316075e-02 0.9999 -0.9999 1.316075e-02 2616.2239 -6103.9287)">
			<stop  offset="5.586592e-03" style="stop-color:#E50C7C"/>
			<stop  offset="0.3939" style="stop-color:#F18B00"/>
			<stop  offset="0.6229" style="stop-color:#674185"/>
			<stop  offset="0.7123" style="stop-color:#4E368B"/>
			<stop  offset="0.7553" style="stop-color:#4B398D"/>
			<stop  offset="0.79" style="stop-color:#414294"/>
			<stop  offset="0.822" style="stop-color:#3052A0"/>
			<stop  offset="0.852" style="stop-color:#1869B1"/>
			<stop  offset="0.8652" style="stop-color:#0B75BA"/>
			<stop  offset="0.9944" style="stop-color:#005C97"/>
		</linearGradient>
		<path class="st30" d="M934.1,269.4c-171.2-10-497.3-108-531.4-103.4c-29.5,3.9,5.6,195.1-23.5,367.3
			c-33.8,199.8-42.9,417.5-24.1,500.7c16.7,73.9,22.9,193.5,28.4,229.5c7.2,47.5,18.9,124.4,55.5,157.8c25.7,23.5-39,209.7-0.8,228
			c63.8,30.6,82.5,76.6,118,73.8c51.4-4.1,102.4-51.7,147.5-46.8c33.1,3.6,53.1,4.6,85.1,1.2c26.6-2.8,89.3,40.3,114.6,35.1
			c69.1-14,130.4-82.6,223.3-111.2c315.1-97.2,72.4-430.4,89.2-571.3c8.9-75.1,46.1-426.4,56.3-501.1c21.2-155.6,14.3-303,1.3-352.4
			C1261.9,131.8,1067.7,277.2,934.1,269.4z"/>
	</g>
	<g>
		
			<linearGradient id="SVGID_32_" gradientUnits="userSpaceOnUse" x1="6266.8867" y1="1889.1594" x2="7772.166" y2="1889.1594" gradientTransform="matrix(1.316075e-02 0.9999 -0.9999 1.316075e-02 2616.2239 -6103.9287)">
			<stop  offset="5.586592e-03" style="stop-color:#E50C7C"/>
			<stop  offset="0.3939" style="stop-color:#F18B00"/>
			<stop  offset="0.6229" style="stop-color:#674185"/>
			<stop  offset="0.7123" style="stop-color:#4E368B"/>
			<stop  offset="0.7553" style="stop-color:#4B398D"/>
			<stop  offset="0.79" style="stop-color:#414294"/>
			<stop  offset="0.822" style="stop-color:#3052A0"/>
			<stop  offset="0.852" style="stop-color:#1869B1"/>
			<stop  offset="0.8652" style="stop-color:#0B75BA"/>
			<stop  offset="0.9944" style="stop-color:#005C97"/>
		</linearGradient>
		<path class="st31" d="M937.7,295.4c-176.5-9.6-512.7-103.8-547.9-99.5c-30.4,3.8,5.8,187.6-24.3,353.2
			c-34.9,192.1-44.2,401.4-24.8,481.4c17.2,71,23.7,186.1,29.3,220.7c7.5,45.6,19.5,119.6,57.2,151.8
			c26.5,22.6-40.2,201.6-0.8,219.3c65.8,29.4,85.1,73.7,121.6,70.9c53-4,105.6-49.8,152.1-45c34.1,3.5,54.7,4.4,87.8,1.1
			c27.4-2.7,92.1,38.7,118.2,33.8c71.2-13.5,134.4-79.4,230.2-106.9c324.8-93.4,74.7-413.8,91.9-549.3c9.2-72.2,47.6-410,58.1-481.8
			c21.9-149.6,14.7-291.3,1.4-338.8C1275.6,163.1,1075.5,302.9,937.7,295.4z"/>
	</g>
	<g>
		
			<linearGradient id="SVGID_33_" gradientUnits="userSpaceOnUse" x1="6295.5073" y1="1889.377" x2="7743.2622" y2="1889.377" gradientTransform="matrix(1.316075e-02 0.9999 -0.9999 1.316075e-02 2616.2239 -6103.9287)">
			<stop  offset="5.586592e-03" style="stop-color:#E50C7C"/>
			<stop  offset="0.3939" style="stop-color:#F18B00"/>
			<stop  offset="0.6229" style="stop-color:#674185"/>
			<stop  offset="0.7123" style="stop-color:#4E368B"/>
			<stop  offset="0.7553" style="stop-color:#4B398D"/>
			<stop  offset="0.79" style="stop-color:#414294"/>
			<stop  offset="0.822" style="stop-color:#3052A0"/>
			<stop  offset="0.852" style="stop-color:#1869B1"/>
			<stop  offset="0.8652" style="stop-color:#0B75BA"/>
			<stop  offset="0.9944" style="stop-color:#005C97"/>
		</linearGradient>
		<path class="st32" d="M941.4,320.3c-181.9-9.2-528.5-99.8-564.8-95.6c-31.4,3.6,6,180.4-25,339.6c-36,184.7-45.5,386-25.6,462.9
			c17.7,68.3,24.4,178.9,30.2,212.2c7.7,43.9,20.1,115,59,145.9c27.3,21.7-41.5,193.9-0.8,210.8c67.9,28.3,87.7,70.8,125.4,68.2
			c54.6-3.8,108.9-47.8,156.8-43.3c35.2,3.3,56.4,4.3,90.5,1.1c28.3-2.6,94.9,37.2,121.8,32.5c73.4-13,138.6-76.4,237.3-102.8
			c334.9-89.8,77-397.9,94.8-528.2c9.5-69.4,49-394.3,59.9-463.3c22.6-143.9,15.1-280.1,1.4-325.8
			C1289.8,193.1,1083.4,327.5,941.4,320.3z"/>
	</g>
	<g>
		
			<linearGradient id="SVGID_34_" gradientUnits="userSpaceOnUse" x1="6323.0146" y1="1889.5901" x2="7715.4619" y2="1889.5901" gradientTransform="matrix(1.316075e-02 0.9999 -0.9999 1.316075e-02 2616.2239 -6103.9287)">
			<stop  offset="5.586592e-03" style="stop-color:#E50C7C"/>
			<stop  offset="0.3939" style="stop-color:#F18B00"/>
			<stop  offset="0.6229" style="stop-color:#674185"/>
			<stop  offset="0.7123" style="stop-color:#4E368B"/>
			<stop  offset="0.7553" style="stop-color:#4B398D"/>
			<stop  offset="0.79" style="stop-color:#414294"/>
			<stop  offset="0.822" style="stop-color:#3052A0"/>
			<stop  offset="0.852" style="stop-color:#1869B1"/>
			<stop  offset="0.8652" style="stop-color:#0B75BA"/>
			<stop  offset="0.9944" style="stop-color:#005C97"/>
		</linearGradient>
		<path class="st33" d="M945.3,344.3c-187.6-8.9-544.9-96-582.3-92c-32.4,3.5,6.2,173.4-25.8,326.5c-37.1,177.6-47,371.1-26.4,445.1
			c18.3,65.7,25.1,172,31.1,204c7.9,42.2,20.8,110.6,60.8,140.3c28.2,20.9-42.8,186.4-0.9,202.7c70,27.2,90.4,68.1,129.3,65.6
			c56.3-3.7,112.2-46,161.6-41.6c36.3,3.2,58.2,4.1,93.3,1c29.1-2.5,97.9,35.8,125.6,31.2c75.7-12.5,142.9-73.4,244.6-98.9
			c345.2-86.4,79.3-382.6,97.7-507.9c9.8-66.8,50.6-379.1,61.7-445.4c23.3-138.3,15.6-269.4,1.5-313.3
			C1304.4,222,1091.7,351.3,945.3,344.3z"/>
	</g>
	<g>
		
			<linearGradient id="SVGID_35_" gradientUnits="userSpaceOnUse" x1="6349.4521" y1="1889.7992" x2="7688.7231" y2="1889.7992" gradientTransform="matrix(1.316075e-02 0.9999 -0.9999 1.316075e-02 2616.2239 -6103.9287)">
			<stop  offset="5.586592e-03" style="stop-color:#E50C7C"/>
			<stop  offset="0.3939" style="stop-color:#F18B00"/>
			<stop  offset="0.6229" style="stop-color:#674185"/>
			<stop  offset="0.7123" style="stop-color:#4E368B"/>
			<stop  offset="0.7553" style="stop-color:#4B398D"/>
			<stop  offset="0.79" style="stop-color:#414294"/>
			<stop  offset="0.822" style="stop-color:#3052A0"/>
			<stop  offset="0.852" style="stop-color:#1869B1"/>
			<stop  offset="0.8652" style="stop-color:#0B75BA"/>
			<stop  offset="0.9944" style="stop-color:#005C97"/>
		</linearGradient>
		<path class="st34" d="M949.2,367.4c-193.4-8.5-561.7-92.3-600.3-88.4c-33.4,3.3,6.3,166.7-26.6,314
			c-38.2,170.8-48.4,356.8-27.2,428c18.8,63.1,25.9,165.4,32.1,196.2c8.2,40.6,21.4,106.3,62.7,134.9c29,20.1-44.1,179.3-0.9,194.9
			c72.1,26.2,93.2,65.5,133.3,63c58-3.5,115.7-44.2,166.6-40c37.4,3.1,60,3.9,96.2,1c30-2.4,100.9,34.4,129.5,30
			c78-12,147.3-70.6,252.2-95.1c355.9-83.1,81.8-367.9,100.7-488.3c10.1-64.2,52.1-364.5,63.6-428.3c24-133,16.1-259,1.5-301.2
			C1319.4,249.8,1100.2,374.1,949.2,367.4z"/>
	</g>
	<g>
		
			<linearGradient id="SVGID_36_" gradientUnits="userSpaceOnUse" x1="6374.8594" y1="1890.0045" x2="7663.0049" y2="1890.0045" gradientTransform="matrix(1.316075e-02 0.9999 -0.9999 1.316075e-02 2616.2239 -6103.9287)">
			<stop  offset="5.586592e-03" style="stop-color:#E50C7C"/>
			<stop  offset="0.3939" style="stop-color:#F18B00"/>
			<stop  offset="0.6229" style="stop-color:#674185"/>
			<stop  offset="0.7123" style="stop-color:#4E368B"/>
			<stop  offset="0.7553" style="stop-color:#4B398D"/>
			<stop  offset="0.79" style="stop-color:#414294"/>
			<stop  offset="0.822" style="stop-color:#3052A0"/>
			<stop  offset="0.852" style="stop-color:#1869B1"/>
			<stop  offset="0.8652" style="stop-color:#0B75BA"/>
			<stop  offset="0.9944" style="stop-color:#005C97"/>
		</linearGradient>
		<path class="st35" d="M953.3,389.6c-199.4-8.2-579.1-88.7-618.9-85C300,307.8,341,464.9,307,606.5
			c-39.4,164.2-49.9,343.1-28,411.5c19.4,60.7,26.7,159,33.1,188.6c8.4,39,22.1,102.2,64.7,129.7c29.9,19.3-45.5,172.4-0.9,187.4
			c74.4,25.2,96.1,63,137.4,60.6c59.8-3.4,119.3-42.5,171.8-38.5c38.6,3,61.8,3.8,99.2,1c31-2.3,104,33.1,133.5,28.9
			c80.4-11.5,151.8-67.9,260-91.4c366.9-79.9,84.3-353.7,103.8-469.6c10.4-61.7,53.7-350.5,65.6-411.8
			c24.7-127.9,16.6-249,1.6-289.6C1335,276.5,1108.9,396,953.3,389.6z"/>
	</g>
	<g>
		
			<linearGradient id="SVGID_37_" gradientUnits="userSpaceOnUse" x1="6399.2769" y1="1890.2064" x2="7638.2671" y2="1890.2064" gradientTransform="matrix(1.316075e-02 0.9999 -0.9999 1.316075e-02 2616.2239 -6103.9287)">
			<stop  offset="5.586592e-03" style="stop-color:#E50C7C"/>
			<stop  offset="0.3939" style="stop-color:#F18B00"/>
			<stop  offset="0.6229" style="stop-color:#674185"/>
			<stop  offset="0.7123" style="stop-color:#4E368B"/>
			<stop  offset="0.7553" style="stop-color:#4B398D"/>
			<stop  offset="0.79" style="stop-color:#414294"/>
			<stop  offset="0.822" style="stop-color:#3052A0"/>
			<stop  offset="0.852" style="stop-color:#1869B1"/>
			<stop  offset="0.8652" style="stop-color:#0B75BA"/>
			<stop  offset="0.9944" style="stop-color:#005C97"/>
		</linearGradient>
		<path class="st36" d="M957.5,411c-205.5-7.9-597-85.3-638-81.8c-35.5,3.1,6.7,154.2-28.3,290.3c-40.6,157.9-51.4,329.9-28.9,395.7
			c20,58.4,27.5,152.9,34.1,181.4c8.7,37.5,22.7,98.3,66.7,124.7c30.8,18.6-46.9,165.7-1,180.2c76.7,24.2,99.1,60.5,141.7,58.3
			c61.7-3.3,123-40.9,177.1-37c39.8,2.9,63.7,3.6,102.2,0.9c31.9-2.2,107.2,31.8,137.6,27.8c82.9-11.1,156.5-65.3,268-87.9
			c378.3-76.8,86.9-340.1,107-451.5c10.7-59.3,55.4-337,67.6-396c25.5-123,17.1-239.5,1.6-278.5C1351,302.2,1117.9,417.1,957.5,411z
			"/>
	</g>
	<g>
		
			<linearGradient id="SVGID_38_" gradientUnits="userSpaceOnUse" x1="6422.7412" y1="1890.405" x2="7614.4722" y2="1890.405" gradientTransform="matrix(1.316075e-02 0.9999 -0.9999 1.316075e-02 2616.2239 -6103.9287)">
			<stop  offset="5.586592e-03" style="stop-color:#E50C7C"/>
			<stop  offset="0.3939" style="stop-color:#F18B00"/>
			<stop  offset="0.6229" style="stop-color:#674185"/>
			<stop  offset="0.7123" style="stop-color:#4E368B"/>
			<stop  offset="0.7553" style="stop-color:#4B398D"/>
			<stop  offset="0.79" style="stop-color:#414294"/>
			<stop  offset="0.822" style="stop-color:#3052A0"/>
			<stop  offset="0.852" style="stop-color:#1869B1"/>
			<stop  offset="0.8652" style="stop-color:#0B75BA"/>
			<stop  offset="0.9944" style="stop-color:#005C97"/>
		</linearGradient>
		<path class="st37" d="M961.8,431.5c-211.9-7.6-615.5-82-657.7-78.6c-36.6,3,7,148.2-29.1,279.1c-41.9,151.8-53,317.2-29.8,380.5
			c20.6,56.1,28.4,147,35.2,174.4c9,36.1,23.5,94.5,68.7,119.9c31.8,17.9-48.3,159.4-1,173.3c79,23.3,102.1,58.2,146,56
			c63.6-3.1,126.8-39.3,182.5-35.6c41,2.7,65.7,3.5,105.4,0.9c32.9-2.2,110.6,30.6,141.9,26.7c85.5-10.7,161.4-62.8,276.3-84.5
			c390-73.8,89.6-327.1,110.4-434.1c11-57.1,57.1-324.1,69.7-380.8c26.3-118.3,17.6-230.3,1.7-267.8
			C1367.5,326.9,1127.2,437.4,961.8,431.5z"/>
	</g>
	<g>
		
			<linearGradient id="SVGID_39_" gradientUnits="userSpaceOnUse" x1="6445.2891" y1="1890.6007" x2="7591.5835" y2="1890.6007" gradientTransform="matrix(1.316075e-02 0.9999 -0.9999 1.316075e-02 2616.2239 -6103.9287)">
			<stop  offset="5.586592e-03" style="stop-color:#E50C7C"/>
			<stop  offset="0.3939" style="stop-color:#F18B00"/>
			<stop  offset="0.6229" style="stop-color:#674185"/>
			<stop  offset="0.7123" style="stop-color:#4E368B"/>
			<stop  offset="0.7553" style="stop-color:#4B398D"/>
			<stop  offset="0.79" style="stop-color:#414294"/>
			<stop  offset="0.822" style="stop-color:#3052A0"/>
			<stop  offset="0.852" style="stop-color:#1869B1"/>
			<stop  offset="0.8652" style="stop-color:#0B75BA"/>
			<stop  offset="0.9944" style="stop-color:#005C97"/>
		</linearGradient>
		<path class="st38" d="M966.3,451.2c-218.4-7.3-634.5-78.9-678.1-75.6c-37.7,2.9,7.2,142.5-30,268.4c-43.2,146-54.7,305-30.7,365.8
			c21.3,54,29.3,141.4,36.3,167.7c9.2,34.7,24.2,90.9,70.8,115.3c32.8,17.2-49.8,153.2-1,166.6c81.5,22.4,105.3,56,150.6,53.9
			c65.5-3,130.7-37.8,188.2-34.2c42.3,2.6,67.7,3.4,108.6,0.9c33.9-2.1,114,29.4,146.3,25.7c88.1-10.3,166.4-60.3,284.9-81.3
			c402-71,92.4-314.5,113.8-417.4c11.4-54.9,58.9-311.6,71.9-366.1c27.1-113.7,18.2-221.4,1.7-257.5
			C1384.5,350.7,1136.8,456.9,966.3,451.2z"/>
	</g>
</g>
</svg>
