<?xml version="1.0" encoding="utf-8"?>
<!-- Generator: Adobe Illustrator 24.1.2, SVG Export Plug-In . SVG Version: 6.00 Build 0)  -->
<svg version="1.1" id="Camada_1" xmlns="http://www.w3.org/2000/svg" xmlns:xlink="http://www.w3.org/1999/xlink" x="0px" y="0px"
	 viewBox="0 0 1000 1000" style="enable-background:new 0 0 1000 1000;" xml:space="preserve">
<style type="text/css">
	.st0{fill:#FFFFFF;}
	.st1{fill:#FFFFFF;stroke:#FFFFFF;stroke-width:4;stroke-miterlimit:10;}
</style>
<g>
	<path class="st0" d="M526.81,533.79c0-21.12,17.09-38.4,38.4-38.4c21.12,0,38.21,17.28,38.21,38.4s-17.09,38.4-38.21,38.4
		C543.9,572.19,526.81,554.91,526.81,533.79z M592.67,533.99c0-15.17-12.29-27.46-27.07-27.46c-15.36,0-27.65,12.29-27.65,27.46
		c0,14.98,12.29,27.26,27.65,27.26C580.38,561.25,592.67,548.96,592.67,533.99z"/>
	<path class="st0" d="M619.16,533.79c0-21.12,17.09-38.4,38.4-38.4c9.6,0,18.62,4.03,26.5,11.52l-8.06,7.49
		c-4.8-4.61-11.33-7.87-18.05-7.87c-15.36,0-27.65,12.29-27.65,27.46c0,14.98,11.9,27.07,27.26,27.07c6.34,0,13.63-3.07,18.62-7.87
		l7.68,7.49c-6.91,6.91-16.13,11.52-28.03,11.52C636.25,572.19,619.16,554.91,619.16,533.79z"/>
	<path class="st0" d="M696.16,533.79c0-21.12,17.09-38.4,38.4-38.4c21.12,0,38.21,17.28,38.21,38.4c0,1.73-0.19,3.46-0.38,4.99
		h-64.7c2.3,12.67,13.44,22.27,27.07,22.27c7.49,0,14.21-3.07,19.01-8.06l7.87,7.87c-6.91,6.91-16.51,11.33-27.07,11.33
		C713.25,572.19,696.16,554.91,696.16,533.79z M761.24,527.65c-2.88-12.1-13.63-21.12-26.3-21.12c-13.06,0-24,9.02-26.88,21.12
		H761.24z"/>
	<path class="st0" d="M863.97,497.31v74.88h-11.33v-11.71c-6.91,7.3-16.7,11.71-27.46,11.71c-21.31,0-38.4-17.28-38.4-38.4
		s17.09-38.4,38.4-38.4c10.75,0,20.54,4.42,27.46,11.71v-9.79H863.97z M852.64,533.99c0-15.17-12.29-27.46-27.07-27.46
		c-15.36,0-27.65,12.29-27.65,27.46c0,14.98,12.29,27.26,27.65,27.26C840.35,561.25,852.64,548.96,852.64,533.99z"/>
	<path class="st0" d="M890.46,497.31h11.33v6.72c5.76-5.38,13.63-8.64,22.46-8.64c16.9,0,33.22,13.44,33.22,33.41v43.39h-11.33
		v-41.28c0-14.4-8.83-24.38-22.46-24.38c-12.67,0-21.89,10.75-21.89,22.27v43.39h-11.33V497.31z"/>
</g>
<g>
	<g>
		<path class="st0" d="M288.8,566.4c2.17-5.82,3.93-11.84,5.25-18.02C292.27,554.36,290.49,560.34,288.8,566.4z"/>
		<path class="st0" d="M276.81,512.96c2.72-12.66,4.58-25.8,8.46-38.47C280.59,486.54,277.67,499.47,276.81,512.96z"/>
		<path class="st0" d="M483.27,598.91c-20.36,20.36-46.94,31.41-76.96,31.41c-42.5,0-79.11-24.55-96.89-60.19
			c-5.69-11.41-9.45-23.94-10.86-37.18c-0.41-3.84-0.62-7.74-0.62-11.69c0-60.05,48.32-108.37,108.37-108.37
			c30.02,0,57.29,12.42,76.96,32.1l14.15-15.19c-23.47-23.47-55.91-37.96-91.46-37.96c-53.58,0-99.58,32.63-119.23,79.08
			c-0.06-0.14-0.11-0.28-0.17-0.41c-3.18-7.45-7.04-14.53-11.5-21.19c-23.2-34.65-62.63-57.48-107.23-57.48
			c-71.44,0-129.42,57.98-129.42,129.42s57.98,129.42,129.42,129.42c53.33,0,99.26-32.63,118.89-79.08c0.13,0.32,0.26,0.64,0.4,0.96
			c4.03,9.32,9.14,18.05,15.14,26.08c23.6,31.58,61.27,52.04,103.69,52.04c35.89,0,68.68-14.15,92.15-37.62L483.27,598.91z
			 M168.17,629.97c-60.05,0-108.37-48.66-108.37-108.71c0-60.05,48.32-108.37,108.37-108.37c38.51,0,72.66,20.33,91.9,51.01
			c9.39,14.97,15.22,32.39,16.29,51.12c0.12,2.06,0.18,4.14,0.18,6.23C276.54,581.31,227.53,629.97,168.17,629.97z"/>
		<path class="st0" d="M259.64,463.48c9.39,14.97,15.22,32.39,16.29,51.12c3.28-14.62,5.18-29.96,10.2-44.53
			c-3.18-7.45-7.04-14.53-11.5-21.19C268.4,452.52,263.18,457.49,259.64,463.48z"/>
		<path class="st0" d="M308.99,569.49c-5.69-11.41-9.45-23.94-10.86-37.18c-3.77,13.24-7.86,26.16-11.44,39.6
			c4.03,9.32,9.14,18.05,15.14,26.08C301.65,587.87,304.49,578.28,308.99,569.49z"/>
	</g>
	<g>
		<path class="st1" d="M286.83,439.04l0.06-0.05l0,0l0.1-0.08l0.01,0.01l0.08-0.07l0.02-0.01l0.05-0.04
			c0.01-0.01,0.01-0.02,0.02-0.03l-0.01-0.01l0.12-0.12l101.79-114.62l0.06-0.08l1.3,0.9h0l-1.22-1c0.02-0.04,0.05-0.1,0.08-0.16
			l0.05-0.11c0.03-0.08,0.05-0.16,0.07-0.23l0.01-0.09c0.01-0.06,0.02-0.14,0.02-0.22l-0.01-0.12c0-0.04-0.01-0.11-0.02-0.17
			c-0.03-0.16-0.05-0.22-0.08-0.28l1.43-0.69l0,0l-1.47,0.57c-0.02-0.04-0.05-0.09-0.08-0.14l-0.11-0.18l-27.36-38.74
			c-0.29-0.42-0.78-0.67-1.29-0.67H211.61c-0.51,0-0.99,0.25-1.29,0.67l-27.47,38.92c-0.03,0.05-0.06,0.1-0.09,0.16l-0.04,0.11
			c-0.02,0.06-0.04,0.11-0.05,0.17l-0.02,0.11c-0.01,0.06-0.02,0.13-0.02,0.19l0,0.09l0,0.02c0,0.06,0.01,0.14,0.02,0.21l0.02,0.15
			c0.01,0.02,0.03,0.11,0.07,0.2l0.04,0.06c0.03,0.07,0.06,0.13,0.1,0.19l0.15,0.2l101.9,114.72c0.03,0.03,0.06,0.06,0.09,0.08
			l0.08,0.06c0.01,0.01,0.03,0.02,0.04,0.03c0.02,0.01,0.03,0.02,0.04,0.03l0.24,0.13l0,0.01l0.05,0.02l0.07,0.01
			c0.05,0.02,0.1,0.03,0.15,0.04l0.1,0.02c0.08,0.01,0.16,0.02,0.25,0.02c0,0,0.18-0.01,0.26-0.02l0.14-0.03
			c0.01,0,0.06-0.02,0.11-0.03l0.26-0.12l0.01,0.02C286.81,439.04,286.82,439.04,286.83,439.04l0.06-0.05
			C286.87,439,286.85,439.02,286.83,439.04z M291.6,429.01l46.38-104.43h46.38L291.6,429.01z M359.63,285.76l25.19,35.65h-46.9
			l-18.19-35.65H359.63z M316.18,285.76l18.19,35.65h-96.68l18.2-35.65H316.18z M212.43,285.76h39.91l-18.19,35.65h-46.9
			L212.43,285.76z M187.71,324.58h46.38l46.38,104.43L187.71,324.58z M286.03,433.76l-48.49-109.19h96.98L286.03,433.76z"/>
	</g>
</g>
</svg>
