<?xml version="1.0" encoding="utf-8"?>
<!-- Generator: Adobe Illustrator 24.1.2, SVG Export Plug-In . SVG Version: 6.00 Build 0)  -->
<svg version="1.1" id="Camada_1" xmlns="http://www.w3.org/2000/svg" xmlns:xlink="http://www.w3.org/1999/xlink" x="0px" y="0px"
	 viewBox="0 0 1000 1000" style="enable-background:new 0 0 1000 1000;" xml:space="preserve">
<style type="text/css">
	.st0{fill:#FFFFFF;}
	.st1{fill:none;stroke:#FFE394;stroke-width:11;stroke-miterlimit:10;}
</style>
<g>
	<g>
		<g>
			<g>
				<path class="st0" d="M211.5,286.8l6.4-8.6l32.7,24.3l-6.4,8.6L211.5,286.8z"/>
				<path class="st0" d="M246.9,260.5l-7.4,7.6l-7.6-7.4l22.4-23l7.6,7.4l-7.6,7.7l21.6,21.1l-7.5,7.7L246.9,260.5z"/>
				<path class="st0" d="M282.2,215l3.9-2.8l39.6,21.6L317,240l-5.2-2.8l-13.5,9.9l1.2,5.7l-8.6,6.3L282.2,215z M303.1,232.4
					l-8.6-4.8l1.9,9.7L303.1,232.4z"/>
				<path class="st0" d="M320.8,190l9.6-4.8l13.4,26.9l13.1-6.5l4.8,9.6l-22.7,11.3L320.8,190z"/>
				<path class="st0" d="M365,170.3l10.1-3.5l13.3,38.5l-10.1,3.5L365,170.3z"/>
				<path class="st0" d="M414.1,156.7l4.7-0.9l26.3,36.6l-10.5,2l-3.4-4.8l-16.4,3.1l-1.4,5.7l-10.5,2L414.1,156.7z M425.4,181.4
					l-5.7-8.1l-2.5,9.6L425.4,181.4z"/>
				<path class="st0" d="M458.7,151l4.3-0.1l19.6,18.9l-0.3-19.2l10.7-0.2l0.7,40.8l-4.4,0.1l-19.6-19l0.3,19.3l-10.7,0.2L458.7,151
					z"/>
				<path class="st0" d="M535.4,184.4l10.5,2.7c-0.4,1.7,0.8,3.4,3.1,4c2.1,0.5,4-0.3,4.5-2.1c0.5-1.9-1-3.6-3.1-4.1
					c-7.6-1.9-12.8-9-11.1-15.8c1.7-6.7,9.1-10.7,17.4-8.5c7.9,2,12.9,9,11.2,15.8l-10.5-2.7c0.4-1.6-0.9-3.5-3-4
					c-2.3-0.6-4.1,0.2-4.6,2.1c-0.5,1.8,0.7,3.5,3,4.1c8.1,2.1,12.9,9.1,11.2,15.8c-1.7,6.7-9.3,10.5-17.2,8.5
					C538.3,198,533.8,190.8,535.4,184.4z"/>
				<path class="st0" d="M596.9,184.9l-9.7-4.2l4.2-9.8l29.5,12.8l-4.2,9.8l-9.9-4.3l-12,27.7l-9.8-4.3L596.9,184.9z"/>
				<path class="st0" d="M636.6,222.5l1.7-29.7l10.3,6.8l-0.9,15.7l14-7.1l10.3,6.8l-26.6,13.4l-8.2,12.6l-8.9-5.8L636.6,222.5z"/>
				<path class="st0" d="M688.4,228.4l7.9,7.3L676,257.8l10.8,9.9l-7.3,7.9l-18.7-17.2L688.4,228.4z"/>
				<path class="st0" d="M723.3,263.1l15.9,19.7l-6.9,5.6l-9.2-11.4l-5.2,4.2l8.1,10.1l-7,5.7l-8.1-10.1l-5.8,4.7l9.2,11.4l-6.8,5.5
					l-15.9-19.7L723.3,263.1z"/>
			</g>
		</g>
		<g>
			<g>
				<g>
					<path class="st0" d="M669,446c0.6-9.7,9.2-12.6,17.2-12.6c7.9,0,16.4,3.1,16.4,12.9c0,10.2-8.2,12.8-16.7,12.8
						c-4.2,0-10.5,1-10.5,6.5v4.4h27.3v6.3h-33.8c0-3.6,0-7.1,0-10.7c0-9.7,8.8-12.4,17-12.4c3.8,0,10.2-1.2,10.2-6.7
						c0-5.3-4.6-6.9-9.7-7.1c-4.9,0-10.3,1.8-10.5,6.7H669z"/>
					<path class="st0" d="M718.6,451.5c0-24.5,35.4-24.5,35.4,0v7.4c0,24.5-35.4,24.5-35.4,0V451.5z M725.4,458.9
						c0,16.1,21.9,16.1,21.9,0v-7.4c0-15.8-21.9-16-21.9,0V458.9z"/>
					<path class="st0" d="M770.2,446c0.6-9.7,9.2-12.6,17.2-12.6c7.9,0,16.4,3.1,16.4,12.9c0,10.2-8.2,12.8-16.7,12.8
						c-4.2,0-10.5,1-10.5,6.5v4.4h27.3v6.3H770c0-3.6,0-7.1,0-10.7c0-9.7,8.8-12.4,17-12.4c3.8,0,10.2-1.2,10.2-6.7
						c0-5.3-4.6-6.9-9.7-7.1c-4.9,0-10.3,1.8-10.5,6.7H770.2z"/>
					<path class="st0" d="M819.8,451.5c0-24.5,35.4-24.5,35.4,0v7.4c0,24.5-35.4,24.5-35.4,0V451.5z M826.6,458.9
						c0,16.1,21.9,16.1,21.9,0v-7.4c0-15.8-21.9-16-21.9,0V458.9z"/>
				</g>
			</g>
			<g>
				<g>
					<path class="st0" d="M183.5,476.8h-28.7c0-14.1,0-28.2,0-42.3h28.5v6.6H161v11.4h21.4v6.3H161v11.4h22.5V476.8z"/>
					<path class="st0" d="M225.8,443.9c-1.8-2.9-5.5-4.7-9.6-4.7c-5.2,0-9,2.4-9,6.4c0,4.1,4.3,5.3,9.4,6c8,1.2,15.6,3.6,15.6,13.1
						c-0.1,9.5-8,13.1-16.1,13.1c-7.4,0-13.2-2.5-16.7-9.6l4.7-3.4c2.8,5.1,7.6,6.9,12.1,6.9c4.7,0,9.8-1.7,9.8-7
						c0-4.6-4.5-6.2-9.9-6.9c-7.7-1.1-15-3.3-15-12.3c-0.1-8.8,8-12.1,15-12.1c5.6,0,11.2,1.5,14.5,7.1L225.8,443.9z"/>
					<path class="st0" d="M259.1,440.6h-12.8v-6.1c11.2,0,20.6,0,31.7,0v6.1h-12.7v36.2h-6.3V440.6z"/>
					<path class="st0" d="M297.8,473.5c0,5.1-7,5.1-7,0C290.7,468.4,297.8,468.4,297.8,473.5z"/>
				</g>
			</g>
		</g>
		<g>
			<g>
				<g>
					<g>
						<path class="st1" d="M415.5,554.1l-24.1,24.4c53.9,53.9,128.5,87.1,210.8,86.6l-0.2-34.3C529.1,631.3,463.1,601.9,415.5,554.1
							z"/>
						<path class="st1" d="M600.1,366.9L415.5,554.1c47.6,47.8,113.6,77.2,186.4,76.7L600.1,366.9L600.1,366.9z"/>
					</g>
				</g>
				<g>
					<g>
						<path class="st1" d="M569.5,366.3l24.3-24.3c-53.5-54.3-127.9-88-210.2-88v34.3C456.4,288.4,522.2,318.2,569.5,366.3z"/>
						<path class="st1" d="M383.6,552.2l185.9-185.9c-47.3-48.1-113.1-77.9-185.9-77.9L383.6,552.2L383.6,552.2z"/>
					</g>
				</g>
			</g>
			<circle class="st1" cx="461.9" cy="364.7" r="31.3"/>
			<circle class="st1" cx="522.7" cy="552.2" r="31.3"/>
		</g>
		<g>
			<g>
				<path class="st0" d="M288.3,689.7l16.5,10.6c7.9,5.1,10.3,15.7,5.2,23.7c-5,7.9-15.6,10.3-23.4,5.3l-6.4-4.1l-6.6,10.4
					l-10.3-6.6L288.3,689.7z M292.3,720.3c3.1,2,7.2,1.2,9.2-2c2-3.1,1.1-7.3-2-9.3l-6.4-4.1l-7.2,11.2L292.3,720.3z"/>
				<path class="st0" d="M340,719.6l11.1,5.1l-19.4,42.3l-11.1-5.1L340,719.6z"/>
				<path class="st0" d="M387.4,751.1l-19-5.7l3.5-11.8l39.3,11.7l-28.8,27.3l19,5.7l-3.5,11.7l-39.3-11.7L387.4,751.1z"/>
				<path class="st0" d="M447.5,763.6l-19.7-2.4l1.5-12.2L470,754l-23.8,31.7l19.7,2.4l-1.5,12.1l-40.7-4.9L447.5,763.6z"/>
				<path class="st0" d="M509.6,753.7l5.5-0.3l24.4,45.3l-12.2,0.7l-3.2-5.9l-19,1.1l-2.5,6.2l-12.1,0.7L509.6,753.7z M518.8,783.4
					l-5.3-10l-4.2,10.5L518.8,783.4z"/>
				<path class="st0" d="M558.2,748.5l19-4.6c9.2-2.2,18.5,3.4,20.7,12.6c1.2,4.8,0.1,9.7-2.4,13.5l13.6,14.1l-13.7,3.3l-9.9-10.3
					l-7.4,1.8l2.9,12l-11.9,2.9L558.2,748.5z M583.1,766.8c3.6-0.9,5.8-4.4,4.9-8c-0.9-3.6-4.5-5.8-8.1-4.9l-7.4,1.8l3.2,13
					L583.1,766.8z"/>
				<path class="st0" d="M619.6,730.6l11.3-4.6l17.5,43.1l-11.3,4.6L619.6,730.6z"/>
				<path class="st0" d="M670.1,706.3l4.7-2.8l42.6,28.9l-10.5,6.2l-5.6-3.8l-16.4,9.7l0.7,6.7l-10.5,6.2L670.1,706.3z M691.9,728.4
					l-9.3-6.4l1.1,11.2L691.9,728.4z"/>
			</g>
		</g>
	</g>
</g>
</svg>
