<?xml version="1.0" encoding="utf-8"?>
<!-- Generator: Adobe Illustrator 24.1.2, SVG Export Plug-In . SVG Version: 6.00 Build 0)  -->
<svg version="1.1" id="Camada_1" xmlns="http://www.w3.org/2000/svg" xmlns:xlink="http://www.w3.org/1999/xlink" x="0px" y="0px"
	 viewBox="0 0 1000 1000" style="enable-background:new 0 0 1000 1000;" xml:space="preserve">
<style type="text/css">
	.st0{fill:#FFFFFF;}
</style>
<g>
	<g>
		<path class="st0" d="M362.41,648.21v-29.24c0-3.99-0.8-6.95-2.4-8.87c-1.6-1.92-3.36-2.87-5.27-2.87h-1.44
			c-2.08,0-3.92,0.96-5.51,2.87c-1.6,1.92-2.4,4.88-2.4,8.87v79.33c0,4,0.76,6.95,2.28,8.87c1.52,1.92,3.15,2.87,4.91,2.87h2.16
			c1.92,0,3.67-0.96,5.27-2.87c1.6-1.92,2.4-4.87,2.4-8.87v-29.72h10.31v29.72c0,6.71-1.72,11.79-5.15,15.22
			c-3.44,3.44-7.47,5.15-12.1,5.15h-4.08c-4.16,0-7.91-1.71-11.26-5.15c-3.36-3.43-5.03-8.51-5.03-15.22v-79.33
			c0-6.55,1.68-11.58,5.03-15.1c3.36-3.52,7.35-5.27,11.98-5.27h3.36c4.63,0,8.67,1.72,12.1,5.15c3.43,3.44,5.15,8.51,5.15,15.22
			v29.24H362.41z"/>
		<path class="st0" d="M442.46,718.67c-8.79,0-13.18-6.79-13.18-20.37v-26.36c0-13.58,4.63-20.37,13.9-20.37h0.72
			c4.31,0,8.55,1.84,12.7,5.51v-38.11c0-3.99-0.8-6.95-2.4-8.87c-1.6-1.92-3.44-2.87-5.51-2.87h-1.44c-1.92,0-3.68,0.96-5.27,2.87
			c-1.6,1.92-2.4,4.88-2.4,8.87v29.24h-10.31v-29.24c0-6.71,1.72-11.78,5.15-15.22c3.43-3.44,7.47-5.15,12.1-5.15h3.36
			c4.63,0,8.63,1.76,11.98,5.27c3.36,3.52,5.03,8.55,5.03,15.1v98.98H456.6v-5.27c-2.08,1.76-4.28,3.2-6.59,4.31
			c-2.32,1.12-4.52,1.68-6.59,1.68H442.46z M447.25,659.23c-1.92,0-3.68,0.96-5.27,2.87c-1.6,1.92-2.4,4.88-2.4,8.87v28.28
			c0,4,0.8,6.95,2.4,8.87c1.59,1.92,3.36,2.88,5.27,2.88h0.72c1.76,0,3.55-0.84,5.39-2.52c1.83-1.68,2.91-4.35,3.23-8.03v-32.83
			c0-3.19-0.92-5.39-2.76-6.59c-1.84-1.2-3.64-1.8-5.39-1.8H447.25z"/>
		<path class="st0" d="M526.58,717.95V607.7h-5.99v-8.39h5.99v-30.2c0-3.36,0.52-6.43,1.56-9.23c1.04-2.79,2.64-5.11,4.79-6.95
			c2.16-1.84,4.83-3.07,8.03-3.72c3.19-0.64,6.87-0.48,11.02,0.48v8.39c-3.74-0.8-7.19-0.2-10.35,1.8c-3.17,2-4.75,5.31-4.75,9.95
			v29.48h15.1v8.39h-15.1v110.25H526.58z"/>
		<path class="st0" d="M622.44,710.04h2.16c1.92,0,3.67-0.96,5.27-2.87c1.59-1.92,2.4-4.87,2.4-8.87v-29.72h10.31v29.72
			c0,6.71-1.72,11.79-5.15,15.22c-3.44,3.44-7.47,5.15-12.1,5.15h-4.07c-4.16,0-7.91-1.71-11.26-5.15
			c-3.36-3.43-5.03-8.51-5.03-15.22v-79.33c0-6.55,1.68-11.58,5.03-15.1c3.36-3.52,7.35-5.27,11.98-5.27h3.36
			c4.63,0,8.67,1.72,12.1,5.15c3.43,3.44,5.15,8.51,5.15,15.22v41.46h-27.32v37.87c0,4,0.76,6.95,2.28,8.87
			C619.05,709.08,620.68,710.04,622.44,710.04z M632.27,653.24v-34.27c0-3.99-0.8-6.95-2.4-8.87c-1.6-1.92-3.36-2.87-5.27-2.87
			h-1.44c-2.08,0-3.92,0.96-5.51,2.87c-1.6,1.92-2.4,4.88-2.4,8.87v34.27H632.27z M619.81,589.73l10.55-20.61h10.07L627,589.73
			H619.81z"/>
	</g>
</g>
<g>
	<path class="st0" d="M132.59,402.52c-8.87-8.36-19.01-11.15-30.93-11.15c-14.7,0-22.81,4.56-22.81,12.42
		c0,8.11,7.35,12.67,23.32,13.69c23.57,1.52,53.48,6.84,53.48,40.05c0,22.05-18,41.06-53.74,41.06c-19.77,0-39.54-3.29-57.8-22.31
		l15.21-22.05c8.87,9.88,29.15,17.24,43.09,17.49c11.66,0.25,22.56-5.83,22.56-14.95c0-8.62-7.1-12.17-24.84-13.18
		c-23.57-1.77-51.71-10.39-51.71-38.78c0-28.9,29.91-39.04,52.72-39.04c19.52,0,34.22,3.8,48.67,16.47L132.59,402.52z"/>
	<path class="st0" d="M274.53,369.31h29.66v124.97h-29.15l-1.52-18.25c-7.1,14.7-26.62,21.8-40.56,22.05
		c-37.01,0.25-64.39-22.56-64.39-66.41c0-43.09,28.64-65.65,65.15-65.4c16.73,0,32.7,7.86,39.8,20.28L274.53,369.31z M199.5,431.67
		c0,23.83,16.48,38.02,37.01,38.02c48.67,0,48.67-75.79,0-75.79C215.98,393.9,199.5,407.84,199.5,431.67z"/>
	<path class="st0" d="M330.29,546.5V369.31h28.9l2.03,17.24c9.63-13.94,26.36-20.03,40.56-20.03c38.53,0,64.13,28.64,64.13,65.4
		c0,36.5-23.06,65.4-63.12,65.4c-13.18,0-32.7-4.06-41.57-17.75v66.92H330.29z M434.98,431.92c0-19.52-13.18-35.49-35.49-35.49
		S364,412.4,364,431.92c0,19.52,14.45,35.49,35.49,35.49C420.53,467.41,434.98,451.44,434.98,431.92z"/>
	<path class="st0" d="M519.63,316.84v69.46c11.15-14.45,24.84-18.76,39.04-18.76c35.49,0,51.2,24.08,51.2,60.84v65.91h-30.92v-65.65
		c0-22.81-11.91-32.45-28.39-32.45c-18.25,0-30.92,15.46-30.92,34.22v63.88H488.7V316.84H519.63z"/>
	<path class="st0" d="M669.68,334.07c0,24.08-36.5,24.08-36.5,0C633.18,309.99,669.68,309.99,669.68,334.07z M635.96,368.8v125.48
		h30.93V368.8H635.96z"/>
	<path class="st0" d="M723.41,369.31l2.28,14.45c9.63-15.46,22.56-17.75,35.23-17.75c12.93,0,25.35,5.07,32.19,11.91l-13.94,26.87
		c-6.34-5.32-12.17-8.11-22.31-8.11c-16.22,0-31.18,8.62-31.18,31.69v65.91h-30.93V369.31H723.41z"/>
	<path class="st0" d="M903.88,369.31h29.66v124.97h-29.15l-1.52-18.25c-7.1,14.7-26.62,21.8-40.56,22.05
		c-37.01,0.25-64.39-22.56-64.39-66.41c0-43.09,28.64-65.65,65.15-65.4c16.73,0,32.7,7.86,39.8,20.28L903.88,369.31z M828.85,431.67
		c0,23.83,16.47,38.02,37.01,38.02c48.67,0,48.67-75.79,0-75.79C845.32,393.9,828.85,407.84,828.85,431.67z"/>
</g>
</svg>
