<?xml version="1.0" encoding="utf-8"?>
<!-- Generator: Adobe Illustrator 24.1.2, SVG Export Plug-In . SVG Version: 6.00 Build 0)  -->
<svg version="1.1" id="Camada_1" xmlns="http://www.w3.org/2000/svg" xmlns:xlink="http://www.w3.org/1999/xlink" x="0px" y="0px"
	 viewBox="0 0 1000 1000" style="enable-background:new 0 0 1000 1000;" xml:space="preserve">
<style type="text/css">
	.st0{fill:#FFFFFF;}
	.st1{fill:#FCC139;}
	.st2{fill:#63BEAB;}
	.st3{fill:url(#SVGID_1_);}
</style>
<g>
	<g>
		<g>
			<path class="st0" d="M548.66,580.15c-0.86-1.44-3.24-2.81-5.97-2.81c-3.52,0-5.22,1.47-5.22,3.34c0,2.19,2.59,2.81,5.61,3.16
				c5.25,0.65,10.14,2.01,10.14,8.02c0,5.61-4.96,8.02-10.57,8.02c-5.14,0-9.1-1.58-10.97-6.19l3.96-2.05
				c1.11,2.77,4.03,3.99,7.09,3.99c2.99,0,5.79-1.04,5.79-3.78c0-2.37-2.48-3.34-5.83-3.7c-5.14-0.61-9.89-1.98-9.89-7.62
				c0-5.18,5.11-7.3,9.75-7.34c3.92,0,7.98,1.11,9.89,5L548.66,580.15z"/>
			<path class="st0" d="M561.36,576.51c0,3.42-5.18,3.42-5.18,0C556.18,573.1,561.36,573.1,561.36,576.51z M556.57,581.44v17.8h4.39
				v-17.8H556.57z"/>
			<path class="st0" d="M576.5,586.22c-1.26-1.19-2.7-1.58-4.39-1.58c-2.09,0-3.24,0.65-3.24,1.76c0,1.15,1.04,1.8,3.31,1.94
				c3.34,0.22,7.59,0.97,7.59,5.68c0,3.13-2.55,5.83-7.62,5.83c-2.81,0-5.61-0.47-8.2-3.17l2.16-3.13c1.26,1.4,4.14,2.45,6.11,2.48
				c1.65,0.04,3.2-0.83,3.2-2.12c0-1.22-1.01-1.73-3.52-1.87c-3.34-0.25-7.34-1.47-7.34-5.5c0-4.1,4.24-5.54,7.48-5.54
				c2.77,0,4.86,0.54,6.91,2.34L576.5,586.22z"/>
			<path class="st0" d="M588.76,576.51v5.04h4.89v3.78h-4.93v7.66c0,1.69,0.94,2.52,2.3,2.52c0.68,0,1.47-0.22,2.12-0.54l1.22,3.74
				c-1.26,0.5-2.3,0.72-3.63,0.76c-3.85,0.14-6.37-2.05-6.37-6.47v-7.66h-3.31v-3.78h3.31v-4.57L588.76,576.51z"/>
			<path class="st0" d="M600.66,591.94c0.29,2.19,2.19,3.78,5.29,3.78c1.62,0,3.74-0.61,4.75-1.65l2.81,2.77
				c-1.87,1.94-4.93,2.88-7.62,2.88c-6.11,0-9.75-3.78-9.75-9.46c0-5.39,3.67-9.28,9.42-9.28c5.93,0,9.64,3.67,8.96,10.97H600.66z
				 M610.3,588.31c-0.29-2.3-2.09-3.45-4.6-3.45c-2.37,0-4.32,1.15-4.96,3.45H610.3z"/>
			<path class="st0" d="M629.33,599.24v-9.49c0-2.34-1.22-4.46-3.63-4.46c-2.37,0-3.78,2.12-3.78,4.46v9.49h-4.39v-17.77h4.06
				l0.32,2.16c0.93-1.8,2.99-2.45,4.68-2.45c2.12,0,4.24,0.86,5.25,3.31c1.58-2.52,3.63-3.24,5.93-3.24c5.04,0,7.52,3.09,7.52,8.42
				v9.57h-4.39v-9.57c0-2.34-0.97-4.32-3.34-4.32c-2.37,0-3.85,2.05-3.85,4.39v9.49H629.33z"/>
			<path class="st0" d="M663.82,581.51h4.21v17.73h-4.14l-0.22-2.59c-1.01,2.09-3.78,3.09-5.75,3.13c-5.25,0.04-9.13-3.2-9.13-9.42
				c0-6.11,4.06-9.31,9.24-9.28c2.37,0,4.64,1.11,5.65,2.88L663.82,581.51z M653.17,590.36c0,3.38,2.34,5.39,5.25,5.39
				c6.91,0,6.91-10.75,0-10.75C655.51,585,653.17,586.98,653.17,590.36z"/>
			<path class="st0" d="M701.4,574.1v14.42c0,7.44-4.57,11.26-10.9,11.26c-6.04,0-11.19-3.67-11.19-11.26V574.1h4.71v14.42
				c0,4.53,2.59,6.94,6.51,6.94c3.92,0,6.15-2.63,6.15-6.94V574.1H701.4z M696.08,566.12h-5.18l-2.66,4.89v0.22h3.88l3.96-4.93
				V566.12z"/>
			<path class="st0" d="M718.41,599.24v-9.28c0-2.7-1.47-4.75-4.28-4.75c-2.7,0-4.53,2.27-4.53,4.96v9.06h-4.35v-17.77h3.92
				l0.29,2.41c1.8-1.76,3.6-2.66,5.83-2.66c4.17,0,7.52,3.13,7.52,8.7v9.32H718.41z"/>
			<path class="st0" d="M731.36,576.51c0,3.42-5.18,3.42-5.18,0C726.18,573.1,731.36,573.1,731.36,576.51z M726.58,581.44v17.8h4.39
				v-17.8H726.58z"/>
			<path class="st0" d="M750.14,596.98c-2.05,2.01-4.21,2.8-6.83,2.8c-5.14,0-9.42-3.09-9.42-9.39c0-6.29,4.28-9.39,9.42-9.39
				c2.52,0,4.46,0.72,6.4,2.63l-2.77,2.91c-1.04-0.94-2.34-1.4-3.56-1.4c-2.95,0-5.11,2.16-5.11,5.25c0,3.38,2.3,5.18,5.04,5.18
				c1.4,0,2.81-0.4,3.88-1.47L750.14,596.98z"/>
			<path class="st0" d="M770.06,590.4c0,5.11-3.49,9.24-9.24,9.24c-5.75,0-9.21-4.14-9.21-9.24c0-5.07,3.52-9.24,9.17-9.24
				C766.43,581.15,770.06,585.33,770.06,590.4z M756,590.4c0,2.7,1.62,5.21,4.82,5.21c3.2,0,4.82-2.52,4.82-5.21
				c0-2.66-1.87-5.25-4.82-5.25C757.65,585.15,756,587.74,756,590.4z"/>
			<path class="st0" d="M798.76,574.1v25.14h-4.1l-0.29-2.45c-1.37,2.12-3.56,2.84-5.72,2.84c-5.22,0-9.14-3.45-9.14-9.28
				c0-6.11,3.85-9.28,9.03-9.28c1.87,0,4.78,1.01,5.83,2.84v-9.82H798.76z M783.9,590.36c0,3.09,2.23,5.22,5.04,5.22
				c2.77,0,5.14-2.01,5.14-5.22c0-3.09-2.37-5.18-5.14-5.18C786.13,585.18,783.9,587.16,783.9,590.36z"/>
			<path class="st0" d="M806.71,591.94c0.29,2.19,2.19,3.78,5.29,3.78c1.62,0,3.74-0.61,4.75-1.65l2.81,2.77
				c-1.87,1.94-4.93,2.88-7.62,2.88c-6.11,0-9.75-3.78-9.75-9.46c0-5.39,3.67-9.28,9.42-9.28c5.93,0,9.64,3.67,8.96,10.97H806.71z
				 M816.34,588.31c-0.29-2.3-2.09-3.45-4.6-3.45c-2.37,0-4.32,1.15-4.96,3.45H816.34z"/>
			<path class="st0" d="M847.06,580.15c-0.86-1.44-3.24-2.81-5.97-2.81c-3.52,0-5.22,1.47-5.22,3.34c0,2.19,2.59,2.81,5.61,3.16
				c5.25,0.65,10.14,2.01,10.14,8.02c0,5.61-4.96,8.02-10.57,8.02c-5.14,0-9.1-1.58-10.97-6.19l3.96-2.05
				c1.11,2.77,4.03,3.99,7.09,3.99c2.99,0,5.79-1.04,5.79-3.78c0-2.37-2.48-3.34-5.83-3.7c-5.14-0.61-9.89-1.98-9.89-7.62
				c0-5.18,5.11-7.3,9.75-7.34c3.92,0,7.98,1.11,9.89,5L847.06,580.15z"/>
			<path class="st0" d="M881.73,581.51v9.28c0,2.7,1.47,4.75,4.28,4.75c2.7,0,4.53-2.27,4.53-4.96v-9.06h4.35v17.77h-3.92
				l-0.29-2.41c-1.83,1.8-3.52,2.66-6.01,2.66c-4.24,0-7.34-3.2-7.34-8.7v-9.31H881.73z"/>
			<path class="st0" d="M917.19,574.1v25.14h-4.1l-0.29-2.45c-1.37,2.12-3.56,2.84-5.72,2.84c-5.21,0-9.14-3.45-9.14-9.28
				c0-6.11,3.85-9.28,9.03-9.28c1.87,0,4.78,1.01,5.83,2.84v-9.82H917.19z M902.34,590.36c0,3.09,2.23,5.22,5.04,5.22
				c2.77,0,5.14-2.01,5.14-5.22c0-3.09-2.37-5.18-5.14-5.18C904.57,585.18,902.34,587.16,902.34,590.36z"/>
			<path class="st0" d="M925.14,591.94c0.29,2.19,2.19,3.78,5.29,3.78c1.62,0,3.74-0.61,4.75-1.65l2.81,2.77
				c-1.87,1.94-4.93,2.88-7.62,2.88c-6.11,0-9.75-3.78-9.75-9.46c0-5.39,3.67-9.28,9.42-9.28c5.93,0,9.64,3.67,8.96,10.97H925.14z
				 M934.78,588.31c-0.29-2.3-2.09-3.45-4.6-3.45c-2.37,0-4.32,1.15-4.96,3.45H934.78z"/>
		</g>
		<g>
			<g>
				<path class="st0" d="M532.06,511.11l29.56-0.51c0.14,7.93,6.49,12.44,18.05,12.24c10.73-0.18,16.94-4.09,16.83-10.53
					c-0.11-6.6-7.25-8.63-20.81-9.88c-31.6-2.93-42.9-16.94-43.24-36.42c-0.36-20.8,17.72-35.48,44.64-35.94
					c26.91-0.46,45.5,14.42,45.89,37.04l-29.06,0.5c-0.12-7.26-6.14-11.46-16.05-11.29c-10.07,0.17-15.46,4.06-15.35,10.17
					c0.1,5.78,4.44,8.68,17.84,9.77c33.58,2.73,46.35,15.72,46.7,36.36c0.37,21.46-18.54,36.16-46.61,36.64
					C550.56,549.77,532.48,535.55,532.06,511.11z"/>
				<path class="st0" d="M644.22,502.25l-1.22-71.49l30.22-0.52l1.22,71.33c0.2,11.39,6.58,17.56,18.14,17.36
					c11.56-0.2,17.72-6.58,17.53-17.97l-1.22-71.33l30.22-0.52l1.22,71.49c0.47,27.41-17.87,46.22-47.26,46.72
					C663.66,547.83,644.68,529.66,644.22,502.25z"/>
				<path class="st0" d="M758.42,507.23l29.56-0.51c0.14,7.93,6.49,12.44,18.05,12.24c10.73-0.18,16.94-4.09,16.83-10.53
					c-0.11-6.6-7.25-8.63-20.81-9.88c-31.6-2.93-42.9-16.94-43.24-36.42c-0.36-20.8,17.72-35.48,44.64-35.94
					c26.91-0.46,45.5,14.42,45.89,37.04l-29.06,0.5c-0.12-7.26-6.14-11.46-16.05-11.29c-10.07,0.17-15.46,4.06-15.35,10.17
					c0.1,5.78,4.44,8.68,17.84,9.77c33.57,2.73,46.35,15.72,46.7,36.36c0.37,21.46-18.54,36.16-46.61,36.64
					C776.92,545.89,758.84,531.67,758.42,507.23z"/>
			</g>
		</g>
		<g>
			<circle class="st1" cx="129.58" cy="615.92" r="43.36"/>
			<path class="st2" d="M423.75,413.59h-79.79V277.49h-80.09c-30.93,0-56,25.07-56,56v72.86v7.23v128.87h6.02v7.23h130.07h6.02
				h130.07v-79.79C480.05,438.8,454.85,413.59,423.75,413.59z"/>
			<radialGradient id="SVGID_1_" cx="245.8051" cy="507.5285" r="298.569" gradientUnits="userSpaceOnUse">
				<stop  offset="0" style="stop-color:#000000"/>
				<stop  offset="0.0849" style="stop-color:#2A2A2A;stop-opacity:0.9084"/>
				<stop  offset="0.2112" style="stop-color:#626262;stop-opacity:0.772"/>
				<stop  offset="0.3382" style="stop-color:#929292;stop-opacity:0.6348"/>
				<stop  offset="0.4633" style="stop-color:#B9B9B9;stop-opacity:0.4997"/>
				<stop  offset="0.5859" style="stop-color:#D8D8D8;stop-opacity:0.3673"/>
				<stop  offset="0.7055" style="stop-color:#EDEDED;stop-opacity:0.2382"/>
				<stop  offset="0.8205" style="stop-color:#FBFBFB;stop-opacity:0.114"/>
				<stop  offset="0.9261" style="stop-color:#FFFFFF;stop-opacity:0"/>
			</radialGradient>
			<path class="st3" d="M423.75,413.59h-79.79V277.49h-80.09c-30.93,0-56,25.07-56,56v72.86v7.23v128.87h6.02v7.23h130.07h6.02
				h130.07v-79.79C480.05,438.8,454.85,413.59,423.75,413.59z"/>
			<path class="st1" d="M343.96,515.36v113.41c0,12.19-3.82,23.47-10.33,32.73c-10.33,10.51-24.73,17.04-40.65,17.04h-79.09V542.46
				H77.8V413.59h164.4C298.4,413.59,343.96,459.15,343.96,515.36z"/>
		</g>
	</g>
	<g>
		<path class="st0" d="M548.33,580.15c-0.86-1.44-3.24-2.81-5.97-2.81c-3.52,0-5.22,1.47-5.22,3.34c0,2.19,2.59,2.81,5.61,3.16
			c5.25,0.65,10.14,2.01,10.14,8.02c0,5.61-4.96,8.02-10.57,8.02c-5.14,0-9.1-1.58-10.97-6.19l3.96-2.05
			c1.11,2.77,4.03,3.99,7.09,3.99c2.99,0,5.79-1.04,5.79-3.78c0-2.37-2.48-3.34-5.83-3.7c-5.14-0.61-9.89-1.98-9.89-7.62
			c0-5.18,5.11-7.3,9.75-7.34c3.92,0,7.98,1.11,9.89,5L548.33,580.15z"/>
		<path class="st0" d="M561.03,576.51c0,3.42-5.18,3.42-5.18,0C555.85,573.1,561.03,573.1,561.03,576.51z M556.24,581.44v17.8h4.39
			v-17.8H556.24z"/>
		<path class="st0" d="M576.17,586.22c-1.26-1.19-2.7-1.58-4.39-1.58c-2.09,0-3.24,0.65-3.24,1.76c0,1.15,1.04,1.8,3.31,1.94
			c3.34,0.22,7.59,0.97,7.59,5.68c0,3.13-2.55,5.83-7.62,5.83c-2.81,0-5.61-0.47-8.2-3.17l2.16-3.13c1.26,1.4,4.14,2.45,6.11,2.48
			c1.65,0.04,3.2-0.83,3.2-2.12c0-1.22-1.01-1.73-3.52-1.87c-3.34-0.25-7.34-1.47-7.34-5.5c0-4.1,4.24-5.54,7.48-5.54
			c2.77,0,4.86,0.54,6.91,2.34L576.17,586.22z"/>
		<path class="st0" d="M588.43,576.51v5.04h4.89v3.78h-4.93v7.66c0,1.69,0.94,2.52,2.3,2.52c0.68,0,1.47-0.22,2.12-0.54l1.22,3.74
			c-1.26,0.5-2.3,0.72-3.63,0.76c-3.85,0.14-6.37-2.05-6.37-6.47v-7.66h-3.31v-3.78h3.31v-4.57L588.43,576.51z"/>
		<path class="st0" d="M600.33,591.94c0.29,2.19,2.19,3.78,5.29,3.78c1.62,0,3.74-0.61,4.75-1.65l2.81,2.77
			c-1.87,1.94-4.93,2.88-7.62,2.88c-6.11,0-9.75-3.78-9.75-9.46c0-5.39,3.67-9.28,9.42-9.28c5.93,0,9.64,3.67,8.96,10.97H600.33z
			 M609.97,588.31c-0.29-2.3-2.09-3.45-4.6-3.45c-2.37,0-4.32,1.15-4.96,3.45H609.97z"/>
		<path class="st0" d="M629,599.24v-9.49c0-2.34-1.22-4.46-3.63-4.46c-2.37,0-3.78,2.12-3.78,4.46v9.49h-4.39v-17.77h4.06l0.32,2.16
			c0.93-1.8,2.99-2.45,4.68-2.45c2.12,0,4.24,0.86,5.25,3.31c1.58-2.52,3.63-3.24,5.93-3.24c5.04,0,7.52,3.09,7.52,8.42v9.57h-4.39
			v-9.57c0-2.34-0.97-4.32-3.34-4.32c-2.37,0-3.85,2.05-3.85,4.39v9.49H629z"/>
		<path class="st0" d="M663.49,581.51h4.21v17.73h-4.14l-0.22-2.59c-1.01,2.09-3.78,3.09-5.75,3.13c-5.25,0.04-9.13-3.2-9.13-9.42
			c0-6.11,4.06-9.31,9.24-9.28c2.37,0,4.64,1.11,5.65,2.88L663.49,581.51z M652.84,590.36c0,3.38,2.34,5.39,5.25,5.39
			c6.91,0,6.91-10.75,0-10.75C655.18,585,652.84,586.98,652.84,590.36z"/>
		<path class="st0" d="M701.07,574.1v14.42c0,7.44-4.57,11.26-10.9,11.26c-6.04,0-11.19-3.67-11.19-11.26V574.1h4.71v14.42
			c0,4.53,2.59,6.94,6.51,6.94s6.15-2.63,6.15-6.94V574.1H701.07z M695.75,566.12h-5.18l-2.66,4.89v0.22h3.88l3.96-4.93V566.12z"/>
		<path class="st0" d="M718.08,599.24v-9.28c0-2.7-1.47-4.75-4.28-4.75c-2.7,0-4.53,2.27-4.53,4.96v9.06h-4.35v-17.77h3.92
			l0.29,2.41c1.8-1.76,3.6-2.66,5.83-2.66c4.17,0,7.52,3.13,7.52,8.7v9.32H718.08z"/>
		<path class="st0" d="M731.03,576.51c0,3.42-5.18,3.42-5.18,0C725.85,573.1,731.03,573.1,731.03,576.51z M726.25,581.44v17.8h4.39
			v-17.8H726.25z"/>
		<path class="st0" d="M749.8,596.98c-2.05,2.01-4.21,2.8-6.83,2.8c-5.14,0-9.42-3.09-9.42-9.39c0-6.29,4.28-9.39,9.42-9.39
			c2.52,0,4.46,0.72,6.4,2.63l-2.77,2.91c-1.04-0.94-2.34-1.4-3.56-1.4c-2.95,0-5.11,2.16-5.11,5.25c0,3.38,2.3,5.18,5.04,5.18
			c1.4,0,2.81-0.4,3.88-1.47L749.8,596.98z"/>
		<path class="st0" d="M769.73,590.4c0,5.11-3.49,9.24-9.24,9.24c-5.75,0-9.21-4.14-9.21-9.24c0-5.07,3.52-9.24,9.17-9.24
			C766.1,581.15,769.73,585.33,769.73,590.4z M755.67,590.4c0,2.7,1.62,5.21,4.82,5.21c3.2,0,4.82-2.52,4.82-5.21
			c0-2.66-1.87-5.25-4.82-5.25C757.32,585.15,755.67,587.74,755.67,590.4z"/>
		<path class="st0" d="M798.43,574.1v25.14h-4.1l-0.29-2.45c-1.37,2.12-3.56,2.84-5.72,2.84c-5.22,0-9.14-3.45-9.14-9.28
			c0-6.11,3.85-9.28,9.03-9.28c1.87,0,4.78,1.01,5.83,2.84v-9.82H798.43z M783.57,590.36c0,3.09,2.23,5.22,5.04,5.22
			c2.77,0,5.14-2.01,5.14-5.22c0-3.09-2.37-5.18-5.14-5.18C785.8,585.18,783.57,587.16,783.57,590.36z"/>
		<path class="st0" d="M806.38,591.94c0.29,2.19,2.19,3.78,5.29,3.78c1.62,0,3.74-0.61,4.75-1.65l2.81,2.77
			c-1.87,1.94-4.93,2.88-7.62,2.88c-6.11,0-9.75-3.78-9.75-9.46c0-5.39,3.67-9.28,9.42-9.28c5.93,0,9.64,3.67,8.96,10.97H806.38z
			 M816.01,588.31c-0.29-2.3-2.09-3.45-4.6-3.45c-2.37,0-4.32,1.15-4.96,3.45H816.01z"/>
		<path class="st0" d="M846.73,580.15c-0.86-1.44-3.24-2.81-5.97-2.81c-3.52,0-5.22,1.47-5.22,3.34c0,2.19,2.59,2.81,5.61,3.16
			c5.25,0.65,10.14,2.01,10.14,8.02c0,5.61-4.96,8.02-10.57,8.02c-5.14,0-9.1-1.58-10.97-6.19l3.96-2.05
			c1.11,2.77,4.03,3.99,7.09,3.99c2.99,0,5.79-1.04,5.79-3.78c0-2.37-2.48-3.34-5.83-3.7c-5.14-0.61-9.89-1.98-9.89-7.62
			c0-5.18,5.11-7.3,9.75-7.34c3.92,0,7.98,1.11,9.89,5L846.73,580.15z"/>
		<path class="st0" d="M869.71,583.96l0.14-2.45h4.21v17.73h-4.14l-0.22-2.59c-1.01,2.09-3.78,3.09-5.75,3.13
			c-5.25,0.04-9.13-3.2-9.13-9.42c0-6.11,4.06-9.31,9.24-9.28C866.44,581.08,868.7,582.2,869.71,583.96z M864.46,585
			c-2.91,0-5.25,1.98-5.25,5.36c0,3.38,2.34,5.39,5.25,5.39C871.36,595.76,871.36,585,864.46,585z M891.62,573.71h-5.18l-2.66,4.89
			v0.22h3.88l3.96-4.93V573.71z"/>
		<path class="st0" d="M881.4,581.51v9.28c0,2.7,1.47,4.75,4.28,4.75c2.7,0,4.53-2.27,4.53-4.96v-9.06h4.35v17.77h-3.92l-0.29-2.41
			c-1.83,1.8-3.52,2.66-6.01,2.66c-4.24,0-7.34-3.2-7.34-8.7v-9.31H881.4z"/>
		<path class="st0" d="M916.86,574.1v25.14h-4.1l-0.29-2.45c-1.37,2.12-3.56,2.84-5.72,2.84c-5.21,0-9.14-3.45-9.14-9.28
			c0-6.11,3.85-9.28,9.03-9.28c1.87,0,4.78,1.01,5.83,2.84v-9.82H916.86z M902.01,590.36c0,3.09,2.23,5.22,5.04,5.22
			c2.77,0,5.14-2.01,5.14-5.22c0-3.09-2.37-5.18-5.14-5.18C904.24,585.18,902.01,587.16,902.01,590.36z"/>
		<path class="st0" d="M924.81,591.94c0.29,2.19,2.19,3.78,5.29,3.78c1.62,0,3.74-0.61,4.75-1.65l2.81,2.77
			c-1.87,1.94-4.93,2.88-7.62,2.88c-6.11,0-9.75-3.78-9.75-9.46c0-5.39,3.67-9.28,9.42-9.28c5.93,0,9.64,3.67,8.96,10.97H924.81z
			 M934.45,588.31c-0.29-2.3-2.09-3.45-4.6-3.45c-2.37,0-4.32,1.15-4.96,3.45H934.45z"/>
	</g>
</g>
</svg>
