<?xml version="1.0" encoding="utf-8"?>
<!-- Generator: Adobe Illustrator 24.1.2, SVG Export Plug-In . SVG Version: 6.00 Build 0)  -->
<svg version="1.1" id="Camada_1" xmlns="http://www.w3.org/2000/svg" xmlns:xlink="http://www.w3.org/1999/xlink" x="0px" y="0px"
	 viewBox="0 0 1000 1000" style="enable-background:new 0 0 1000 1000;" xml:space="preserve">
<style type="text/css">
	.st0{fill:#F8F5E0;}
	.st1{fill:#70B84F;}
</style>
<g>
	<g>
		<path class="st0" d="M602.54,395.03c-29.1,27.14-60.89,58.67-64.35,64.52c-2.32,4.39-7.53,5.76-11.93,3.82
			c-4.39-2.32-6.13-7.54-3.82-11.93c4.63-8.79,48.88-51.16,67.41-68.9c16.65-16.67,26.03-39.06,25.4-61.29
			c-0.4-15.93-5.31-28.26-14.75-36.98c-10.53-9.86-27.08-15.03-48.91-15.87c6.42,11.25,6.95,21.26,6.95,21.26
			c0.27,4.82-3.52,8.81-8.34,9.08c-4.82,0.27-8.81-3.52-9.08-8.34c0.03-1.48-2.24-33.38-53.58-39.3
			c-11.45-1.36-47.48,3.79-62.54,32.34c-19.69,36.98,5.67,80.11,6.03,80.86c2.5,4.13,1.27,9.66-2.86,12.16
			c-4.13,2.5-9.66,1.27-12.16-2.86c-1.43-2.25-31.09-52.15-6.39-98.27c1.92-3.29,3.84-6.21,5.75-9.13
			c-16.3,0.39-30.1,4.9-40.3,14.31c-17.76,16.28-21.28,42.12-20.44,54.73c1.93,30.78,36.05,62.62,61.09,86.12
			c14.52,13.65,25.05,23.13,28.2,31.72c1.75,4.48-0.58,9.62-5.06,11.37s-9.62-0.58-11.37-5.06s-13.37-15.47-23.9-24.96
			c-27.22-25.4-64.25-59.9-66.39-97.72c-1.06-19.65,5.14-49.51,26.3-68.68c14.35-13.02,33-19.28,55.58-18.79
			c4.44,0.1,8.88,0.56,13.68,1.04c17.69-13.32,38.89-17.3,52.21-17.02c1.85,0.04,3.33,0.07,4.43,0.47
			c21.8,2.32,36.46,9.31,46.66,16.93c4.08-0.28,8.15-0.19,12.22-0.11c28.13,0.61,49.82,7.74,64.35,21.02
			c13.07,12.13,19.75,28.57,20.41,49.32C633.57,347.56,622.61,374.72,602.54,395.03z"/>
		<path class="st0" d="M513.51,402.36l19.22-32.54c1.54-2.93,4.54-4.35,7.87-4.27c1.48,0.03,2.95,0.43,4.42,1.21
			c4.02,2.31,5.75,7.9,3.07,11.92l-19.22,32.54c-2.31,4.02-7.9,5.75-11.92,3.07C512.56,412.34,511.19,406.75,513.51,402.36z"/>
		<path class="st1" d="M481.87,478.33c4.81,0.1,8.8,4.26,8.69,9.08l-0.73,33.68c-0.1,4.81-4.26,8.8-9.08,8.69
			c-4.81-0.1-8.8-4.26-8.69-9.08l0.73-33.68C472.91,481.84,477.06,478.22,481.87,478.33z"/>
		<path class="st1" d="M506,475.89c1.13-0.72,2.61-1.05,4.1-1.02c3.33,0.07,6.25,1.99,7.67,4.98l10.27,21.7
			c2.12,4.49,0.16,9.63-4.33,11.76c-4.49,2.12-9.63,0.16-11.76-4.33l-10.27-21.7C499.91,483.16,501.88,478.02,506,475.89z"/>
		<path class="st1" d="M443.72,478.61c1.19-3.68,4.94-5.82,8.64-5.74c0.74,0.02,1.85,0.04,2.95,0.43c4.41,1.58,6.89,6.81,5.31,11.22
			l-10.25,28.66c-1.58,4.41-6.81,6.89-11.22,5.31s-6.89-6.81-5.31-11.22L443.72,478.61z"/>
	</g>
	<g>
		<g>
			<g>
				<path class="st0" d="M227.2,656.22c-11,36.22-55.4,51.1-59.68,17.99c-18.44,31.16-61.37,28.25-60.16-11.38
					c1.75-57.19,48.53-73.14,65.42-60.7c0.79,0.71,1.59,1.61,2.59,2.69l6.58-44.83l25.55-1.41c-4.87,34.75-12.56,90-15.86,112.22
					c-3.11,22.22,23.04,4.38,28.23-14.18L227.2,656.22z M173.84,614.51c-12.6-20.03-33.84,1.31-38.35,32.26
					c-5.62,34.61,7.94,51.75,32.11,15c-0.05-0.94,0.06-2.27,0.2-3.22L173.84,614.51z"/>
				<path class="st0" d="M314.9,617.1c-7.14,7.18-14.36,12.85-21.5,16.64c-3.08,43.13-37.11,61.58-59.74,54.35
					c-17.82-5.42-25.1-21.23-24.18-38.61c1.06-18.34,10.91-37.9,27.83-48.82c16.91-11.11,42.97-13.49,53.19,7.8
					c1.7,3.49,2.89,7.95,3.17,13.02c7.41-2.29,14.54-6.26,20.32-10.73L314.9,617.1z M271.05,638.54c-6.07-0.8-11.85-3.11-18.51-7.65
					l9.03-13.88c2.56,2.12,5.48,3.65,8.36,4.62c-3.77-13.73-16.29-25.47-26.18-10.04c-8.64,14.04-14.83,55.65,2.41,64.11
					c9.31,4.77,21.76-5.16,24.94-36.42C271.08,639.11,271.06,638.73,271.05,638.54z"/>
				<path class="st0" d="M418.96,645.83c-14.14,44.12-64.79,51.62-59.23,2.14c1.91-13.29,3.62-26.58,5.34-39.86
					c2.94-21.84-21.57-5.03-27.56,12.63l-8.39,63.01l-26.68,1.47l13.79-94.97l25.74-1.42l-2.04,14.24
					c19.02-24.03,54.75-25.25,49.2,17.45c-3.23,23.54-2.47,16.72-5.34,39.86c-2.86,23.34,22.85,4.4,27.86-14.16L418.96,645.83z"/>
				<path class="st0" d="M521.18,640.95c-11.05,35.28-55.47,49.97-59.69,17.8c-18.27,30.78-61.4,27.69-60.16-11.38
					c0.96-30.39,14.13-61.44,47.69-64.43l47.52-2.62l-1.11,7.22c-4.24,29.06-7.26,45.99-10.39,67.84
					c-2.95,21.64,23.58,3.98,28.81-14.03L521.18,640.95z M467.82,599.24c-12.61-20.22-33.65,1.29-38.55,32.09
					c-5.26,34.39,8.11,51.37,32.11,15L467.82,599.24z"/>
				<path class="st0" d="M611.64,634.83c-12.6,41.39-68.73,55.41-61.11,2.24l9.11-60.23l25.92-1.43
					c-4.26,32.08-7.51,51.66-10.61,74.07c-3.07,22.78,23.99,4.52,29.36-14.24L611.64,634.83z"/>
				<path class="st0" d="M658.69,633.93c-11.97,39.28-64.37,52.54-57.18,1.83l14.28-99.7l25.36-1.4
					c-4.62,32.29-13.61,91.38-16.74,113.22c-2.95,21.64,22.28,4.23,27.13-13.56L658.69,633.93z"/>
				<path class="st0" d="M798.78,625.82c-12.8,41.21-64.52,49.72-58.94,7.4c1.83-14.61,4.01-29.8,6.11-46.31
					c3.33-21.67-16.08-4.58-21.89,13.07c-0.17,0.39-0.34,0.77-0.48,1.53c-0.81,5.89-6.71,55.95-7.38,60.89l-24.8,1.37
					c3.65-29.59,6.3-53.11,8.93-73.79c2.47-20.11-15.85-7.23-22.68,8.98c-0.17,0.19-0.16,0.38-0.33,0.77l-9.39,65.33L642,666.5
					l13.61-94.96l25.92-1.43l-1.73,12.91c14.03-18.86,40.95-22.6,44.07,3.04c18.24-27.95,51.95-31.7,45.37,12.94l-2.08,16.89
					c-1.06,8.16-1.22,8.73-3.19,24.1c-2.37,15.02,22.29,4.42,27.51-13.76L798.78,625.82z"/>
				<path class="st0" d="M901.31,619.97c-11.05,35.28-55.46,49.97-59.69,17.8c-18.27,30.78-61.4,27.7-60.16-11.37
					c0.96-30.39,14.13-61.45,47.69-64.43l47.52-2.62l-1.11,7.22c-4.24,29.06-7.26,45.99-10.39,67.84
					c-2.95,21.64,23.58,3.98,28.81-14.02L901.31,619.97z M847.95,578.26c-12.61-20.22-33.65,1.29-38.55,32.09
					c-5.26,34.39,8.11,51.37,32.11,15L847.95,578.26z"/>
			</g>
			<g>
				<path class="st0" d="M325.61,720.24c-2.1,6.79-11.17,9.04-9.89,0.28l2.54-17.24l4.39-0.22c-0.82,5.58-2.42,15.8-2.98,19.58
					c-0.53,3.74,3.85,0.75,4.71-2.33L325.61,720.24z"/>
				<path class="st0" d="M346.05,719.1c-1.94,6.1-9.63,8.61-10.34,3.04c-3.18,5.31-10.64,4.75-10.4-2.01
					c0.19-5.26,2.49-10.62,8.3-11.11l8.22-0.42l-0.2,1.25c-0.75,5.03-1.29,7.95-1.84,11.73c-0.53,3.74,4.08,0.7,4.99-2.41
					L346.05,719.1z M336.84,711.85c-2.17-3.51-5.82,0.2-6.69,5.52c-0.93,5.95,1.37,8.89,5.54,2.62L336.84,711.85z"/>
				<path class="st0" d="M366.29,717.94c-2.48,7.62-11.25,8.88-10.25,0.33c0.34-2.3,0.65-4.59,0.95-6.89
					c0.52-3.77-3.73-0.89-4.78,2.17l-1.5,10.9l-4.62,0.24l2.45-16.42l4.45-0.23l-0.36,2.46c3.31-4.14,9.49-4.33,8.5,3.05
					c-0.57,4.07-0.44,2.89-0.95,6.89c-0.51,4.04,3.95,0.78,4.83-2.43L366.29,717.94z"/>
				<path class="st0" d="M379.71,717.35c-1.75,3.45-4.52,5.9-8.09,6.21c-4.7,0.44-6.32-3.88-5.64-8.35
					c0.46-3.15,2.02-6.46,4.88-7.81c1.69-0.8,3.38-0.76,4.57,0.09c1.72,1.22,2.18,3.77,1.3,5.64c-0.12,0.3-0.27,0.54-0.42,0.8
					l-1.63-2.56c0.67-1.47,0.52-2.5,0.12-2.74s-1.08-0.11-1.77,0.45c-1.79,1.43-2.59,4.14-2.81,6.24c-0.32,3.37,0.63,5.28,2.15,5.79
					c2.39,0.79,4.64-1.61,6.13-3.7L379.71,717.35z"/>
				<path class="st0" d="M398.92,716.34c-2.29,7.58-11.19,8-10.4,1.8c0.39-3.12,0.78-5.84,1.07-8.43c0.5-3.55-2.64-1.33-3.97,1.47
					l-1.69,11.53l-4.45,0.23l3.46-22.96l4.32-0.22l-1.28,8.73c3.29-3.82,8.73-3.84,7.76,3.32c-0.27,2.29-0.57,4.75-0.88,6.95
					c-0.48,3.94,3.92,0.81,4.8-2.36L398.92,716.34z"/>
				<path class="st0" d="M412.34,715.69c-2.3,4.81-4.9,6.15-8.61,6.24c-6.15,0.12-6.65-7.64-3.87-12.61
					c2.27-3.96,6.46-4.99,8.39-3.52c1.73,1.25,1.88,3.72,1.01,5.68c-1.32,2.77-4,3.92-6.8,3.96c0.11,1.56,0.79,3.35,2.22,3.96
					c2.56,1.04,5.1-1.04,6.49-3.66L412.34,715.69z M402.47,713.91c5.14-0.1,5.41-6.31,4.57-6.91c-0.68-0.45-2.07,0.24-3.15,2.15
					c-0.63,1.08-1.14,2.57-1.4,4.41C402.5,713.68,402.47,713.81,402.47,713.91z"/>
				<path class="st0" d="M415.31,724.79l-0.32-1.22c1.78-0.15,2.29-1.06,2.8-2.55c-1.8-0.14-2.99-1.83-2.5-3.55
					c0.48-1.43,2.01-2.22,3.43-1.77C421.94,716.69,420.24,724.28,415.31,724.79z"/>
				<path class="st0" d="M456.38,713.44c-1.75,3.45-4.52,5.9-8.09,6.21c-4.7,0.44-6.32-3.88-5.64-8.35
					c0.46-3.15,2.02-6.46,4.88-7.81c1.69-0.8,3.38-0.76,4.57,0.09c1.72,1.22,2.18,3.77,1.3,5.64c-0.12,0.3-0.27,0.53-0.42,0.8
					l-1.63-2.56c0.67-1.47,0.52-2.5,0.12-2.74s-1.08-0.11-1.77,0.45c-1.79,1.43-2.59,4.14-2.81,6.24c-0.32,3.37,0.63,5.28,2.15,5.79
					c2.39,0.79,4.64-1.61,6.13-3.7L456.38,713.44z"/>
				<path class="st0" d="M475.54,706.4c-1.24,1.24-2.49,2.21-3.73,2.86c-0.56,7.46-6.46,10.63-10.37,9.36
					c-3.08-0.95-4.33-3.69-4.15-6.7c0.2-3.17,1.91-6.55,4.85-8.43c2.93-1.91,7.44-2.3,9.2,1.39c0.29,0.6,0.49,1.38,0.54,2.25
					c1.28-0.39,2.52-1.07,3.52-1.84L475.54,706.4z M467.94,710.08c-1.05-0.14-2.05-0.55-3.2-1.34l1.57-2.39
					c0.44,0.37,0.95,0.64,1.44,0.81c-0.64-2.38-2.8-4.42-4.52-1.76c-1.51,2.42-2.6,9.62,0.37,11.09c1.61,0.83,3.77-0.88,4.34-6.28
					C467.94,710.17,467.94,710.11,467.94,710.08z"/>
				<path class="st0" d="M489.54,701.05l-7.18,13.79c2.47-0.71,5.41-0.63,7.64,0.33l-2.52,2.25c-3.62-0.6-7.58-0.4-10.86,0.46
					l-0.64,0.16l7.71-14.93l-5.79,0.3l0.59-1.79L489.54,701.05z"/>
				<path class="st0" d="M503.36,710.87c-2.21,7.15-11.93,9.54-10.57,0.35l1.62-10.41l4.49-0.23c-0.76,5.55-1.34,8.93-1.89,12.81
					c-0.55,3.94,4.15,0.8,5.09-2.44L503.36,710.87z M495.32,698.22c-0.48-0.46-0.74-1.04-0.78-1.79c0-0.72,0.19-1.31,0.65-1.86
					c0.5-0.51,1.07-0.8,1.81-0.84s1.31,0.19,1.83,0.66c0.55,0.49,0.84,1.07,0.87,1.78c0.04,0.75-0.23,1.35-0.72,1.86
					c-0.5,0.51-1.1,0.77-1.82,0.81C496.46,698.88,495.83,698.68,495.32,698.22z"/>
				<path class="st0" d="M523.68,709.9c-2.48,7.62-11.25,8.88-10.25,0.33c0.34-2.3,0.65-4.59,0.95-6.89
					c0.53-3.78-3.73-0.89-4.78,2.17l-1.5,10.9l-4.62,0.24l2.45-16.42l4.45-0.23l-0.36,2.46c3.31-4.15,9.49-4.33,8.5,3.05
					c-0.57,4.07-0.44,2.89-0.95,6.89c-0.51,4.03,3.95,0.78,4.83-2.43L523.68,709.9z"/>
				<path class="st0" d="M542.24,709.02c-2.28,7.58-11.19,8-10.4,1.8c0.4-3.12,0.78-5.84,1.07-8.43c0.5-3.55-2.64-1.33-3.96,1.47
					l-1.69,11.53l-4.45,0.23l3.46-22.96l4.32-0.22l-1.28,8.73c3.29-3.82,8.73-3.84,7.76,3.32c-0.27,2.29-0.57,4.75-0.88,6.95
					c-0.48,3.93,3.92,0.81,4.8-2.36L542.24,709.02z"/>
				<path class="st0" d="M562.13,708.07c-1.94,6.09-9.63,8.61-10.34,3.04c-3.18,5.31-10.64,4.75-10.4-2.01
					c0.19-5.26,2.49-10.62,8.3-11.11l8.22-0.42l-0.2,1.25c-0.75,5.03-1.29,7.95-1.85,11.73c-0.53,3.74,4.08,0.7,4.99-2.41
					L562.13,708.07z M552.93,700.81c-2.17-3.51-5.82,0.2-6.69,5.52c-0.93,5.95,1.37,8.89,5.54,2.62L552.93,700.81z"/>
				<path class="st0" d="M601.41,701.89c-1.02,0.41-3.35,1.38-4.38,1.72c-0.24,1.09-0.64,2.15-1.15,3.09
					c-0.56,1.2-1.32,2.25-2.25,3.14c-0.9,0.93-1.93,1.66-3.08,2.21c-1.21,0.55-2.63,0.85-3.96,0.92c-1.04,0.05-2.25-0.05-3.05-0.3
					c-0.76-0.29-1.4-0.68-1.92-1.14c-0.55-0.53-0.91-1.13-1.17-1.8c-0.26-0.7-0.43-1.41-0.47-2.16c-0.04-0.84,0.04-1.73,0.26-2.62
					c0.25-0.92,0.59-1.79,1.07-2.6c1.08-1.75,2.46-2.9,4.42-3.52c-0.74-0.48-1.26-1.04-1.62-1.71c-0.36-0.67-0.56-1.37-0.6-2.09
					c-0.04-0.88,0.08-1.67,0.39-2.53c0.35-0.8,0.8-1.61,1.38-2.32c0.58-0.71,1.3-1.27,2.16-1.74c0.86-0.43,1.79-0.71,2.83-0.76
					c5.36-0.27,6.38,5.67,4.78,9.34c-1.11-0.63-2.68-1.52-3.4-2.04c3.11-4.82-2.9-7.57-4.19-2.2c-0.13,0.56-0.2,1.12-0.18,1.64
					c0.03,0.49,0.11,0.94,0.27,1.39c0.78,2.53,2.34,1.83,4.9,1.54l-0.47,2.27c-4.47,0.46-7.33,2.66-7.09,7.24
					c0.27,5.27,8.16,4.02,10.48-2.85c-1.83,0.49-3.71,0.81-5.62,0.94c0.15-0.95,0.29-2.07,0.4-3.05c3.57-0.38,8.68-2.27,11.78-4.19
					C601.81,698.84,601.58,700.81,601.41,701.89z"/>
				<path class="st0" d="M637.1,702.81c-1.53,6.46-4.58,7.24-8.75,7.45c-1.07,0.05-2.18,0.11-3.41,0.17
					c-0.42,0.02-1.5,0.08-1.88,0.1l3.42-22.99l4.29-0.22l-1.01,6.99c0.76-0.4,1.56-0.67,2.44-0.71c1.43-0.07,2.52,0.29,3.34,0.9
					c0.75,0.55,1.21,1.37,1.62,2.33C637.7,698.54,637.68,700.69,637.1,702.81z M633.03,697.15c-0.62-1.24-1.89-1.86-3.5-0.96
					l-1.7,11.36c3.99,2.76,5.66-3.38,5.83-6.55C633.74,699.43,633.5,697.97,633.03,697.15z"/>
				<path class="st0" d="M658.88,703.06c-1.78,6.02-8.56,8.55-9.6,3.42c-3.23,4.43-9.2,4.84-8.22-2.71l1.55-10.54l4.42-0.23
					c-0.74,5.35-1.35,9.26-1.82,12.9c-0.47,3.61,2.61,1.3,3.9-1.47c0.05-0.33,0.1-0.69,1.59-11.62l4.36-0.22
					c-0.71,5.35-1.23,9.09-1.72,12.9c-0.49,3.81,3.43,0.77,4.28-2.37L658.88,703.06z"/>
				<path class="st0" d="M673.86,692.72l-2.89,2.66c-2.73-1.78-5.01,0.84-6.53,3.63l-1.34,9.49l-4.58,0.23l2.45-16.42l4.45-0.23
					l-0.5,3.58C666.79,692.13,669.48,690.4,673.86,692.72z"/>
				<path class="st0" d="M691.35,690.58l-1.88,12.38c-0.98,7.64-2.84,14.55-12.6,12.28l2.83-3.27c1.69,1.15,2.9,1.25,3.75,0.69
					l0.1-0.53l1.13-7.29c-3.38,4.7-10.39,3.92-10.17-2.71c0.27-7.51,4.44-10.69,7.68-11.02c0.62-0.06,1.2-0.13,1.88-0.16l4.55-0.23
					C688.75,690.72,691.22,690.59,691.35,690.58z M686.33,693.71c-2.17-3.57-5.92,0.17-6.85,5.6c-0.99,6.11,1.44,9.05,5.61,2.71
					L686.33,693.71z"/>
				<path class="st0" d="M712.18,700.34c-1.78,6.02-8.56,8.55-9.6,3.42c-3.23,4.43-9.2,4.84-8.22-2.71l1.55-10.54l4.42-0.23
					c-0.74,5.35-1.35,9.26-1.82,12.9c-0.47,3.61,2.61,1.3,3.9-1.47c0.05-0.33,0.09-0.69,1.59-11.62l4.36-0.22
					c-0.71,5.35-1.23,9.09-1.72,12.9s3.43,0.77,4.28-2.37L712.18,700.34z"/>
				<path class="st0" d="M725.87,699.67c-2.3,4.81-4.9,6.15-8.61,6.24c-6.15,0.12-6.65-7.64-3.87-12.61
					c2.28-3.96,6.46-4.99,8.39-3.52c1.73,1.25,1.88,3.71,1.01,5.68c-1.32,2.77-4,3.92-6.8,3.96c0.11,1.56,0.79,3.35,2.22,3.96
					c2.56,1.04,5.1-1.04,6.49-3.66L725.87,699.67z M716,697.9c5.14-0.1,5.41-6.31,4.57-6.92c-0.67-0.45-2.07,0.24-3.15,2.15
					c-0.63,1.08-1.14,2.57-1.41,4.41C716.02,697.67,715.99,697.8,716,697.9z"/>
				<path class="st0" d="M741.4,689.27l-2.9,2.66c-2.73-1.78-5.01,0.84-6.53,3.62l-1.34,9.49l-4.58,0.23l2.45-16.42l4.45-0.23
					l-0.5,3.58C734.33,688.68,737.01,686.95,741.4,689.27z"/>
			</g>
		</g>
		<path class="st1" d="M573.52,566.74c-9.49-8.69-14.12-11.81-14.22-18.44c0.01-5.49,7.22-10.74,13.89-3.96
			c6.47-6.98,13.83-1.94,14,3.55C587.29,554.52,582.75,557.77,573.52,566.74z"/>
	</g>
</g>
</svg>
