<?xml version="1.0" encoding="utf-8"?>
<!-- Generator: Adobe Illustrator 24.1.2, SVG Export Plug-In . SVG Version: 6.00 Build 0)  -->
<svg version="1.1" id="Camada_1" xmlns="http://www.w3.org/2000/svg" xmlns:xlink="http://www.w3.org/1999/xlink" x="0px" y="0px"
	 viewBox="0 0 1000 1000" style="enable-background:new 0 0 1000 1000;" xml:space="preserve">
<style type="text/css">
	.st0{fill:none;}
	.st1{fill:#FFFFFF;}
	.st2{font-family:'Nexa-Bold';}
	.st3{font-size:67.0202px;}
	.st4{letter-spacing:10;}
	.st5{letter-spacing:13.07;}
	.st6{fill:none;stroke:#FDE192;stroke-width:4;stroke-miterlimit:10;}
</style>
<g>
	<g>
		<path id="SVGID_x5F_1_x5F_" class="st0" d="M165.97,463.59c0-174.78,141.69-316.48,316.48-316.48s316.48,141.69,316.48,316.48"/>
		<text>		<textPath  xlink:href="#SVGID_x5F_1_x5F_" startOffset="0%">
<tspan  class="st1" style="font-family:'BigJohnPRO-Bold'; font-size:60.305px; letter-spacing:200;">ITALIAN STYLE</tspan>		</textPath>
</text>
	</g>
	<g>
		<g>
			<text transform="matrix(1 0 0 1 691.6899 463.0771)" class="st1 st2 st3 st4">2020</text>
		</g>
		<g>
			<text transform="matrix(0.9185 0 0 1 118.5644 463.5947)" class="st1 st2 st3 st5">EST.</text>
		</g>
	</g>
	<g>
		<g>
			<g>
				<g>
					<path class="st6" d="M396.6,554.34l-26.74,27.11c59.78,59.83,142.54,96.63,233.79,96.01l-0.26-38.07
						C522.66,639.94,449.45,607.33,396.6,554.34z"/>
					<path class="st6" d="M601.41,346.74l-204.8,207.6c52.84,52.98,126.05,85.59,206.79,85.04L601.41,346.74L601.41,346.74z"/>
				</g>
			</g>
			<g>
				<g>
					<path class="st6" d="M567.45,346.08l26.92-26.92c-59.37-60.23-141.88-97.6-233.13-97.6l0,38.08
						C441.98,259.63,514.97,292.74,567.45,346.08z"/>
					<path class="st6" d="M361.24,552.29l206.21-206.21c-52.48-53.34-125.47-86.45-206.21-86.45L361.24,552.29L361.24,552.29z"/>
				</g>
			</g>
		</g>
		<circle class="st6" cx="448.09" cy="344.25" r="34.76"/>
		<circle class="st6" cx="515.51" cy="552.29" r="34.76"/>
	</g>
	<g>
		<path id="SVGID_x5F_2_x5F_" class="st0" d="M154.82,466.8c0,190.64,154.54,345.18,345.18,345.18S845.18,657.44,845.18,466.8"/>
		<text>		<textPath  xlink:href="#SVGID_x5F_2_x5F_" startOffset="3.000000e-03%">
<tspan  class="st1" style="font-family:'BigJohnPRO-Bold'; font-size:53.5363px; letter-spacing:300;">PIZZARIA</tspan>		</textPath>
</text>
	</g>
</g>
</svg>
