<?xml version="1.0" encoding="utf-8"?>
<!-- Generator: Adobe Illustrator 24.1.2, SVG Export Plug-In . SVG Version: 6.00 Build 0)  -->
<svg version="1.1" id="Camada_1" xmlns="http://www.w3.org/2000/svg" xmlns:xlink="http://www.w3.org/1999/xlink" x="0px" y="0px"
	 viewBox="0 0 1000 1000" style="enable-background:new 0 0 1000 1000;" xml:space="preserve">
<style type="text/css">
	.st0{fill:#FFF5EF;}
	.st1{fill:#EA4D4E;}
</style>
<g>
	<g>
		<path class="st0" d="M42.01,471.75h8.83v-15.04l30.09-9.65v24.69h15.53v21.26H80.93v29.1c0,5.56-1.14,13.08,5.23,13.08
			c2.13,0,7.19-1.47,10.3-2.78v20.93c-4.91,1.96-16.02,3.11-19.79,3.11c-24.53,0-25.34-13.41-25.84-34.34v-29.1h-8.83V471.75z"/>
		<path class="st0" d="M104.8,478.62c6.54-3.92,20.6-11.61,35.65-11.61c19.62,0,44.31,7.36,44.31,33.68v31.88h9.81v20.93h-34.99
			l-3.92-7.36c-6.05,8.34-16.19,10.46-22.07,10.46c-15.53,0-32.21-8.34-32.21-27.31c0-18.48,15.53-30.09,34.01-30.09
			c9.65,0,15.37,4.74,16.19,5.72v-5.72c0-7.36-6.7-9.16-15.53-9.16c-9.65,0-18.15,4.09-24.36,7.52L104.8,478.62z M151.57,529.96
			v-6.21c-0.49-0.82-2.78-4.74-9.65-4.74c-6.54,0-9.48,3.6-9.48,8.67c0,4.58,3.76,7.68,8.67,7.68
			C146.01,535.36,150.1,532.42,151.57,529.96z"/>
		<path class="st0" d="M251.48,553.51h-50.36v-21.42h6.87v-39.08h-6.87v-21.26h34.83l3.76,10.14c5.56-7.68,13.08-13.08,23.38-13.08
			c25.34,0,29.6,18.8,29.6,35.97v27.31h7.69v21.42h-41.21v-44.64c0-5.56,0.49-15.21-9.16-15.21c-8.34,0-10.3,8.18-10.3,15.21v23.22
			h11.77V553.51z"/>
		<path class="st0" d="M304.62,512.3c0.16-27.31,22.24-42.51,44.8-42.51c25.84,0.33,44.97,15.86,45.46,43.17
			c0.33,27.14-19.79,42.68-44.64,42.68C326.86,555.63,304.29,541.24,304.62,512.3z M361.36,512.96c0-12.26-4.25-21.75-11.94-21.91
			c-6.38,0-11.28,9.48-11.28,21.42c0,13.41,5.23,22.24,12.1,22.24C357.27,534.7,361.36,525.22,361.36,512.96z"/>
		<path class="st0" d="M399.13,553.51v-29.43h21.91c0,8.67,12.43,10.96,17.33,10.96c3.27,0,7.19-0.98,7.19-5.56
			c0-4.91-12.26-5.72-24.04-9.81c-11.12-3.92-21.75-10.79-21.75-26.16c0-16.68,17.17-23.71,28.78-23.71
			c11.12,0,20.93,5.72,24.36,12.75l1.31-10.79h20.11v29.43h-21.26c0-6.87-8.5-12.43-16.68-12.43c-3.43,0-6.38,1.8-6.38,5.89
			c0,4.58,9.65,6.54,20.11,10.14c12.43,4.25,26.33,8.99,26.33,26.16c0,15.37-14.55,24.53-30.41,24.53
			c-11.77,0-21.09-5.72-25.02-11.94l-1.47,9.97H399.13z"/>
		<path class="st0" d="M535.17,553.51h-51.34v-21.42h6.87v-79.96h-6.87v-21.26h39.57v51.02c1.8-2.94,13.74-13.08,25.67-13.08
			c25.34,0,28.61,18.8,28.61,35.97v27.31h7.69v21.42h-42.02v-44.48c0-5.56,0-15.21-9.65-15.21c-8.34,0-10.3,8.18-10.3,15.21v23.06
			h11.77V553.51z"/>
		<path class="st0" d="M637.7,553.51h-45.78v-21.42h6.87v-39.08h-6.87v-21.26h37.93v60.34h7.85V553.51z M614.15,431.2
			c11.28,0,17.99,9.16,17.99,16.68c0,8.99-6.38,16.51-17.99,16.51c-10.3,0-17.66-8.67-17.66-16.51
			C596.5,440.36,602.71,431.2,614.15,431.2z"/>
		<path class="st0" d="M694.44,553.51h-48.56v-21.42h6.87V493.5h-6.87v-21.58h30.9l3.6,9.65c2.62-3.11,10.14-11.94,20.44-11.94
			c16.51,0,21.75,7.85,24.36,11.77c5.07-5.72,12.75-11.77,24.04-11.77c26.49,0,30.58,19.29,30.58,39.24v22.56h8.01v22.07h-41.53
			v-40.06c0-7.85,1.47-20.27-6.21-20.27c-7.03,0-8.67,4.91-8.67,11.94v26.49h9.81v21.91h-42.35v-41.7c0-13.24-0.33-18.64-6.87-18.64
			c-5.23,0-7.36,3.11-7.36,9.81v29.11h9.81V553.51z"/>
		<path class="st0" d="M876.43,542.23c-12.1,10.46-25.18,14.23-42.19,14.23c-20.28,0-43.17-12.92-43.17-44.31
			c0-26.81,19.29-42.68,43.99-42.68c19.46,0,34.34,9.97,39.08,23.71c1.96,5.72,3.76,18.31,0.33,27.63h-51.51
			c0.98,4.42,3.11,13.41,16.84,13.41c5.56,0,14.06-0.49,22.89-7.85L876.43,542.23z M823.45,504.62h24.69
			c-0.16-6.21-1.64-13.08-12.1-13.08C826.07,491.54,823.78,500.53,823.45,504.62z"/>
	</g>
	<circle class="st1" cx="897.17" cy="436.43" r="63.27"/>
	<g>
		<g>
			<path class="st0" d="M880.8,343.5l-2.68-5.67c3.89-2.19,7.56-4.36,11.01-6.51c1.09,2.25,1.94,4.01,2.55,5.29
				C888.14,338.87,884.51,341.16,880.8,343.5z M897.13,343.69h5.74v2.58h17.71v4.97h-14.25c4.12,2.9,9.17,5.01,15.16,6.32
				c-0.92,1.78-1.76,3.67-2.5,5.67c-6.39-1.84-11.76-4.82-16.11-8.95v9.65h-5.74v-9.88c-4.26,3.84-9.68,6.93-16.24,9.28
				c-0.75-2.03-1.54-3.9-2.38-5.62c5.87-1.65,10.78-3.81,14.73-6.46h-13.65v-4.97h17.54V343.69z M879.46,323.97l3.11-4.45
				c3.11,2.12,5.86,4.08,8.25,5.86c-0.14,0.22-1.3,1.84-3.45,4.87C884.54,327.84,881.91,325.75,879.46,323.97z M918.55,343.74
				c-3.28-2.34-6.82-4.84-10.63-7.49v6.42h-15.94v-21.41h4.49c0.2-1.12,0.45-2.4,0.73-3.84h5.83c-0.4,1.34-0.78,2.62-1.12,3.84h6
				v14.9c0.75-1.12,1.8-2.67,3.15-4.64c3.28,2.09,6.82,4.37,10.62,6.84L918.55,343.74z M902.87,326.22h-5.83v3.65h5.83V326.22z
				 M902.87,337.69v-3.7h-5.83v3.7H902.87z M920.06,324.2c-2.76,2.03-5.54,4-8.34,5.9c-0.89-1.59-1.89-3.15-2.98-4.68
				c2.45-1.5,5.18-3.39,8.21-5.67L920.06,324.2z"/>
			<path class="st0" d="M916.22,411.08c-5.56,6.85-11.57,10.28-18.03,10.28c-3.54,0-6.28-1.09-8.22-3.27
				c-1.94-2.18-2.9-5.2-2.9-9.08v-28.11h6.11v29.07c0,3.34,1.8,5.01,5.4,5.01c2.23,0,4.6-0.86,7.09-2.58
				c2.5-1.72,4.79-3.92,6.88-6.6L916.22,411.08z"/>
			<path class="st0" d="M905.2,449.15c4.09,0.42,7.4,2,9.93,4.73s3.8,6.08,3.8,10.05c0,7.65-4.58,13.5-13.73,17.54l-3.35-5.18
				c3.61-1.28,6.45-3.04,8.5-5.28c2.05-2.24,3.08-4.65,3.08-7.23c0-2.3-0.78-4.23-2.34-5.81c-1.56-1.58-4.01-2.6-7.33-3.07
				c-1.43,5.47-2.93,10.16-4.51,14.1c0.61,1.22,1.48,2.73,2.61,4.54l-4.75,3.16c-0.4-0.52-0.79-1.09-1.14-1.71
				c-2.17,2.78-4.58,4.17-7.21,4.17c-2,0-3.68-0.84-5.04-2.52c-1.36-1.68-2.04-3.94-2.04-6.78c0-4.95,2.07-9.78,6.2-14.5
				c-0.94-3.78-1.77-7.65-2.5-11.62l5.44-0.94c0.49,2.75,1.14,5.68,1.94,8.81c1.8-1.06,4.04-1.86,6.72-2.39
				c0.88-3.45,1.63-6.96,2.25-10.52l5.44,1.08C906.6,443.03,905.95,446.15,905.2,449.15z M892.74,469.24
				c-1.22-2.73-2.17-5.07-2.83-7c-1.78,2.95-2.68,5.61-2.68,7.99c0,0.7,0.15,1.35,0.45,1.96c0.3,0.6,0.73,0.9,1.3,0.9
				C889.99,473.08,891.24,471.8,892.74,469.24z M897.6,455.87c-1.09,0.47-2.14,1.05-3.13,1.76c0.33,1.2,0.8,2.56,1.4,4.08
				C896.85,458.69,897.43,456.74,897.6,455.87z"/>
		</g>
	</g>
	<rect x="199.06" y="573.64" class="st1" width="534.58" height="67.15"/>
	<g>
		<path class="st0" d="M281.06,619.49v-21.47h6.63v21.56c0,5.52-2.83,8.38-6.2,8.38c-1.8,0-3.64-0.6-5.09-1.5l1.11-3.98
			C279.35,623.47,281.06,623.42,281.06,619.49z M284.44,593.74c-1.8,0-3.29-1.37-3.29-3.12c0-1.67,1.5-3.08,3.29-3.08
			c1.88,0,3.29,1.41,3.29,3.08C287.73,592.37,286.32,593.74,284.44,593.74z"/>
		<path class="st0" d="M318.91,607v12.83h-6.63v-2.35c-0.98,1.45-2.74,2.57-5.99,2.57c-4.49,0-7.01-2.48-7.01-6.42
			c0-5.18,3.89-7.14,9.71-7.14h3.29c0-2.35-1.28-3.46-2.99-3.46c-1.41,0-2.82,0.51-4.32,1.8l-3.81-3.25
			c2.1-2.14,5.26-3.76,9.11-3.76C316.05,597.8,318.91,600.92,318.91,607z M312.28,611.28h-2.31c-3.04,0-4.06,0.64-4.06,2.18
			c0,1.54,1.2,2.22,2.78,2.22c2.82,0,3.59-1.41,3.59-3.21V611.28z"/>
		<path class="st0" d="M337.94,616.92v10.82h-6.63v-29.73h6.63v2.91c1.84-2.44,4.83-3.12,7.01-3.12c5.39,0,9.63,3.76,9.63,11.12
			c0,6.93-4.24,11.12-9.63,11.12C342.78,620.04,339.78,619.36,337.94,616.92z M337.94,608.92c0,3.46,1.8,5.9,5,5.9
			c3.21,0,5-2.44,5-5.9c0-3.42-1.8-5.9-5-5.9C339.74,603.02,337.94,605.5,337.94,608.92z"/>
		<path class="st0" d="M384.05,607v12.83h-6.63v-2.35c-0.98,1.45-2.74,2.57-5.99,2.57c-4.49,0-7.01-2.48-7.01-6.42
			c0-5.18,3.89-7.14,9.71-7.14h3.29c0-2.35-1.28-3.46-2.99-3.46c-1.41,0-2.82,0.51-4.32,1.8l-3.81-3.25
			c2.1-2.14,5.26-3.76,9.11-3.76C381.18,597.8,384.05,600.92,384.05,607z M377.42,611.28h-2.31c-3.04,0-4.06,0.64-4.06,2.18
			c0,1.54,1.2,2.22,2.78,2.22c2.82,0,3.59-1.41,3.59-3.21V611.28z"/>
		<path class="st0" d="M409.71,619.83v-12.66c0-3.25-1.2-4.62-3.68-4.62c-2.57,0-3.68,1.37-3.68,4.62v12.66h-6.33v-21.82h6.33v2.44
			c1.37-1.75,3.89-2.65,6.16-2.65c5.05,0,7.49,2.87,7.49,8.94l0.04,13.09H409.71z"/>
		<path class="st0" d="M433.79,610.93c0,2.48,2.44,3.89,4.88,3.89c1.71,0,3.68-0.68,4.96-2.05l3.93,3.64
			c-2.31,2.27-5.26,3.64-9.24,3.64c-6.93,0-11.16-4.92-11.16-11.16c0-6.24,4.24-11.08,10.78-11.08c6.67,0,10.82,4.75,10.82,11.08
			v2.18L433.79,610.93z M437.94,603.02c-2.31,0-4.15,1.54-4.15,3.89h8.34C442.13,604.56,440.33,603.02,437.94,603.02z"/>
		<path class="st0" d="M470.23,607.43c3.42,1.54,5.69,3.34,5.69,6.42c0,4.02-3.55,6.2-8.09,6.2c-3.29,0-7.36-1.41-9.67-4.02
			l3.85-3.85c1.75,1.8,3.85,2.65,5.26,2.65c1.32,0,2.01-0.47,2.01-1.37c0-1.37-1.54-2.14-4.4-3.55c-3.72-1.84-5.39-3.51-5.39-6.12
			c0-4.58,4.92-5.99,7.96-5.99c2.99,0,6.54,1.07,8.64,3.55l-3.72,3.72c-1.11-1.15-2.65-2.05-4.36-2.05c-0.77,0-1.88,0.39-1.88,1.28
			C466.12,605.33,466.81,605.84,470.23,607.43z"/>
		<path class="st0" d="M493.41,610.93c0,2.48,2.44,3.89,4.87,3.89c1.71,0,3.68-0.68,4.96-2.05l3.94,3.64
			c-2.31,2.27-5.26,3.64-9.24,3.64c-6.93,0-11.16-4.92-11.16-11.16c0-6.24,4.24-11.08,10.78-11.08c6.67,0,10.82,4.75,10.82,11.08
			v2.18L493.41,610.93z M497.56,603.02c-2.31,0-4.15,1.54-4.15,3.89h8.34C501.75,604.56,499.95,603.02,497.56,603.02z"/>
		<path class="st0" d="M554.48,592.75c-1.54,0-2.48,1.2-2.48,3.29v1.97H557v5.22H552v16.6h-6.63v-16.6h-2.35v-5.22h2.35v-1.58
			c0-6.24,2.78-8.9,6.76-8.9c2.35,0,4.06,0.94,4.88,1.88v4.23C556.4,593.18,555.46,592.75,554.48,592.75z"/>
		<path class="st0" d="M589.68,608.97c0,7.14-5.35,11.08-11.42,11.08c-6.08,0-11.42-3.93-11.42-11.08c0-7.14,5.35-11.16,11.42-11.16
			C584.33,597.8,589.68,601.82,589.68,608.97z M573.47,608.97c0,3.42,1.58,5.86,4.79,5.86c3.21,0,4.79-2.44,4.79-5.86
			c0-3.46-1.58-5.95-4.79-5.95C575.05,603.02,573.47,605.5,573.47,608.97z"/>
		<path class="st0" d="M622.78,608.97c0,7.14-5.35,11.08-11.42,11.08c-6.08,0-11.42-3.93-11.42-11.08c0-7.14,5.35-11.16,11.42-11.16
			C617.43,597.8,622.78,601.82,622.78,608.97z M606.57,608.97c0,3.42,1.58,5.86,4.79,5.86c3.21,0,4.79-2.44,4.79-5.86
			c0-3.46-1.58-5.95-4.79-5.95C608.15,603.02,606.57,605.5,606.57,608.97z"/>
		<path class="st0" d="M649.69,600.92v-14.46h6.63v33.36h-6.63v-2.91c-1.84,2.44-4.83,3.12-7.02,3.12c-5.39,0-9.62-3.76-9.62-11.12
			c0-6.93,4.24-11.12,9.62-11.12C644.85,597.8,647.85,598.49,649.69,600.92z M649.69,608.92c0-3.46-1.8-5.9-5.01-5.9
			c-3.21,0-5,2.44-5,5.9c0,3.42,1.8,5.9,5,5.9C647.89,614.83,649.69,612.35,649.69,608.92z"/>
	</g>
</g>
</svg>
